{
copyright = "Copyright (c) 2015, Cadson Demak (info@cadsondemak.com)";
customParameters = (
{
name = vendorID;
value = CDK;
},
{
name = description;
value = "Copyright (c) 2015, Cadson Demak (info@cadsondemak.com)";
},
{
name = license;

glyphs = (
{
glyphname = A;
lastChange = "2015-12-01 14:00:36 +0000";
layers = (
{
layerId = "E6BC66B7-46A3-4CBE-A067-18EBCB5231B7";
name = "Bold Italic";
paths = (
{
closed = 1;
nodes = (
"218 0 LINE",
"228 48 LINE",
"205 48 LINE SMOOTH",
"190 48 OFFCURVE",
"173 54 OFFCURVE",
"173 73 CURVE SMOOTH",
"173 80 OFFCURVE",
"175 88 OFFCURVE",
"182 99 CURVE SMOOTH",
"415 509 LINE",
"476 91 LINE SMOOTH",
"476 88 OFFCURVE",
"476 85 OFFCURVE",
"476 82 CURVE SMOOTH",
"476 59 OFFCURVE",
"462 48 OFFCURVE",
"436 48 CURVE SMOOTH",
"413 48 LINE",
"404 0 LINE",
"750 0 LINE",
"760 48 LINE",
"737 48 LINE SMOOTH",
"717 48 OFFCURVE",
"700 56 OFFCURVE",
"694 84 CURVE SMOOTH",
"571 728 LINE",
"411 676 LINE",
"63 87 LINE SMOOTH",
"46 59 OFFCURVE",
"15 48 OFFCURVE",
"-10 48 CURVE SMOOTH",
"-27 48 LINE",
"-36 0 LINE"
);
},
{
closed = 1;
nodes = (
"522 174 LINE",
"536 242 LINE",
"206 242 LINE",
"191 174 LINE"
);
}
);
width = 794;
}
);
leftKerningGroup = A;
note = A;
rightKerningGroup = A;
unicode = 0041;
},
{
glyphname = Aacute;
lastChange = "2015-12-01 14:00:36 +0000";
layers = (
{
layerId = "E6BC66B7-46A3-4CBE-A067-18EBCB5231B7";
name = "Bold Italic";
paths = (
{
closed = 1;
nodes = (
"218 0 LINE",
"228 48 LINE",
"205 48 LINE SMOOTH",
"190 48 OFFCURVE",
"173 54 OFFCURVE",
"173 73 CURVE SMOOTH",
"173 80 OFFCURVE",
"175 88 OFFCURVE",
"182 99 CURVE SMOOTH",
"415 509 LINE",
"476 91 LINE SMOOTH",
"476 88 OFFCURVE",
"476 85 OFFCURVE",
"476 82 CURVE SMOOTH",
"476 59 OFFCURVE",
"462 48 OFFCURVE",
"436 48 CURVE SMOOTH",
"413 48 LINE",
"404 0 LINE",
"750 0 LINE",
"760 48 LINE",
"737 48 LINE SMOOTH",
"717 48 OFFCURVE",
"700 56 OFFCURVE",
"694 84 CURVE SMOOTH",
"571 728 LINE",
"411 676 LINE",
"63 87 LINE SMOOTH",
"46 59 OFFCURVE",
"15 48 OFFCURVE",
"-10 48 CURVE SMOOTH",
"-27 48 LINE",
"-36 0 LINE"
);
},
{
closed = 1;
nodes = (
"522 174 LINE",
"536 242 LINE",
"206 242 LINE",
"191 174 LINE"
);
},
{
closed = 1;
nodes = (
"609 874 LINE SMOOTH",
"650 897 OFFCURVE",
"677 920 OFFCURVE",
"683 950 CURVE",
"684 954 OFFCURVE",
"684 958 OFFCURVE",
"684 962 CURVE SMOOTH",
"684 983 OFFCURVE",
"670 1005 OFFCURVE",
"633 1005 CURVE SMOOTH",
"594 1005 OFFCURVE",
"557 969 OFFCURVE",
"549 962 CURVE SMOOTH",
"399 823 LINE",
"424 773 LINE"
);
}
);
width = 794;
}
);
leftKerningGroup = A;
note = Aacute;
rightKerningGroup = A;
unicode = 00C1;
},
{
glyphname = Abreve;
lastChange = "2015-12-01 14:00:37 +0000";
layers = (
{
layerId = "E6BC66B7-46A3-4CBE-A067-18EBCB5231B7";
name = "Bold Italic";
paths = (
{
closed = 1;
nodes = (
"218 0 LINE",
"228 48 LINE",
"205 48 LINE SMOOTH",
"190 48 OFFCURVE",
"173 54 OFFCURVE",
"173 73 CURVE SMOOTH",
"173 80 OFFCURVE",
"175 88 OFFCURVE",
"182 99 CURVE SMOOTH",
"415 509 LINE",
"476 91 LINE SMOOTH",
"476 88 OFFCURVE",
"476 85 OFFCURVE",
"476 82 CURVE SMOOTH",
"476 59 OFFCURVE",
"462 48 OFFCURVE",
"436 48 CURVE SMOOTH",
"413 48 LINE",
"404 0 LINE",
"750 0 LINE",
"760 48 LINE",
"737 48 LINE SMOOTH",
"717 48 OFFCURVE",
"700 56 OFFCURVE",
"694 84 CURVE SMOOTH",
"571 728 LINE",
"411 676 LINE",
"63 87 LINE SMOOTH",
"46 59 OFFCURVE",
"15 48 OFFCURVE",
"-10 48 CURVE SMOOTH",
"-27 48 LINE",
"-36 0 LINE"
);
},
{
closed = 1;
nodes = (
"522 174 LINE",
"536 242 LINE",
"206 242 LINE",
"191 174 LINE"
);
},
{
closed = 1;
nodes = (
"659 777 OFFCURVE",
"701 867 OFFCURVE",
"716 937 CURVE",
"671 937 LINE",
"665 913 OFFCURVE",
"634 860 OFFCURVE",
"532 860 CURVE SMOOTH",
"430 860 OFFCURVE",
"423 913 OFFCURVE",
"426 937 CURVE",
"383 937 LINE",
"380 920 OFFCURVE",
"378 903 OFFCURVE",
"378 886 CURVE SMOOTH",
"378 828 OFFCURVE",
"406 777 OFFCURVE",
"517 777 CURVE SMOOTH"
);
}
);
width = 794;
}
);
leftKerningGroup = A;
note = Abreve;
rightKerningGroup = A;
unicode = 0102;
},
{
glyphname = Abreveacute;
lastChange = "2015-12-01 14:00:37 +0000";
layers = (
{
layerId = "E6BC66B7-46A3-4CBE-A067-18EBCB5231B7";
name = "Bold Italic";
paths = (
{
closed = 1;
nodes = (
"218 0 LINE",
"228 48 LINE",
"205 48 LINE SMOOTH",
"190 48 OFFCURVE",
"173 54 OFFCURVE",
"173 73 CURVE SMOOTH",
"173 80 OFFCURVE",
"175 88 OFFCURVE",
"182 99 CURVE SMOOTH",
"415 509 LINE",
"476 91 LINE SMOOTH",
"476 88 OFFCURVE",
"476 85 OFFCURVE",
"476 82 CURVE SMOOTH",
"476 59 OFFCURVE",
"462 48 OFFCURVE",
"436 48 CURVE SMOOTH",
"413 48 LINE",
"404 0 LINE",
"750 0 LINE",
"760 48 LINE",
"737 48 LINE SMOOTH",
"717 48 OFFCURVE",
"700 56 OFFCURVE",
"694 84 CURVE SMOOTH",
"571 728 LINE",
"411 676 LINE",
"63 87 LINE SMOOTH",
"46 59 OFFCURVE",
"15 48 OFFCURVE",
"-10 48 CURVE SMOOTH",
"-27 48 LINE",
"-36 0 LINE"
);
},
{
closed = 1;
nodes = (
"522 174 LINE",
"536 242 LINE",
"206 242 LINE",
"191 174 LINE"
);
},
{
closed = 1;
nodes = (
"657 775 OFFCURVE",
"699 865 OFFCURVE",
"714 935 CURVE",
"669 935 LINE",
"663 911 OFFCURVE",
"634 858 OFFCURVE",
"532 858 CURVE SMOOTH",
"430 858 OFFCURVE",
"422 911 OFFCURVE",
"425 935 CURVE",
"381 935 LINE",
"378 918 OFFCURVE",
"376 901 OFFCURVE",
"376 884 CURVE SMOOTH",
"376 826 OFFCURVE",
"404 775 OFFCURVE",
"516 775 CURVE SMOOTH"
);
},
{
closed = 1;
nodes = (
"652 979 LINE SMOOTH",
"701 1002 OFFCURVE",
"734 1033 OFFCURVE",
"734 1068 CURVE SMOOTH",
"734 1089 OFFCURVE",
"722 1115 OFFCURVE",
"684 1115 CURVE SMOOTH",
"649 1115 OFFCURVE",
"617 1084 OFFCURVE",
"598 1065 CURVE SMOOTH",
"503 965 LINE",
"525 922 LINE"
);
}
);
width = 794;
}
);
leftKerningGroup = A;
note = Abreveacute;
rightKerningGroup = A;
unicode = 1EAE;
},
{
glyphname = Abrevedotbelow;
lastChange = "2015-12-01 14:00:36 +0000";
layers = (
{
layerId = "E6BC66B7-46A3-4CBE-A067-18EBCB5231B7";
name = "Bold Italic";
paths = (
{
closed = 1;
nodes = (
"218 0 LINE",
"228 48 LINE",
"205 48 LINE SMOOTH",
"190 48 OFFCURVE",
"173 54 OFFCURVE",
"173 73 CURVE SMOOTH",
"173 80 OFFCURVE",
"175 88 OFFCURVE",
"182 99 CURVE SMOOTH",
"415 509 LINE",
"476 91 LINE SMOOTH",
"476 88 OFFCURVE",
"476 85 OFFCURVE",
"476 82 CURVE SMOOTH",
"476 59 OFFCURVE",
"462 48 OFFCURVE",
"436 48 CURVE SMOOTH",
"413 48 LINE",
"404 0 LINE",
"750 0 LINE",
"760 48 LINE",
"737 48 LINE SMOOTH",
"717 48 OFFCURVE",
"700 56 OFFCURVE",
"694 84 CURVE SMOOTH",
"571 728 LINE",
"411 676 LINE",
"63 87 LINE SMOOTH",
"46 59 OFFCURVE",
"15 48 OFFCURVE",
"-10 48 CURVE SMOOTH",
"-27 48 LINE",
"-36 0 LINE"
);
},
{
closed = 1;
nodes = (
"363 -216 OFFCURVE",
"403 -174 OFFCURVE",
"403 -124 CURVE SMOOTH",
"403 -90 OFFCURVE",
"381 -64 OFFCURVE",
"343 -64 CURVE SMOOTH",
"292 -64 OFFCURVE",
"253 -109 OFFCURVE",
"253 -159 CURVE SMOOTH",
"253 -192 OFFCURVE",
"274 -216 OFFCURVE",
"312 -216 CURVE SMOOTH"
);
},
{
closed = 1;
nodes = (
"522 174 LINE",
"536 242 LINE",
"206 242 LINE",
"191 174 LINE"
);
},
{
closed = 1;
nodes = (
"658 775 OFFCURVE",
"700 865 OFFCURVE",
"715 935 CURVE",
"670 935 LINE",
"664 911 OFFCURVE",
"633 858 OFFCURVE",
"531 858 CURVE SMOOTH",
"429 858 OFFCURVE",
"422 911 OFFCURVE",
"425 935 CURVE",
"382 935 LINE",
"379 918 OFFCURVE",
"377 901 OFFCURVE",
"377 884 CURVE SMOOTH",
"377 826 OFFCURVE",
"405 775 OFFCURVE",
"516 775 CURVE SMOOTH"
);
}
);
width = 794;
}
);
leftKerningGroup = A;
note = Abrevedotbelow;
rightKerningGroup = A;
unicode = 1EB6;
},
{
glyphname = Abrevegrave;
lastChange = "2015-12-01 14:00:37 +0000";
layers = (
{
layerId = "E6BC66B7-46A3-4CBE-A067-18EBCB5231B7";
name = "Bold Italic";
paths = (
{
closed = 1;
nodes = (
"218 0 LINE",
"228 48 LINE",
"205 48 LINE SMOOTH",
"190 48 OFFCURVE",
"173 54 OFFCURVE",
"173 73 CURVE SMOOTH",
"173 80 OFFCURVE",
"175 88 OFFCURVE",
"182 99 CURVE SMOOTH",
"415 509 LINE",
"476 91 LINE SMOOTH",
"476 88 OFFCURVE",
"476 85 OFFCURVE",
"476 82 CURVE SMOOTH",
"476 59 OFFCURVE",
"462 48 OFFCURVE",
"436 48 CURVE SMOOTH",
"413 48 LINE",
"404 0 LINE",
"750 0 LINE",
"760 48 LINE",
"737 48 LINE SMOOTH",
"717 48 OFFCURVE",
"700 56 OFFCURVE",
"694 84 CURVE SMOOTH",
"571 728 LINE",
"411 676 LINE",
"63 87 LINE SMOOTH",
"46 59 OFFCURVE",
"15 48 OFFCURVE",
"-10 48 CURVE SMOOTH",
"-27 48 LINE",
"-36 0 LINE"
);
},
{
closed = 1;
nodes = (
"522 174 LINE",
"536 242 LINE",
"206 242 LINE",
"191 174 LINE"
);
},
{
closed = 1;
nodes = (
"657 775 OFFCURVE",
"699 865 OFFCURVE",
"714 935 CURVE",
"669 935 LINE",
"663 911 OFFCURVE",
"634 858 OFFCURVE",
"532 858 CURVE SMOOTH",
"430 858 OFFCURVE",
"422 911 OFFCURVE",
"425 935 CURVE",
"381 935 LINE",
"378 918 OFFCURVE",
"376 901 OFFCURVE",
"376 884 CURVE SMOOTH",
"376 826 OFFCURVE",
"404 775 OFFCURVE",
"516 775 CURVE SMOOTH"
);
},
{
closed = 1;
nodes = (
"610 965 LINE",
"554 1065 LINE SMOOTH",
"544 1084 OFFCURVE",
"524 1115 OFFCURVE",
"490 1115 CURVE SMOOTH",
"445 1115 OFFCURVE",
"420 1079 OFFCURVE",
"415 1056 CURVE SMOOTH",
"414 1053 OFFCURVE",
"414 1049 OFFCURVE",
"414 1046 CURVE SMOOTH",
"414 1020 OFFCURVE",
"433 998 OFFCURVE",
"467 979 CURVE SMOOTH",
"568 922 LINE"
);
}
);
width = 794;
}
);
leftKerningGroup = A;
note = Abrevegrave;
rightKerningGroup = A;
unicode = 1EB0;
},
{
glyphname = Abrevehookabove;
lastChange = "2015-12-01 14:00:37 +0000";
layers = (
{
layerId = "E6BC66B7-46A3-4CBE-A067-18EBCB5231B7";
name = "Bold Italic";
paths = (
{
closed = 1;
nodes = (
"218 0 LINE",
"228 48 LINE",
"205 48 LINE SMOOTH",
"190 48 OFFCURVE",
"173 54 OFFCURVE",
"173 73 CURVE SMOOTH",
"173 80 OFFCURVE",
"175 88 OFFCURVE",
"182 99 CURVE SMOOTH",
"415 509 LINE",
"476 91 LINE SMOOTH",
"476 88 OFFCURVE",
"476 85 OFFCURVE",
"476 82 CURVE SMOOTH",
"476 59 OFFCURVE",
"462 48 OFFCURVE",
"436 48 CURVE SMOOTH",
"413 48 LINE",
"404 0 LINE",
"750 0 LINE",
"760 48 LINE",
"737 48 LINE SMOOTH",
"717 48 OFFCURVE",
"700 56 OFFCURVE",
"694 84 CURVE SMOOTH",
"571 728 LINE",
"411 676 LINE",
"63 87 LINE SMOOTH",
"46 59 OFFCURVE",
"15 48 OFFCURVE",
"-10 48 CURVE SMOOTH",
"-27 48 LINE",
"-36 0 LINE"
);
},
{
closed = 1;
nodes = (
"522 174 LINE",
"536 242 LINE",
"206 242 LINE",
"191 174 LINE"
);
},
{
closed = 1;
nodes = (
"657 775 OFFCURVE",
"699 865 OFFCURVE",
"714 935 CURVE",
"669 935 LINE",
"663 911 OFFCURVE",
"634 858 OFFCURVE",
"532 858 CURVE SMOOTH",
"430 858 OFFCURVE",
"422 911 OFFCURVE",
"425 935 CURVE",
"381 935 LINE",
"378 918 OFFCURVE",
"376 901 OFFCURVE",
"376 884 CURVE SMOOTH",
"376 826 OFFCURVE",
"404 775 OFFCURVE",
"516 775 CURVE SMOOTH"
);
},
{
closed = 1;
nodes = (
"587 950 LINE",
"577 950 OFFCURVE",
"567 952 OFFCURVE",
"567 966 CURVE SMOOTH",
"567 968 OFFCURVE",
"567 970 OFFCURVE",
"568 973 CURVE SMOOTH",
"577 1018 OFFCURVE",
"692 1021 OFFCURVE",
"692 1094 CURVE SMOOTH",
"692 1133 OFFCURVE",
"651 1151 OFFCURVE",
"601 1151 CURVE SMOOTH",
"521 1151 OFFCURVE",
"491 1113 OFFCURVE",
"487 1094 CURVE SMOOTH",
"486 1091 OFFCURVE",
"486 1088 OFFCURVE",
"486 1086 CURVE SMOOTH",
"486 1068 OFFCURVE",
"500 1060 OFFCURVE",
"514 1060 CURVE SMOOTH",
"530 1060 OFFCURVE",
"548 1070 OFFCURVE",
"552 1087 CURVE",
"557 1114 OFFCURVE",
"580 1121 OFFCURVE",
"594 1121 CURVE SMOOTH",
"613 1121 OFFCURVE",
"618 1104 OFFCURVE",
"615 1091 CURVE SMOOTH",
"602 1030 OFFCURVE",
"509 1021 OFFCURVE",
"509 966 CURVE SMOOTH",
"509 940 OFFCURVE",
"541 927 OFFCURVE",
"576 927 CURVE"
);
}
);
width = 794;
}
);
leftKerningGroup = A;
note = Abrevehookabove;
rightKerningGroup = A;
unicode = 1EB2;
},
{
glyphname = Abrevetilde;
lastChange = "2015-12-01 14:00:36 +0000";
layers = (
{
layerId = "E6BC66B7-46A3-4CBE-A067-18EBCB5231B7";
name = "Bold Italic";
paths = (
{
closed = 1;
nodes = (
"218 0 LINE",
"228 48 LINE",
"205 48 LINE SMOOTH",
"190 48 OFFCURVE",
"173 54 OFFCURVE",
"173 73 CURVE SMOOTH",
"173 80 OFFCURVE",
"175 88 OFFCURVE",
"182 99 CURVE SMOOTH",
"415 509 LINE",
"476 91 LINE SMOOTH",
"476 88 OFFCURVE",
"476 85 OFFCURVE",
"476 82 CURVE SMOOTH",
"476 59 OFFCURVE",
"462 48 OFFCURVE",
"436 48 CURVE SMOOTH",
"413 48 LINE",
"404 0 LINE",
"750 0 LINE",
"760 48 LINE",
"737 48 LINE SMOOTH",
"717 48 OFFCURVE",
"700 56 OFFCURVE",
"694 84 CURVE SMOOTH",
"571 728 LINE",
"411 676 LINE",
"63 87 LINE SMOOTH",
"46 59 OFFCURVE",
"15 48 OFFCURVE",
"-10 48 CURVE SMOOTH",
"-27 48 LINE",
"-36 0 LINE"
);
},
{
closed = 1;
nodes = (
"522 174 LINE",
"536 242 LINE",
"206 242 LINE",
"191 174 LINE"
);
},
{
closed = 1;
nodes = (
"657 775 OFFCURVE",
"699 865 OFFCURVE",
"714 935 CURVE",
"669 935 LINE",
"663 911 OFFCURVE",
"634 858 OFFCURVE",
"532 858 CURVE SMOOTH",
"430 858 OFFCURVE",
"422 911 OFFCURVE",
"425 935 CURVE",
"381 935 LINE",
"378 918 OFFCURVE",
"376 901 OFFCURVE",
"376 884 CURVE SMOOTH",
"376 826 OFFCURVE",
"404 775 OFFCURVE",
"516 775 CURVE SMOOTH"
);
},
{
closed = 1;
nodes = (
"434 1024 OFFCURVE",
"451 1041 OFFCURVE",
"481 1041 CURVE SMOOTH",
"533 1041 OFFCURVE",
"569 997 OFFCURVE",
"620 997 CURVE SMOOTH",
"684 997 OFFCURVE",
"731 1080 OFFCURVE",
"753 1124 CURVE",
"731 1143 LINE",
"705 1102 OFFCURVE",
"690 1086 OFFCURVE",
"659 1086 CURVE SMOOTH",
"608 1086 OFFCURVE",
"572 1130 OFFCURVE",
"522 1130 CURVE SMOOTH",
"455 1130 OFFCURVE",
"409 1047 OFFCURVE",
"386 1003 CURVE",
"409 984 LINE"
);
}
);
width = 794;
}
);
leftKerningGroup = A;
note = Abrevetilde;
rightKerningGroup = A;
unicode = 1EB4;
},
{
glyphname = Acaron;
lastChange = "2015-12-01 14:00:37 +0000";
layers = (
{
layerId = "E6BC66B7-46A3-4CBE-A067-18EBCB5231B7";
name = "Bold Italic";
paths = (
{
closed = 1;
nodes = (
"218 0 LINE",
"228 48 LINE",
"205 48 LINE SMOOTH",
"190 48 OFFCURVE",
"173 54 OFFCURVE",
"173 73 CURVE SMOOTH",
"173 80 OFFCURVE",
"175 88 OFFCURVE",
"182 99 CURVE SMOOTH",
"415 509 LINE",
"476 91 LINE SMOOTH",
"476 88 OFFCURVE",
"476 85 OFFCURVE",
"476 82 CURVE SMOOTH",
"476 59 OFFCURVE",
"462 48 OFFCURVE",
"436 48 CURVE SMOOTH",
"413 48 LINE",
"404 0 LINE",
"750 0 LINE",
"760 48 LINE",
"737 48 LINE SMOOTH",
"717 48 OFFCURVE",
"700 56 OFFCURVE",
"694 84 CURVE SMOOTH",
"571 728 LINE",
"411 676 LINE",
"63 87 LINE SMOOTH",
"46 59 OFFCURVE",
"15 48 OFFCURVE",
"-10 48 CURVE SMOOTH",
"-27 48 LINE",
"-36 0 LINE"
);
},
{
closed = 1;
nodes = (
"522 174 LINE",
"536 242 LINE",
"206 242 LINE",
"191 174 LINE"
);
},
{
closed = 1;
nodes = (
"565 775 LINE",
"760 960 LINE",
"740 990 LINE",
"582 887 LINE SMOOTH",
"564 875 OFFCURVE",
"548 866 OFFCURVE",
"536 866 CURVE SMOOTH",
"525 866 OFFCURVE",
"512 875 OFFCURVE",
"498 887 CURVE",
"383 990 LINE",
"352 960 LINE",
"469 775 LINE"
);
}
);
width = 794;
}
);
leftKerningGroup = A;
note = Acaron;
rightKerningGroup = A;
unicode = 01CD;
},
{
glyphname = Acircumflex;
lastChange = "2015-12-01 14:00:35 +0000";
layers = (
{
layerId = "E6BC66B7-46A3-4CBE-A067-18EBCB5231B7";
name = "Bold Italic";
paths = (
{
closed = 1;
nodes = (
"218 0 LINE",
"228 48 LINE",
"205 48 LINE SMOOTH",
"190 48 OFFCURVE",
"173 54 OFFCURVE",
"173 73 CURVE SMOOTH",
"173 80 OFFCURVE",
"175 88 OFFCURVE",
"182 99 CURVE SMOOTH",
"415 509 LINE",
"476 91 LINE SMOOTH",
"476 88 OFFCURVE",
"476 85 OFFCURVE",
"476 82 CURVE SMOOTH",
"476 59 OFFCURVE",
"462 48 OFFCURVE",
"436 48 CURVE SMOOTH",
"413 48 LINE",
"404 0 LINE",
"750 0 LINE",
"760 48 LINE",
"737 48 LINE SMOOTH",
"717 48 OFFCURVE",
"700 56 OFFCURVE",
"694 84 CURVE SMOOTH",
"571 728 LINE",
"411 676 LINE",
"63 87 LINE SMOOTH",
"46 59 OFFCURVE",
"15 48 OFFCURVE",
"-10 48 CURVE SMOOTH",
"-27 48 LINE",
"-36 0 LINE"
);
},
{
closed = 1;
nodes = (
"522 174 LINE",
"536 242 LINE",
"206 242 LINE",
"191 174 LINE"
);
},
{
closed = 1;
nodes = (
"496 878 LINE SMOOTH",
"515 890 OFFCURVE",
"532 899 OFFCURVE",
"543 899 CURVE SMOOTH",
"554 899 OFFCURVE",
"567 890 OFFCURVE",
"580 878 CURVE SMOOTH",
"695 775 LINE",
"728 805 LINE",
"609 990 LINE",
"513 990 LINE",
"320 805 LINE",
"339 775 LINE"
);
}
);
width = 794;
}
);
leftKerningGroup = A;
note = Acircumflex;
rightKerningGroup = A;
unicode = 00C2;
},
{
glyphname = Acircumflexacute;
lastChange = "2015-12-01 14:00:36 +0000";
layers = (
{
layerId = "E6BC66B7-46A3-4CBE-A067-18EBCB5231B7";
name = "Bold Italic";
paths = (
{
closed = 1;
nodes = (
"218 0 LINE",
"228 48 LINE",
"205 48 LINE SMOOTH",
"190 48 OFFCURVE",
"173 54 OFFCURVE",
"173 73 CURVE SMOOTH",
"173 80 OFFCURVE",
"175 88 OFFCURVE",
"182 99 CURVE SMOOTH",
"415 509 LINE",
"476 91 LINE SMOOTH",
"476 88 OFFCURVE",
"476 85 OFFCURVE",
"476 82 CURVE SMOOTH",
"476 59 OFFCURVE",
"462 48 OFFCURVE",
"436 48 CURVE SMOOTH",
"413 48 LINE",
"404 0 LINE",
"750 0 LINE",
"760 48 LINE",
"737 48 LINE SMOOTH",
"717 48 OFFCURVE",
"700 56 OFFCURVE",
"694 84 CURVE SMOOTH",
"571 728 LINE",
"411 676 LINE",
"63 87 LINE SMOOTH",
"46 59 OFFCURVE",
"15 48 OFFCURVE",
"-10 48 CURVE SMOOTH",
"-27 48 LINE",
"-36 0 LINE"
);
},
{
closed = 1;
nodes = (
"522 174 LINE",
"536 242 LINE",
"206 242 LINE",
"191 174 LINE"
);
},
{
closed = 1;
nodes = (
"502 877 LINE SMOOTH",
"521 889 OFFCURVE",
"536 898 OFFCURVE",
"547 898 CURVE SMOOTH",
"558 898 OFFCURVE",
"571 889 OFFCURVE",
"583 877 CURVE SMOOTH",
"692 774 LINE",
"723 804 LINE",
"612 989 LINE",
"520 989 LINE",
"331 804 LINE",
"350 774 LINE"
);
},
{
closed = 1;
nodes = (
"824 976 LINE SMOOTH",
"874 1000 OFFCURVE",
"908 1029 OFFCURVE",
"908 1064 CURVE SMOOTH",
"908 1086 OFFCURVE",
"895 1112 OFFCURVE",
"857 1112 CURVE SMOOTH",
"822 1112 OFFCURVE",
"788 1081 OFFCURVE",
"770 1062 CURVE SMOOTH",
"676 962 LINE",
"698 919 LINE"
);
}
);
width = 794;
}
);
leftKerningGroup = A;
note = Acircumflexacute;
rightKerningGroup = A;
unicode = 1EA4;
},
{
glyphname = Acircumflexdotbelow;
lastChange = "2015-12-01 14:00:37 +0000";
layers = (
{
layerId = "E6BC66B7-46A3-4CBE-A067-18EBCB5231B7";
name = "Bold Italic";
paths = (
{
closed = 1;
nodes = (
"218 0 LINE",
"228 48 LINE",
"205 48 LINE SMOOTH",
"190 48 OFFCURVE",
"173 54 OFFCURVE",
"173 73 CURVE SMOOTH",
"173 80 OFFCURVE",
"175 88 OFFCURVE",
"182 99 CURVE SMOOTH",
"415 509 LINE",
"476 91 LINE SMOOTH",
"476 88 OFFCURVE",
"476 85 OFFCURVE",
"476 82 CURVE SMOOTH",
"476 59 OFFCURVE",
"462 48 OFFCURVE",
"436 48 CURVE SMOOTH",
"413 48 LINE",
"404 0 LINE",
"750 0 LINE",
"760 48 LINE",
"737 48 LINE SMOOTH",
"717 48 OFFCURVE",
"700 56 OFFCURVE",
"694 84 CURVE SMOOTH",
"571 728 LINE",
"411 676 LINE",
"63 87 LINE SMOOTH",
"46 59 OFFCURVE",
"15 48 OFFCURVE",
"-10 48 CURVE SMOOTH",
"-27 48 LINE",
"-36 0 LINE"
);
},
{
closed = 1;
nodes = (
"373 -216 OFFCURVE",
"412 -174 OFFCURVE",
"412 -124 CURVE SMOOTH",
"412 -90 OFFCURVE",
"391 -64 OFFCURVE",
"353 -64 CURVE SMOOTH",
"302 -64 OFFCURVE",
"262 -109 OFFCURVE",
"262 -159 CURVE SMOOTH",
"262 -192 OFFCURVE",
"284 -216 OFFCURVE",
"322 -216 CURVE SMOOTH"
);
},
{
closed = 1;
nodes = (
"522 174 LINE",
"536 242 LINE",
"206 242 LINE",
"191 174 LINE"
);
},
{
closed = 1;
nodes = (
"498 877 LINE SMOOTH",
"517 889 OFFCURVE",
"534 898 OFFCURVE",
"545 898 CURVE SMOOTH",
"556 898 OFFCURVE",
"569 889 OFFCURVE",
"582 877 CURVE SMOOTH",
"697 774 LINE",
"730 804 LINE",
"611 989 LINE",
"515 989 LINE",
"322 804 LINE",
"341 774 LINE"
);
}
);
width = 794;
}
);
leftKerningGroup = A;
note = Acircumflexdotbelow;
rightKerningGroup = A;
unicode = 1EAC;
},
{
glyphname = Acircumflexgrave;
lastChange = "2015-12-01 14:00:35 +0000";
layers = (
{
layerId = "E6BC66B7-46A3-4CBE-A067-18EBCB5231B7";
name = "Bold Italic";
paths = (
{
closed = 1;
nodes = (
"218 0 LINE",
"228 48 LINE",
"205 48 LINE SMOOTH",
"190 48 OFFCURVE",
"173 54 OFFCURVE",
"173 73 CURVE SMOOTH",
"173 80 OFFCURVE",
"175 88 OFFCURVE",
"182 99 CURVE SMOOTH",
"415 509 LINE",
"476 91 LINE SMOOTH",
"476 88 OFFCURVE",
"476 85 OFFCURVE",
"476 82 CURVE SMOOTH",
"476 59 OFFCURVE",
"462 48 OFFCURVE",
"436 48 CURVE SMOOTH",
"413 48 LINE",
"404 0 LINE",
"750 0 LINE",
"760 48 LINE",
"737 48 LINE SMOOTH",
"717 48 OFFCURVE",
"700 56 OFFCURVE",
"694 84 CURVE SMOOTH",
"571 728 LINE",
"411 676 LINE",
"63 87 LINE SMOOTH",
"46 59 OFFCURVE",
"15 48 OFFCURVE",
"-10 48 CURVE SMOOTH",
"-27 48 LINE",
"-36 0 LINE"
);
},
{
closed = 1;
nodes = (
"522 174 LINE",
"536 242 LINE",
"206 242 LINE",
"191 174 LINE"
);
},
{
closed = 1;
nodes = (
"445 962 LINE",
"389 1062 LINE SMOOTH",
"379 1081 OFFCURVE",
"359 1112 OFFCURVE",
"325 1112 CURVE SMOOTH",
"280 1112 OFFCURVE",
"255 1076 OFFCURVE",
"250 1053 CURVE SMOOTH",
"249 1050 OFFCURVE",
"249 1046 OFFCURVE",
"249 1043 CURVE SMOOTH",
"249 1017 OFFCURVE",
"268 995 OFFCURVE",
"302 976 CURVE SMOOTH",
"404 919 LINE"
);
},
{
closed = 1;
nodes = (
"502 877 LINE SMOOTH",
"521 889 OFFCURVE",
"536 898 OFFCURVE",
"547 898 CURVE SMOOTH",
"558 898 OFFCURVE",
"571 889 OFFCURVE",
"583 877 CURVE SMOOTH",
"692 774 LINE",
"723 804 LINE",
"612 989 LINE",
"520 989 LINE",
"331 804 LINE",
"350 774 LINE"
);
}
);
width = 794;
}
);
leftKerningGroup = A;
note = Acircumflexgrave;
rightKerningGroup = A;
unicode = 1EA6;
},
{
glyphname = Acircumflexhookabove;
lastChange = "2015-12-01 14:00:36 +0000";
layers = (
{
layerId = "E6BC66B7-46A3-4CBE-A067-18EBCB5231B7";
name = "Bold Italic";
paths = (
{
closed = 1;
nodes = (
"218 0 LINE",
"228 48 LINE",
"205 48 LINE SMOOTH",
"190 48 OFFCURVE",
"173 54 OFFCURVE",
"173 73 CURVE SMOOTH",
"173 80 OFFCURVE",
"175 88 OFFCURVE",
"182 99 CURVE SMOOTH",
"415 509 LINE",
"476 91 LINE SMOOTH",
"476 88 OFFCURVE",
"476 85 OFFCURVE",
"476 82 CURVE SMOOTH",
"476 59 OFFCURVE",
"462 48 OFFCURVE",
"436 48 CURVE SMOOTH",
"413 48 LINE",
"404 0 LINE",
"750 0 LINE",
"760 48 LINE",
"737 48 LINE SMOOTH",
"717 48 OFFCURVE",
"700 56 OFFCURVE",
"694 84 CURVE SMOOTH",
"571 728 LINE",
"411 676 LINE",
"63 87 LINE SMOOTH",
"46 59 OFFCURVE",
"15 48 OFFCURVE",
"-10 48 CURVE SMOOTH",
"-27 48 LINE",
"-36 0 LINE"
);
},
{
closed = 1;
nodes = (
"522 174 LINE",
"536 242 LINE",
"206 242 LINE",
"191 174 LINE"
);
},
{
closed = 1;
nodes = (
"502 876 LINE SMOOTH",
"520 888 OFFCURVE",
"536 897 OFFCURVE",
"547 897 CURVE SMOOTH",
"558 897 OFFCURVE",
"570 888 OFFCURVE",
"583 876 CURVE SMOOTH",
"692 773 LINE",
"723 803 LINE",
"612 988 LINE",
"520 988 LINE",
"331 803 LINE",
"350 773 LINE"
);
},
{
closed = 1;
nodes = (
"761 946 LINE",
"752 946 OFFCURVE",
"740 948 OFFCURVE",
"740 961 CURVE SMOOTH",
"740 964 OFFCURVE",
"740 966 OFFCURVE",
"741 969 CURVE",
"751 1014 OFFCURVE",
"866 1017 OFFCURVE",
"866 1091 CURVE SMOOTH",
"866 1129 OFFCURVE",
"824 1147 OFFCURVE",
"774 1147 CURVE SMOOTH",
"693 1147 OFFCURVE",
"665 1109 OFFCURVE",
"661 1090 CURVE SMOOTH",
"660 1087 OFFCURVE",
"660 1084 OFFCURVE",
"660 1082 CURVE SMOOTH",
"660 1064 OFFCURVE",
"673 1056 OFFCURVE",
"687 1056 CURVE SMOOTH",
"703 1056 OFFCURVE",
"721 1066 OFFCURVE",
"725 1083 CURVE SMOOTH",
"731 1110 OFFCURVE",
"753 1117 OFFCURVE",
"766 1117 CURVE SMOOTH",
"786 1117 OFFCURVE",
"790 1100 OFFCURVE",
"788 1087 CURVE",
"775 1026 OFFCURVE",
"682 1017 OFFCURVE",
"682 962 CURVE SMOOTH",
"682 936 OFFCURVE",
"714 923 OFFCURVE",
"749 923 CURVE"
);
}
);
width = 794;
}
);
leftKerningGroup = A;
note = Acircumflexhookabove;
rightKerningGroup = A;
unicode = 1EA8;
},
{
glyphname = Acircumflextilde;
lastChange = "2015-12-01 14:00:36 +0000";
layers = (
{
layerId = "E6BC66B7-46A3-4CBE-A067-18EBCB5231B7";
name = "Bold Italic";
paths = (
{
closed = 1;
nodes = (
"218 0 LINE",
"228 48 LINE",
"205 48 LINE SMOOTH",
"190 48 OFFCURVE",
"173 54 OFFCURVE",
"173 73 CURVE SMOOTH",
"173 80 OFFCURVE",
"175 88 OFFCURVE",
"182 99 CURVE SMOOTH",
"415 509 LINE",
"476 91 LINE SMOOTH",
"476 88 OFFCURVE",
"476 85 OFFCURVE",
"476 82 CURVE SMOOTH",
"476 59 OFFCURVE",
"462 48 OFFCURVE",
"436 48 CURVE SMOOTH",
"413 48 LINE",
"404 0 LINE",
"750 0 LINE",
"760 48 LINE",
"737 48 LINE SMOOTH",
"717 48 OFFCURVE",
"700 56 OFFCURVE",
"694 84 CURVE SMOOTH",
"571 728 LINE",
"411 676 LINE",
"63 87 LINE SMOOTH",
"46 59 OFFCURVE",
"15 48 OFFCURVE",
"-10 48 CURVE SMOOTH",
"-27 48 LINE",
"-36 0 LINE"
);
},
{
closed = 1;
nodes = (
"522 174 LINE",
"536 242 LINE",
"206 242 LINE",
"191 174 LINE"
);
},
{
closed = 1;
nodes = (
"502 876 LINE SMOOTH",
"520 888 OFFCURVE",
"536 897 OFFCURVE",
"547 897 CURVE SMOOTH",
"558 897 OFFCURVE",
"570 888 OFFCURVE",
"583 876 CURVE SMOOTH",
"692 773 LINE",
"723 803 LINE",
"612 988 LINE",
"520 988 LINE",
"331 803 LINE",
"350 773 LINE"
);
},
{
closed = 1;
nodes = (
"433 1042 OFFCURVE",
"452 1059 OFFCURVE",
"485 1059 CURVE SMOOTH",
"543 1059 OFFCURVE",
"584 1015 OFFCURVE",
"640 1015 CURVE SMOOTH",
"712 1015 OFFCURVE",
"762 1098 OFFCURVE",
"786 1142 CURVE",
"761 1161 LINE",
"733 1120 OFFCURVE",
"716 1104 OFFCURVE",
"682 1104 CURVE SMOOTH",
"625 1104 OFFCURVE",
"584 1148 OFFCURVE",
"528 1148 CURVE SMOOTH",
"454 1148 OFFCURVE",
"405 1065 OFFCURVE",
"380 1021 CURVE",
"406 1002 LINE"
);
}
);
width = 794;
}
);
leftKerningGroup = A;
note = Acircumflextilde;
rightKerningGroup = A;
unicode = 1EAA;
},
{
glyphname = Adieresis;
lastChange = "2015-12-01 14:00:36 +0000";
layers = (
{
layerId = "E6BC66B7-46A3-4CBE-A067-18EBCB5231B7";
name = "Bold Italic";
paths = (
{
closed = 1;
nodes = (
"218 0 LINE",
"228 48 LINE",
"205 48 LINE SMOOTH",
"190 48 OFFCURVE",
"173 54 OFFCURVE",
"173 73 CURVE SMOOTH",
"173 80 OFFCURVE",
"175 88 OFFCURVE",
"182 99 CURVE SMOOTH",
"415 509 LINE",
"476 91 LINE SMOOTH",
"476 88 OFFCURVE",
"476 85 OFFCURVE",
"476 82 CURVE SMOOTH",
"476 59 OFFCURVE",
"462 48 OFFCURVE",
"436 48 CURVE SMOOTH",
"413 48 LINE",
"404 0 LINE",
"750 0 LINE",
"760 48 LINE",
"737 48 LINE SMOOTH",
"717 48 OFFCURVE",
"700 56 OFFCURVE",
"694 84 CURVE SMOOTH",
"571 728 LINE",
"411 676 LINE",
"63 87 LINE SMOOTH",
"46 59 OFFCURVE",
"15 48 OFFCURVE",
"-10 48 CURVE SMOOTH",
"-27 48 LINE",
"-36 0 LINE"
);
},
{
closed = 1;
nodes = (
"522 174 LINE",
"536 242 LINE",
"206 242 LINE",
"191 174 LINE"
);
},
{
closed = 1;
nodes = (
"428 775 OFFCURVE",
"468 818 OFFCURVE",
"468 868 CURVE SMOOTH",
"468 901 OFFCURVE",
"447 926 OFFCURVE",
"407 926 CURVE SMOOTH",
"356 926 OFFCURVE",
"319 882 OFFCURVE",
"319 832 CURVE SMOOTH",
"319 799 OFFCURVE",
"339 775 OFFCURVE",
"378 775 CURVE SMOOTH"
);
},
{
closed = 1;
nodes = (
"667 775 OFFCURVE",
"706 818 OFFCURVE",
"706 868 CURVE SMOOTH",
"706 901 OFFCURVE",
"685 926 OFFCURVE",
"646 926 CURVE SMOOTH",
"594 926 OFFCURVE",
"556 882 OFFCURVE",
"556 832 CURVE SMOOTH",
"556 799 OFFCURVE",
"576 775 OFFCURVE",
"616 775 CURVE SMOOTH"
);
}
);
width = 794;
}
);
leftKerningGroup = A;
note = Adieresis;
rightKerningGroup = A;
unicode = 00C4;
},
{
glyphname = Adotbelow;
lastChange = "2015-12-01 14:00:35 +0000";
layers = (
{
layerId = "E6BC66B7-46A3-4CBE-A067-18EBCB5231B7";
name = "Bold Italic";
paths = (
{
closed = 1;
nodes = (
"218 0 LINE",
"228 48 LINE",
"205 48 LINE SMOOTH",
"190 48 OFFCURVE",
"173 54 OFFCURVE",
"173 73 CURVE SMOOTH",
"173 80 OFFCURVE",
"175 88 OFFCURVE",
"182 99 CURVE SMOOTH",
"415 509 LINE",
"476 91 LINE SMOOTH",
"476 88 OFFCURVE",
"476 85 OFFCURVE",
"476 82 CURVE SMOOTH",
"476 59 OFFCURVE",
"462 48 OFFCURVE",
"436 48 CURVE SMOOTH",
"413 48 LINE",
"404 0 LINE",
"750 0 LINE",
"760 48 LINE",
"737 48 LINE SMOOTH",
"717 48 OFFCURVE",
"700 56 OFFCURVE",
"694 84 CURVE SMOOTH",
"571 728 LINE",
"411 676 LINE",
"63 87 LINE SMOOTH",
"46 59 OFFCURVE",
"15 48 OFFCURVE",
"-10 48 CURVE SMOOTH",
"-27 48 LINE",
"-36 0 LINE"
);
},
{
closed = 1;
nodes = (
"370 -216 OFFCURVE",
"409 -174 OFFCURVE",
"409 -124 CURVE SMOOTH",
"409 -90 OFFCURVE",
"388 -64 OFFCURVE",
"350 -64 CURVE SMOOTH",
"299 -64 OFFCURVE",
"260 -109 OFFCURVE",
"260 -159 CURVE SMOOTH",
"260 -192 OFFCURVE",
"281 -216 OFFCURVE",
"319 -216 CURVE SMOOTH"
);
},
{
closed = 1;
nodes = (
"522 174 LINE",
"536 242 LINE",
"206 242 LINE",
"191 174 LINE"
);
}
);
width = 794;
}
);
leftKerningGroup = A;
note = Adotbelow;
rightKerningGroup = A;
unicode = 1EA0;
},
{
glyphname = Agrave;
lastChange = "2015-12-01 14:00:37 +0000";
layers = (
{
layerId = "E6BC66B7-46A3-4CBE-A067-18EBCB5231B7";
name = "Bold Italic";
paths = (
{
closed = 1;
nodes = (
"218 0 LINE",
"228 48 LINE",
"205 48 LINE SMOOTH",
"190 48 OFFCURVE",
"173 54 OFFCURVE",
"173 73 CURVE SMOOTH",
"173 80 OFFCURVE",
"175 88 OFFCURVE",
"182 99 CURVE SMOOTH",
"415 509 LINE",
"476 91 LINE SMOOTH",
"476 88 OFFCURVE",
"476 85 OFFCURVE",
"476 82 CURVE SMOOTH",
"476 59 OFFCURVE",
"462 48 OFFCURVE",
"436 48 CURVE SMOOTH",
"413 48 LINE",
"404 0 LINE",
"750 0 LINE",
"760 48 LINE",
"737 48 LINE SMOOTH",
"717 48 OFFCURVE",
"700 56 OFFCURVE",
"694 84 CURVE SMOOTH",
"571 728 LINE",
"411 676 LINE",
"63 87 LINE SMOOTH",
"46 59 OFFCURVE",
"15 48 OFFCURVE",
"-10 48 CURVE SMOOTH",
"-27 48 LINE",
"-36 0 LINE"
);
},
{
closed = 1;
nodes = (
"522 174 LINE",
"536 242 LINE",
"206 242 LINE",
"191 174 LINE"
);
},
{
closed = 1;
nodes = (
"659 823 LINE",
"567 962 LINE",
"563 969 OFFCURVE",
"539 1005 OFFCURVE",
"500 1005 CURVE SMOOTH",
"454 1005 OFFCURVE",
"432 974 OFFCURVE",
"427 950 CURVE",
"426 946 OFFCURVE",
"426 942 OFFCURVE",
"426 938 CURVE SMOOTH",
"426 914 OFFCURVE",
"442 894 OFFCURVE",
"470 874 CURVE SMOOTH",
"616 773 LINE"
);
}
);
width = 794;
}
);
leftKerningGroup = A;
note = Agrave;
rightKerningGroup = A;
unicode = 00C0;
},
{
glyphname = Ahookabove;
lastChange = "2015-12-01 14:00:37 +0000";
layers = (
{
layerId = "E6BC66B7-46A3-4CBE-A067-18EBCB5231B7";
name = "Bold Italic";
paths = (
{
closed = 1;
nodes = (
"218 0 LINE",
"228 48 LINE",
"205 48 LINE SMOOTH",
"190 48 OFFCURVE",
"173 54 OFFCURVE",
"173 73 CURVE SMOOTH",
"173 80 OFFCURVE",
"175 88 OFFCURVE",
"182 99 CURVE SMOOTH",
"415 509 LINE",
"476 91 LINE SMOOTH",
"476 88 OFFCURVE",
"476 85 OFFCURVE",
"476 82 CURVE SMOOTH",
"476 59 OFFCURVE",
"462 48 OFFCURVE",
"436 48 CURVE SMOOTH",
"413 48 LINE",
"404 0 LINE",
"750 0 LINE",
"760 48 LINE",
"737 48 LINE SMOOTH",
"717 48 OFFCURVE",
"700 56 OFFCURVE",
"694 84 CURVE SMOOTH",
"571 728 LINE",
"411 676 LINE",
"63 87 LINE SMOOTH",
"46 59 OFFCURVE",
"15 48 OFFCURVE",
"-10 48 CURVE SMOOTH",
"-27 48 LINE",
"-36 0 LINE"
);
},
{
closed = 1;
nodes = (
"522 174 LINE",
"536 242 LINE",
"206 242 LINE",
"191 174 LINE"
);
},
{
closed = 1;
nodes = (
"577 802 LINE",
"568 802 OFFCURVE",
"554 804 OFFCURVE",
"554 820 CURVE SMOOTH",
"554 822 OFFCURVE",
"554 825 OFFCURVE",
"555 828 CURVE SMOOTH",
"565 878 OFFCURVE",
"683 884 OFFCURVE",
"698 956 CURVE SMOOTH",
"699 961 OFFCURVE",
"699 965 OFFCURVE",
"699 970 CURVE SMOOTH",
"699 1014 OFFCURVE",
"651 1035 OFFCURVE",
"595 1035 CURVE SMOOTH",
"500 1035 OFFCURVE",
"467 991 OFFCURVE",
"462 968 CURVE SMOOTH",
"461 965 OFFCURVE",
"461 962 OFFCURVE",
"461 959 CURVE SMOOTH",
"461 938 OFFCURVE",
"476 929 OFFCURVE",
"492 929 CURVE SMOOTH",
"511 929 OFFCURVE",
"532 941 OFFCURVE",
"536 961 CURVE SMOOTH",
"542 992 OFFCURVE",
"569 999 OFFCURVE",
"585 999 CURVE SMOOTH",
"607 999 OFFCURVE",
"613 981 OFFCURVE",
"610 965 CURVE SMOOTH",
"596 898 OFFCURVE",
"500 885 OFFCURVE",
"488 830 CURVE SMOOTH",
"487 827 OFFCURVE",
"487 824 OFFCURVE",
"487 821 CURVE SMOOTH",
"487 791 OFFCURVE",
"524 775 OFFCURVE",
"564 775 CURVE"
);
}
);
width = 794;
}
);
leftKerningGroup = A;
note = Ahookabove;
rightKerningGroup = A;
unicode = 1EA2;
},
{
glyphname = Amacron;
lastChange = "2015-12-01 14:00:37 +0000";
layers = (
{
layerId = "E6BC66B7-46A3-4CBE-A067-18EBCB5231B7";
name = "Bold Italic";
paths = (
{
closed = 1;
nodes = (
"218 0 LINE",
"228 48 LINE",
"205 48 LINE SMOOTH",
"190 48 OFFCURVE",
"173 54 OFFCURVE",
"173 73 CURVE SMOOTH",
"173 80 OFFCURVE",
"175 88 OFFCURVE",
"182 99 CURVE SMOOTH",
"415 509 LINE",
"476 91 LINE SMOOTH",
"476 88 OFFCURVE",
"476 85 OFFCURVE",
"476 82 CURVE SMOOTH",
"476 59 OFFCURVE",
"462 48 OFFCURVE",
"436 48 CURVE SMOOTH",
"413 48 LINE",
"404 0 LINE",
"750 0 LINE",
"760 48 LINE",
"737 48 LINE SMOOTH",
"717 48 OFFCURVE",
"700 56 OFFCURVE",
"694 84 CURVE SMOOTH",
"571 728 LINE",
"411 676 LINE",
"63 87 LINE SMOOTH",
"46 59 OFFCURVE",
"15 48 OFFCURVE",
"-10 48 CURVE SMOOTH",
"-27 48 LINE",
"-36 0 LINE"
);
},
{
closed = 1;
nodes = (
"522 174 LINE",
"536 242 LINE",
"206 242 LINE",
"191 174 LINE"
);
},
{
closed = 1;
nodes = (
"727 775 LINE",
"742 850 LINE",
"331 850 LINE",
"315 775 LINE"
);
}
);
width = 794;
}
);
leftKerningGroup = A;
note = Amacron;
rightKerningGroup = A;
unicode = 0100;
},
{
glyphname = Aogonek;
lastChange = "2015-12-01 14:00:37 +0000";
layers = (
{
layerId = "E6BC66B7-46A3-4CBE-A067-18EBCB5231B7";
name = "Bold Italic";
paths = (
{
closed = 1;
nodes = (
"218 0 LINE",
"228 48 LINE",
"205 48 LINE SMOOTH",
"190 48 OFFCURVE",
"173 54 OFFCURVE",
"173 73 CURVE SMOOTH",
"173 80 OFFCURVE",
"175 88 OFFCURVE",
"182 99 CURVE SMOOTH",
"415 509 LINE",
"476 91 LINE SMOOTH",
"476 88 OFFCURVE",
"476 85 OFFCURVE",
"476 82 CURVE SMOOTH",
"476 59 OFFCURVE",
"462 48 OFFCURVE",
"436 48 CURVE SMOOTH",
"413 48 LINE",
"404 0 LINE",
"750 0 LINE",
"760 48 LINE",
"737 48 LINE SMOOTH",
"717 48 OFFCURVE",
"700 56 OFFCURVE",
"694 84 CURVE SMOOTH",
"571 728 LINE",
"411 676 LINE",
"63 87 LINE SMOOTH",
"46 59 OFFCURVE",
"15 48 OFFCURVE",
"-10 48 CURVE SMOOTH",
"-27 48 LINE",
"-36 0 LINE"
);
},
{
closed = 1;
nodes = (
"666 -243 OFFCURVE",
"710 -229 OFFCURVE",
"754 -197 CURVE",
"744 -169 LINE",
"730 -177 OFFCURVE",
"708 -183 OFFCURVE",
"692 -183 CURVE SMOOTH",
"666 -183 OFFCURVE",
"646 -168 OFFCURVE",
"646 -137 CURVE SMOOTH",
"646 -132 OFFCURVE",
"647 -126 OFFCURVE",
"648 -120 CURVE SMOOTH",
"657 -79 OFFCURVE",
"687 -33 OFFCURVE",
"749 13 CURVE",
"686 13 LINE",
"605 -27 OFFCURVE",
"531 -93 OFFCURVE",
"531 -162 CURVE SMOOTH",
"531 -199 OFFCURVE",
"550 -243 OFFCURVE",
"635 -243 CURVE SMOOTH"
);
},
{
closed = 1;
nodes = (
"522 174 LINE",
"536 242 LINE",
"206 242 LINE",
"191 174 LINE"
);
}
);
width = 794;
}
);
leftKerningGroup = A;
note = Aogonek;
rightKerningGroup = A;
unicode = 0104;
},
{
glyphname = Aring;
lastChange = "2015-12-01 14:00:35 +0000";
layers = (
{
layerId = "E6BC66B7-46A3-4CBE-A067-18EBCB5231B7";
name = "Bold Italic";
paths = (
{
closed = 1;
nodes = (
"218 0 LINE",
"228 48 LINE",
"205 48 LINE SMOOTH",
"190 48 OFFCURVE",
"173 54 OFFCURVE",
"173 73 CURVE SMOOTH",
"173 80 OFFCURVE",
"175 88 OFFCURVE",
"182 99 CURVE SMOOTH",
"415 509 LINE",
"476 91 LINE SMOOTH",
"476 88 OFFCURVE",
"476 85 OFFCURVE",
"476 82 CURVE SMOOTH",
"476 59 OFFCURVE",
"462 48 OFFCURVE",
"436 48 CURVE SMOOTH",
"413 48 LINE",
"404 0 LINE",
"750 0 LINE",
"760 48 LINE",
"737 48 LINE SMOOTH",
"717 48 OFFCURVE",
"700 56 OFFCURVE",
"694 84 CURVE SMOOTH",
"571 728 LINE",
"411 676 LINE",
"63 87 LINE SMOOTH",
"46 59 OFFCURVE",
"15 48 OFFCURVE",
"-10 48 CURVE SMOOTH",
"-27 48 LINE",
"-36 0 LINE"
);
},
{
closed = 1;
nodes = (
"522 174 LINE",
"536 242 LINE",
"206 242 LINE",
"191 174 LINE"
);
},
{
closed = 1;
nodes = (
"579 739 OFFCURVE",
"635 785 OFFCURVE",
"648 852 CURVE SMOOTH",
"650 862 OFFCURVE",
"651 871 OFFCURVE",
"651 880 CURVE SMOOTH",
"651 932 OFFCURVE",
"616 966 OFFCURVE",
"555 966 CURVE SMOOTH",
"484 966 OFFCURVE",
"428 920 OFFCURVE",
"414 852 CURVE SMOOTH",
"412 843 OFFCURVE",
"411 834 OFFCURVE",
"411 826 CURVE SMOOTH",
"411 773 OFFCURVE",
"447 739 OFFCURVE",
"508 739 CURVE SMOOTH"
);
},
{
closed = 1;
nodes = (
"497 801 OFFCURVE",
"479 817 OFFCURVE",
"479 841 CURVE SMOOTH",
"479 845 OFFCURVE",
"479 848 OFFCURVE",
"480 852 CURVE SMOOTH",
"487 883 OFFCURVE",
"514 903 OFFCURVE",
"542 903 CURVE SMOOTH",
"566 903 OFFCURVE",
"583 888 OFFCURVE",
"583 864 CURVE SMOOTH",
"583 828 OFFCURVE",
"552 801 OFFCURVE",
"521 801 CURVE SMOOTH"
);
}
);
width = 794;
}
);
leftKerningGroup = A;
note = Aring;
rightKerningGroup = A;
unicode = 00C5;
},
{
glyphname = Aringacute;
lastChange = "2015-12-01 14:00:37 +0000";
layers = (
{
layerId = "E6BC66B7-46A3-4CBE-A067-18EBCB5231B7";
name = "Bold Italic";
paths = (
{
closed = 1;
nodes = (
"218 0 LINE",
"228 48 LINE",
"205 48 LINE SMOOTH",
"190 48 OFFCURVE",
"173 54 OFFCURVE",
"173 73 CURVE SMOOTH",
"173 80 OFFCURVE",
"175 88 OFFCURVE",
"182 99 CURVE SMOOTH",
"415 509 LINE",
"476 91 LINE SMOOTH",
"476 88 OFFCURVE",
"476 85 OFFCURVE",
"476 82 CURVE SMOOTH",
"476 59 OFFCURVE",
"462 48 OFFCURVE",
"436 48 CURVE SMOOTH",
"413 48 LINE",
"404 0 LINE",
"750 0 LINE",
"760 48 LINE",
"737 48 LINE SMOOTH",
"717 48 OFFCURVE",
"700 56 OFFCURVE",
"694 84 CURVE SMOOTH",
"571 728 LINE",
"411 676 LINE",
"63 87 LINE SMOOTH",
"46 59 OFFCURVE",
"15 48 OFFCURVE",
"-10 48 CURVE SMOOTH",
"-27 48 LINE",
"-36 0 LINE"
);
},
{
closed = 1;
nodes = (
"522 174 LINE",
"536 242 LINE",
"206 242 LINE",
"191 174 LINE"
);
},
{
closed = 1;
nodes = (
"579 739 OFFCURVE",
"635 785 OFFCURVE",
"648 852 CURVE SMOOTH",
"650 862 OFFCURVE",
"651 871 OFFCURVE",
"651 880 CURVE SMOOTH",
"651 932 OFFCURVE",
"616 966 OFFCURVE",
"555 966 CURVE SMOOTH",
"484 966 OFFCURVE",
"428 920 OFFCURVE",
"414 852 CURVE SMOOTH",
"412 843 OFFCURVE",
"411 834 OFFCURVE",
"411 826 CURVE SMOOTH",
"411 773 OFFCURVE",
"447 739 OFFCURVE",
"508 739 CURVE SMOOTH"
);
},
{
closed = 1;
nodes = (
"497 801 OFFCURVE",
"479 817 OFFCURVE",
"479 841 CURVE SMOOTH",
"479 845 OFFCURVE",
"479 848 OFFCURVE",
"480 852 CURVE SMOOTH",
"487 883 OFFCURVE",
"514 903 OFFCURVE",
"542 903 CURVE SMOOTH",
"566 903 OFFCURVE",
"583 888 OFFCURVE",
"583 864 CURVE SMOOTH",
"583 828 OFFCURVE",
"552 801 OFFCURVE",
"521 801 CURVE SMOOTH"
);
},
{
closed = 1;
nodes = (
"651 1081 LINE SMOOTH",
"692 1104 OFFCURVE",
"719 1127 OFFCURVE",
"725 1157 CURVE",
"726 1161 OFFCURVE",
"726 1165 OFFCURVE",
"726 1169 CURVE SMOOTH",
"726 1190 OFFCURVE",
"713 1212 OFFCURVE",
"675 1212 CURVE SMOOTH",
"636 1212 OFFCURVE",
"599 1176 OFFCURVE",
"592 1169 CURVE SMOOTH",
"441 1030 LINE",
"466 980 LINE"
);
}
);
width = 794;
}
);
leftKerningGroup = A;
note = Aringacute;
rightKerningGroup = A;
unicode = 01FA;
},
{
glyphname = Atilde;
lastChange = "2015-12-01 14:00:35 +0000";
layers = (
{
layerId = "E6BC66B7-46A3-4CBE-A067-18EBCB5231B7";
name = "Bold Italic";
paths = (
{
closed = 1;
nodes = (
"218 0 LINE",
"228 48 LINE",
"205 48 LINE SMOOTH",
"190 48 OFFCURVE",
"173 54 OFFCURVE",
"173 73 CURVE SMOOTH",
"173 80 OFFCURVE",
"175 88 OFFCURVE",
"182 99 CURVE SMOOTH",
"415 509 LINE",
"476 91 LINE SMOOTH",
"476 88 OFFCURVE",
"476 85 OFFCURVE",
"476 82 CURVE SMOOTH",
"476 59 OFFCURVE",
"462 48 OFFCURVE",
"436 48 CURVE SMOOTH",
"413 48 LINE",
"404 0 LINE",
"750 0 LINE",
"760 48 LINE",
"737 48 LINE SMOOTH",
"717 48 OFFCURVE",
"700 56 OFFCURVE",
"694 84 CURVE SMOOTH",
"571 728 LINE",
"411 676 LINE",
"63 87 LINE SMOOTH",
"46 59 OFFCURVE",
"15 48 OFFCURVE",
"-10 48 CURVE SMOOTH",
"-27 48 LINE",
"-36 0 LINE"
);
},
{
closed = 1;
nodes = (
"522 174 LINE",
"536 242 LINE",
"206 242 LINE",
"191 174 LINE"
);
},
{
closed = 1;
nodes = (
"379 810 OFFCURVE",
"397 827 OFFCURVE",
"434 827 CURVE SMOOTH",
"499 827 OFFCURVE",
"547 783 OFFCURVE",
"608 783 CURVE SMOOTH",
"690 783 OFFCURVE",
"741 866 OFFCURVE",
"767 910 CURVE",
"740 929 LINE",
"709 888 OFFCURVE",
"692 872 OFFCURVE",
"654 872 CURVE SMOOTH",
"590 872 OFFCURVE",
"543 916 OFFCURVE",
"480 916 CURVE SMOOTH",
"399 916 OFFCURVE",
"347 833 OFFCURVE",
"319 789 CURVE",
"348 770 LINE"
);
}
);
width = 794;
}
);
leftKerningGroup = A;
note = Atilde;
rightKerningGroup = A;
unicode = 00C3;
},
{
glyphname = AE;
lastChange = "2015-12-01 14:00:36 +0000";
layers = (
{
layerId = "E6BC66B7-46A3-4CBE-A067-18EBCB5231B7";
name = "Bold Italic";
paths = (
{
closed = 1;
nodes = (
"231 0 LINE",
"240 48 LINE",
"217 48 LINE SMOOTH",
"204 48 OFFCURVE",
"184 55 OFFCURVE",
"184 73 CURVE SMOOTH",
"184 80 OFFCURVE",
"187 89 OFFCURVE",
"194 99 CURVE SMOOTH",
"247 174 LINE",
"447 174 LINE",
"429 88 LINE SMOOTH",
"425 62 OFFCURVE",
"406 48 OFFCURVE",
"370 48 CURVE SMOOTH",
"339 48 LINE",
"330 0 LINE",
"933 0 LINE",
"996 203 LINE",
"949 203 LINE",
"922 128 OFFCURVE",
"889 68 OFFCURVE",
"818 68 CURVE SMOOTH",
"625 68 LINE",
"678 327 LINE",
"793 327 LINE SMOOTH",
"824 327 OFFCURVE",
"831 304 OFFCURVE",
"831 276 CURVE SMOOTH",
"831 264 OFFCURVE",
"830 252 OFFCURVE",
"829 240 CURVE",
"866 240 LINE",
"915 482 LINE",
"878 482 LINE",
"865 440 OFFCURVE",
"850 395 OFFCURVE",
"807 395 CURVE SMOOTH",
"692 395 LINE",
"740 632 LINE",
"905 632 LINE SMOOTH",
"978 632 OFFCURVE",
"990 573 OFFCURVE",
"990 529 CURVE SMOOTH",
"990 516 OFFCURVE",
"989 504 OFFCURVE",
"988 496 CURVE",
"1035 496 LINE",
"1076 700 LINE",
"455 700 LINE",
"446 652 LINE",
"477 652 LINE SMOOTH",
"486 652 OFFCURVE",
"490 647 OFFCURVE",
"490 640 CURVE SMOOTH",
"490 634 OFFCURVE",
"487 627 OFFCURVE",
"482 621 CURVE SMOOTH",
"75 87 LINE SMOOTH",
"55 61 OFFCURVE",
"27 48 OFFCURVE",
"2 48 CURVE SMOOTH",
"-14 48 LINE",
"-24 0 LINE"
);
},
{
closed = 1;
nodes = (
"522 540 LINE",
"461 242 LINE",
"299 242 LINE"
);
}
);
width = 1023;
}
);
leftKerningGroup = A;
note = AE;
rightKerningGroup = E;
unicode = 00C6;
},
{
glyphname = AEacute;
lastChange = "2015-12-01 14:00:35 +0000";
layers = (
{
layerId = "E6BC66B7-46A3-4CBE-A067-18EBCB5231B7";
name = "Bold Italic";
paths = (
{
closed = 1;
nodes = (
"231 0 LINE",
"240 48 LINE",
"217 48 LINE SMOOTH",
"204 48 OFFCURVE",
"184 55 OFFCURVE",
"184 73 CURVE SMOOTH",
"184 80 OFFCURVE",
"187 89 OFFCURVE",
"194 99 CURVE SMOOTH",
"247 174 LINE",
"447 174 LINE",
"429 88 LINE SMOOTH",
"425 62 OFFCURVE",
"406 48 OFFCURVE",
"370 48 CURVE SMOOTH",
"339 48 LINE",
"330 0 LINE",
"933 0 LINE",
"996 203 LINE",
"949 203 LINE",
"922 128 OFFCURVE",
"889 68 OFFCURVE",
"818 68 CURVE SMOOTH",
"625 68 LINE",
"678 327 LINE",
"793 327 LINE SMOOTH",
"824 327 OFFCURVE",
"831 304 OFFCURVE",
"831 276 CURVE SMOOTH",
"831 264 OFFCURVE",
"830 252 OFFCURVE",
"829 240 CURVE",
"866 240 LINE",
"915 482 LINE",
"878 482 LINE",
"865 440 OFFCURVE",
"850 395 OFFCURVE",
"807 395 CURVE SMOOTH",
"692 395 LINE",
"740 632 LINE",
"905 632 LINE SMOOTH",
"978 632 OFFCURVE",
"990 573 OFFCURVE",
"990 529 CURVE SMOOTH",
"990 516 OFFCURVE",
"989 504 OFFCURVE",
"988 496 CURVE",
"1035 496 LINE",
"1076 700 LINE",
"455 700 LINE",
"446 652 LINE",
"477 652 LINE SMOOTH",
"486 652 OFFCURVE",
"490 647 OFFCURVE",
"490 640 CURVE SMOOTH",
"490 634 OFFCURVE",
"487 627 OFFCURVE",
"482 621 CURVE SMOOTH",
"75 87 LINE SMOOTH",
"55 61 OFFCURVE",
"27 48 OFFCURVE",
"2 48 CURVE SMOOTH",
"-14 48 LINE",
"-24 0 LINE"
);
},
{
closed = 1;
nodes = (
"522 540 LINE",
"461 242 LINE",
"299 242 LINE"
);
},
{
closed = 1;
nodes = (
"892 874 LINE SMOOTH",
"933 897 OFFCURVE",
"960 920 OFFCURVE",
"966 950 CURVE",
"967 954 OFFCURVE",
"967 958 OFFCURVE",
"967 962 CURVE SMOOTH",
"967 983 OFFCURVE",
"954 1005 OFFCURVE",
"916 1005 CURVE SMOOTH",
"877 1005 OFFCURVE",
"840 969 OFFCURVE",
"833 962 CURVE SMOOTH",
"682 823 LINE",
"707 773 LINE"
);
}
);
width = 1023;
}
);
leftKerningGroup = A;
note = AEacute;
rightKerningGroup = E;
unicode = 01FC;
},
{
glyphname = B;
lastChange = "2015-12-01 14:00:35 +0000";
layers = (
{
layerId = "E6BC66B7-46A3-4CBE-A067-18EBCB5231B7";
name = "Bold Italic";
paths = (
{
closed = 1;
nodes = (
"371 0 LINE SMOOTH",
"554 0 OFFCURVE",
"632 79 OFFCURVE",
"656 195 CURVE SMOOTH",
"658 206 OFFCURVE",
"660 217 OFFCURVE",
"660 229 CURVE SMOOTH",
"660 287 OFFCURVE",
"627 350 OFFCURVE",
"522 370 CURVE",
"615 391 OFFCURVE",
"672 461 OFFCURVE",
"688 535 CURVE SMOOTH",
"691 550 OFFCURVE",
"692 565 OFFCURVE",
"692 578 CURVE SMOOTH",
"692 657 OFFCURVE",
"633 700 OFFCURVE",
"476 700 CURVE SMOOTH",
"113 700 LINE",
"103 652 LINE",
"134 652 LINE SMOOTH",
"165 652 OFFCURVE",
"179 642 OFFCURVE",
"179 622 CURVE SMOOTH",
"179 619 OFFCURVE",
"179 616 OFFCURVE",
"178 612 CURVE SMOOTH",
"70 88 LINE SMOOTH",
"66 62 OFFCURVE",
"47 48 OFFCURVE",
"11 48 CURVE SMOOTH",
"-20 48 LINE",
"-29 0 LINE"
);
},
{
closed = 1;
nodes = (
"320 334 LINE",
"373 334 LINE SMOOTH",
"429 334 OFFCURVE",
"463 306 OFFCURVE",
"463 248 CURVE SMOOTH",
"463 235 OFFCURVE",
"461 221 OFFCURVE",
"458 206 CURVE SMOOTH",
"441 118 OFFCURVE",
"395 68 OFFCURVE",
"331 68 CURVE SMOOTH",
"266 68 LINE"
);
},
{
closed = 1;
nodes = (
"381 632 LINE",
"419 632 LINE SMOOTH",
"465 632 OFFCURVE",
"490 610 OFFCURVE",
"490 563 CURVE SMOOTH",
"490 551 OFFCURVE",
"488 538 OFFCURVE",
"485 524 CURVE SMOOTH",
"470 450 OFFCURVE",
"435 401 OFFCURVE",
"378 401 CURVE SMOOTH",
"334 401 LINE"
);
}
);
width = 676;
}
);
note = B;
unicode = 0042;
},
{
glyphname = C;
lastChange = "2015-12-01 14:00:31 +0000";
layers = (
{
layerId = "E6BC66B7-46A3-4CBE-A067-18EBCB5231B7";
name = "Bold Italic";
paths = (
{
closed = 1;
nodes = (
"515 -10 OFFCURVE",
"632 77 OFFCURVE",
"674 176 CURVE",
"610 176 LINE",
"547 84 OFFCURVE",
"460 61 OFFCURVE",
"383 61 CURVE SMOOTH",
"296 61 OFFCURVE",
"250 122 OFFCURVE",
"250 233 CURVE SMOOTH",
"250 267 OFFCURVE",
"255 306 OFFCURVE",
"263 350 CURVE SMOOTH",
"301 534 OFFCURVE",
"402 639 OFFCURVE",
"519 639 CURVE SMOOTH",
"595 639 OFFCURVE",
"679 604 OFFCURVE",
"670 486 CURVE",
"725 486 LINE",
"769 705 LINE",
"707 705 LINE",
"698 659 LINE",
"696 653 OFFCURVE",
"692 651 OFFCURVE",
"689 651 CURVE SMOOTH",
"685 651 OFFCURVE",
"681 653 OFFCURVE",
"681 654 CURVE",
"644 682 OFFCURVE",
"584 710 OFFCURVE",
"486 710 CURVE SMOOTH",
"248 710 OFFCURVE",
"104 562 OFFCURVE",
"61 350 CURVE SMOOTH",
"53 315 OFFCURVE",
"50 281 OFFCURVE",
"50 250 CURVE SMOOTH",
"50 93 OFFCURVE",
"141 -10 OFFCURVE",
"345 -10 CURVE SMOOTH"
);
}
);
width = 710;
}
);
leftKerningGroup = C;
note = C;
rightKerningGroup = C;
unicode = 0043;
},
{
glyphname = Cacute;
lastChange = "2015-12-01 14:00:37 +0000";
layers = (
{
layerId = "E6BC66B7-46A3-4CBE-A067-18EBCB5231B7";
name = "Bold Italic";
paths = (
{
closed = 1;
nodes = (
"515 -10 OFFCURVE",
"632 77 OFFCURVE",
"674 176 CURVE",
"610 176 LINE",
"547 84 OFFCURVE",
"460 61 OFFCURVE",
"383 61 CURVE SMOOTH",
"296 61 OFFCURVE",
"250 122 OFFCURVE",
"250 233 CURVE SMOOTH",
"250 267 OFFCURVE",
"255 306 OFFCURVE",
"263 350 CURVE SMOOTH",
"301 534 OFFCURVE",
"402 639 OFFCURVE",
"519 639 CURVE SMOOTH",
"595 639 OFFCURVE",
"679 604 OFFCURVE",
"670 486 CURVE",
"725 486 LINE",
"769 705 LINE",
"707 705 LINE",
"698 659 LINE",
"696 653 OFFCURVE",
"692 651 OFFCURVE",
"689 651 CURVE SMOOTH",
"685 651 OFFCURVE",
"681 653 OFFCURVE",
"681 654 CURVE",
"644 682 OFFCURVE",
"584 710 OFFCURVE",
"486 710 CURVE SMOOTH",
"248 710 OFFCURVE",
"104 562 OFFCURVE",
"61 350 CURVE SMOOTH",
"53 315 OFFCURVE",
"50 281 OFFCURVE",
"50 250 CURVE SMOOTH",
"50 93 OFFCURVE",
"141 -10 OFFCURVE",
"345 -10 CURVE SMOOTH"
);
},
{
closed = 1;
nodes = (
"651 874 LINE SMOOTH",
"692 897 OFFCURVE",
"719 920 OFFCURVE",
"725 950 CURVE",
"726 954 OFFCURVE",
"726 958 OFFCURVE",
"726 962 CURVE SMOOTH",
"726 983 OFFCURVE",
"713 1005 OFFCURVE",
"675 1005 CURVE SMOOTH",
"636 1005 OFFCURVE",
"599 969 OFFCURVE",
"592 962 CURVE SMOOTH",
"441 823 LINE",
"466 773 LINE"
);
}
);
width = 710;
}
);
leftKerningGroup = C;
note = Cacute;
rightKerningGroup = C;
unicode = 0106;
},
{
glyphname = Ccaron;
lastChange = "2015-12-01 14:00:37 +0000";
layers = (
{
layerId = "E6BC66B7-46A3-4CBE-A067-18EBCB5231B7";
name = "Bold Italic";
paths = (
{
closed = 1;
nodes = (
"515 -10 OFFCURVE",
"632 77 OFFCURVE",
"674 176 CURVE",
"610 176 LINE",
"547 84 OFFCURVE",
"460 61 OFFCURVE",
"383 61 CURVE SMOOTH",
"296 61 OFFCURVE",
"250 122 OFFCURVE",
"250 233 CURVE SMOOTH",
"250 267 OFFCURVE",
"255 306 OFFCURVE",
"263 350 CURVE SMOOTH",
"301 534 OFFCURVE",
"402 639 OFFCURVE",
"519 639 CURVE SMOOTH",
"595 639 OFFCURVE",
"679 604 OFFCURVE",
"670 486 CURVE",
"725 486 LINE",
"769 705 LINE",
"707 705 LINE",
"698 659 LINE",
"696 653 OFFCURVE",
"692 651 OFFCURVE",
"689 651 CURVE SMOOTH",
"685 651 OFFCURVE",
"681 653 OFFCURVE",
"681 654 CURVE",
"644 682 OFFCURVE",
"584 710 OFFCURVE",
"486 710 CURVE SMOOTH",
"248 710 OFFCURVE",
"104 562 OFFCURVE",
"61 350 CURVE SMOOTH",
"53 315 OFFCURVE",
"50 281 OFFCURVE",
"50 250 CURVE SMOOTH",
"50 93 OFFCURVE",
"141 -10 OFFCURVE",
"345 -10 CURVE SMOOTH"
);
},
{
closed = 1;
nodes = (
"575 775 LINE",
"770 960 LINE",
"750 990 LINE",
"593 887 LINE SMOOTH",
"574 875 OFFCURVE",
"558 866 OFFCURVE",
"547 866 CURVE SMOOTH",
"536 866 OFFCURVE",
"523 875 OFFCURVE",
"508 887 CURVE",
"394 990 LINE",
"362 960 LINE",
"479 775 LINE"
);
}
);
width = 710;
}
);
leftKerningGroup = C;
note = Ccaron;
rightKerningGroup = C;
unicode = 010C;
},
{
glyphname = Ccedilla;
lastChange = "2015-12-01 14:00:36 +0000";
layers = (
{
layerId = "E6BC66B7-46A3-4CBE-A067-18EBCB5231B7";
name = "Bold Italic";
paths = (
{
closed = 1;
nodes = (
"515 -10 OFFCURVE",
"632 77 OFFCURVE",
"674 176 CURVE",
"610 176 LINE",
"547 84 OFFCURVE",
"460 61 OFFCURVE",
"383 61 CURVE SMOOTH",
"296 61 OFFCURVE",
"250 122 OFFCURVE",
"250 233 CURVE SMOOTH",
"250 267 OFFCURVE",
"255 306 OFFCURVE",
"263 350 CURVE SMOOTH",
"301 534 OFFCURVE",
"402 639 OFFCURVE",
"519 639 CURVE SMOOTH",
"595 639 OFFCURVE",
"679 604 OFFCURVE",
"670 486 CURVE",
"725 486 LINE",
"769 705 LINE",
"707 705 LINE",
"698 659 LINE",
"696 653 OFFCURVE",
"692 651 OFFCURVE",
"689 651 CURVE SMOOTH",
"685 651 OFFCURVE",
"681 653 OFFCURVE",
"681 654 CURVE",
"644 682 OFFCURVE",
"584 710 OFFCURVE",
"486 710 CURVE SMOOTH",
"248 710 OFFCURVE",
"104 562 OFFCURVE",
"61 350 CURVE SMOOTH",
"53 315 OFFCURVE",
"50 281 OFFCURVE",
"50 250 CURVE SMOOTH",
"50 93 OFFCURVE",
"141 -10 OFFCURVE",
"345 -10 CURVE SMOOTH"
);
},
{
closed = 1;
nodes = (
"258 -266 OFFCURVE",
"385 -256 OFFCURVE",
"408 -142 CURVE SMOOTH",
"409 -135 OFFCURVE",
"410 -129 OFFCURVE",
"410 -123 CURVE SMOOTH",
"410 -62 OFFCURVE",
"344 -43 OFFCURVE",
"314 -38 CURVE",
"372 30 LINE",
"306 30 LINE",
"214 -80 LINE",
"219 -92 LINE",
"240 -94 OFFCURVE",
"290 -105 OFFCURVE",
"290 -144 CURVE SMOOTH",
"290 -146 OFFCURVE",
"290 -149 OFFCURVE",
"289 -152 CURVE",
"278 -207 OFFCURVE",
"219 -221 OFFCURVE",
"152 -221 CURVE",
"143 -262 LINE",
"164 -265 OFFCURVE",
"177 -266 OFFCURVE",
"201 -266 CURVE SMOOTH"
);
}
);
width = 710;
}
);
leftKerningGroup = C;
note = Ccedilla;
rightKerningGroup = C;
unicode = 00C7;
},
{
glyphname = Ccircumflex;
lastChange = "2015-12-01 14:00:36 +0000";
layers = (
{
layerId = "E6BC66B7-46A3-4CBE-A067-18EBCB5231B7";
name = "Bold Italic";
paths = (
{
closed = 1;
nodes = (
"515 -10 OFFCURVE",
"632 77 OFFCURVE",
"674 176 CURVE",
"610 176 LINE",
"547 84 OFFCURVE",
"460 61 OFFCURVE",
"383 61 CURVE SMOOTH",
"296 61 OFFCURVE",
"250 122 OFFCURVE",
"250 233 CURVE SMOOTH",
"250 267 OFFCURVE",
"255 306 OFFCURVE",
"263 350 CURVE SMOOTH",
"301 534 OFFCURVE",
"402 639 OFFCURVE",
"519 639 CURVE SMOOTH",
"595 639 OFFCURVE",
"679 604 OFFCURVE",
"670 486 CURVE",
"725 486 LINE",
"769 705 LINE",
"707 705 LINE",
"698 659 LINE",
"696 653 OFFCURVE",
"692 651 OFFCURVE",
"689 651 CURVE SMOOTH",
"685 651 OFFCURVE",
"681 653 OFFCURVE",
"681 654 CURVE",
"644 682 OFFCURVE",
"584 710 OFFCURVE",
"486 710 CURVE SMOOTH",
"248 710 OFFCURVE",
"104 562 OFFCURVE",
"61 350 CURVE SMOOTH",
"53 315 OFFCURVE",
"50 281 OFFCURVE",
"50 250 CURVE SMOOTH",
"50 93 OFFCURVE",
"141 -10 OFFCURVE",
"345 -10 CURVE SMOOTH"
);
},
{
closed = 1;
nodes = (
"494 878 LINE SMOOTH",
"513 890 OFFCURVE",
"530 899 OFFCURVE",
"541 899 CURVE SMOOTH",
"552 899 OFFCURVE",
"565 890 OFFCURVE",
"578 878 CURVE SMOOTH",
"693 775 LINE",
"726 805 LINE",
"607 990 LINE",
"511 990 LINE",
"318 805 LINE",
"337 775 LINE"
);
}
);
width = 710;
}
);
leftKerningGroup = C;
note = Ccircumflex;
rightKerningGroup = C;
unicode = 0108;
},
{
glyphname = Cdotaccent;
lastChange = "2015-12-01 14:00:35 +0000";
layers = (
{
layerId = "E6BC66B7-46A3-4CBE-A067-18EBCB5231B7";
name = "Bold Italic";
paths = (
{
closed = 1;
nodes = (
"515 -10 OFFCURVE",
"632 77 OFFCURVE",
"674 176 CURVE",
"610 176 LINE",
"547 84 OFFCURVE",
"460 61 OFFCURVE",
"383 61 CURVE SMOOTH",
"296 61 OFFCURVE",
"250 122 OFFCURVE",
"250 233 CURVE SMOOTH",
"250 267 OFFCURVE",
"255 306 OFFCURVE",
"263 350 CURVE SMOOTH",
"301 534 OFFCURVE",
"402 639 OFFCURVE",
"519 639 CURVE SMOOTH",
"595 639 OFFCURVE",
"679 604 OFFCURVE",
"670 486 CURVE",
"725 486 LINE",
"769 705 LINE",
"707 705 LINE",
"698 659 LINE",
"696 653 OFFCURVE",
"692 651 OFFCURVE",
"689 651 CURVE SMOOTH",
"685 651 OFFCURVE",
"681 653 OFFCURVE",
"681 654 CURVE",
"644 682 OFFCURVE",
"584 710 OFFCURVE",
"486 710 CURVE SMOOTH",
"248 710 OFFCURVE",
"104 562 OFFCURVE",
"61 350 CURVE SMOOTH",
"53 315 OFFCURVE",
"50 281 OFFCURVE",
"50 250 CURVE SMOOTH",
"50 93 OFFCURVE",
"141 -10 OFFCURVE",
"345 -10 CURVE SMOOTH"
);
},
{
closed = 1;
nodes = (
"585 775 OFFCURVE",
"624 818 OFFCURVE",
"624 868 CURVE SMOOTH",
"624 901 OFFCURVE",
"603 926 OFFCURVE",
"565 926 CURVE SMOOTH",
"513 926 OFFCURVE",
"476 882 OFFCURVE",
"476 832 CURVE SMOOTH",
"476 799 OFFCURVE",
"496 775 OFFCURVE",
"534 775 CURVE SMOOTH"
);
}
);
width = 710;
}
);
leftKerningGroup = C;
note = Cdotaccent;
rightKerningGroup = C;
unicode = 010A;
},
{
glyphname = D;
lastChange = "2015-12-01 14:00:37 +0000";
layers = (
{
layerId = "E6BC66B7-46A3-4CBE-A067-18EBCB5231B7";
name = "Bold Italic";
paths = (
{
closed = 1;
nodes = (
"324 0 LINE SMOOTH",
"572 0 OFFCURVE",
"701 113 OFFCURVE",
"749 350 CURVE SMOOTH",
"758 392 OFFCURVE",
"762 430 OFFCURVE",
"762 464 CURVE SMOOTH",
"762 622 OFFCURVE",
"669 700 OFFCURVE",
"467 700 CURVE SMOOTH",
"112 700 LINE",
"102 652 LINE",
"133 652 LINE SMOOTH",
"164 652 OFFCURVE",
"178 642 OFFCURVE",
"178 622 CURVE SMOOTH",
"178 619 OFFCURVE",
"178 616 OFFCURVE",
"177 612 CURVE SMOOTH",
"69 88 LINE SMOOTH",
"65 62 OFFCURVE",
"46 48 OFFCURVE",
"10 48 CURVE SMOOTH",
"-21 48 LINE",
"-30 0 LINE"
);
},
{
closed = 1;
nodes = (
"380 632 LINE",
"452 632 LINE SMOOTH",
"524 632 OFFCURVE",
"562 581 OFFCURVE",
"562 479 CURVE SMOOTH",
"562 443 OFFCURVE",
"557 400 OFFCURVE",
"547 350 CURVE SMOOTH",
"507 159 OFFCURVE",
"430 68 OFFCURVE",
"336 68 CURVE SMOOTH",
"265 68 LINE"
);
}
);
width = 757;
}
);
note = D;
rightKerningGroup = D;
unicode = 0044;
},
{
glyphname = Eth;
lastChange = "2015-12-01 14:03:20 +0000";
layers = (
{
layerId = "E6BC66B7-46A3-4CBE-A067-18EBCB5231B7";
name = "Bold Italic";
paths = (
{
closed = 1;
nodes = (
"324 0 LINE SMOOTH",
"572 0 OFFCURVE",
"701 113 OFFCURVE",
"749 350 CURVE SMOOTH",
"758 392 OFFCURVE",
"762 430 OFFCURVE",
"762 464 CURVE SMOOTH",
"762 622 OFFCURVE",
"669 700 OFFCURVE",
"467 700 CURVE SMOOTH",
"112 700 LINE",
"102 652 LINE",
"133 652 LINE SMOOTH",
"164 652 OFFCURVE",
"178 642 OFFCURVE",
"178 622 CURVE SMOOTH",
"178 619 OFFCURVE",
"178 616 OFFCURVE",
"177 612 CURVE SMOOTH",
"69 88 LINE SMOOTH",
"65 62 OFFCURVE",
"46 48 OFFCURVE",
"10 48 CURVE SMOOTH",
"-21 48 LINE",
"-30 0 LINE"
);
},
{
closed = 1;
nodes = (
"380 632 LINE",
"452 632 LINE SMOOTH",
"524 632 OFFCURVE",
"562 581 OFFCURVE",
"562 479 CURVE SMOOTH",
"562 443 OFFCURVE",
"557 400 OFFCURVE",
"547 350 CURVE SMOOTH",
"507 159 OFFCURVE",
"430 68 OFFCURVE",
"336 68 CURVE SMOOTH",
"265 68 LINE"
);
},
{
closed = 1;
nodes = (
"485 291 LINE",
"503 378 LINE",
"47 378 LINE",
"29 291 LINE"
);
}
);
width = 757;
}
);
note = Eth;
rightKerningGroup = D;
unicode = 00D0;
},
{
glyphname = Dcaron;
lastChange = "2015-12-01 14:00:35 +0000";
layers = (
{
layerId = "E6BC66B7-46A3-4CBE-A067-18EBCB5231B7";
name = "Bold Italic";
paths = (
{
closed = 1;
nodes = (
"324 0 LINE SMOOTH",
"572 0 OFFCURVE",
"701 113 OFFCURVE",
"749 350 CURVE SMOOTH",
"758 392 OFFCURVE",
"762 430 OFFCURVE",
"762 464 CURVE SMOOTH",
"762 622 OFFCURVE",
"669 700 OFFCURVE",
"467 700 CURVE SMOOTH",
"112 700 LINE",
"102 652 LINE",
"133 652 LINE SMOOTH",
"164 652 OFFCURVE",
"178 642 OFFCURVE",
"178 622 CURVE SMOOTH",
"178 619 OFFCURVE",
"178 616 OFFCURVE",
"177 612 CURVE SMOOTH",
"69 88 LINE SMOOTH",
"65 62 OFFCURVE",
"46 48 OFFCURVE",
"10 48 CURVE SMOOTH",
"-21 48 LINE",
"-30 0 LINE"
);
},
{
closed = 1;
nodes = (
"380 632 LINE",
"452 632 LINE SMOOTH",
"524 632 OFFCURVE",
"562 581 OFFCURVE",
"562 479 CURVE SMOOTH",
"562 443 OFFCURVE",
"557 400 OFFCURVE",
"547 350 CURVE SMOOTH",
"507 159 OFFCURVE",
"430 68 OFFCURVE",
"336 68 CURVE SMOOTH",
"265 68 LINE"
);
},
{
closed = 1;
nodes = (
"505 775 LINE",
"700 960 LINE",
"680 990 LINE",
"523 887 LINE SMOOTH",
"504 875 OFFCURVE",
"488 866 OFFCURVE",
"476 866 CURVE SMOOTH",
"466 866 OFFCURVE",
"452 875 OFFCURVE",
"438 887 CURVE",
"324 990 LINE",
"292 960 LINE",
"409 775 LINE"
);
}
);
width = 757;
}
);
note = Dcaron;
rightKerningGroup = D;
unicode = 010E;
},
{
glyphname = Dcroat;
lastChange = "2015-12-01 14:03:24 +0000";
layers = (
{
layerId = "E6BC66B7-46A3-4CBE-A067-18EBCB5231B7";
name = "Bold Italic";
paths = (
{
closed = 1;
nodes = (
"324 0 LINE SMOOTH",
"572 0 OFFCURVE",
"701 113 OFFCURVE",
"749 350 CURVE SMOOTH",
"758 392 OFFCURVE",
"762 430 OFFCURVE",
"762 464 CURVE SMOOTH",
"762 622 OFFCURVE",
"669 700 OFFCURVE",
"467 700 CURVE SMOOTH",
"112 700 LINE",
"102 652 LINE",
"133 652 LINE SMOOTH",
"164 652 OFFCURVE",
"178 642 OFFCURVE",
"178 622 CURVE SMOOTH",
"178 619 OFFCURVE",
"178 616 OFFCURVE",
"177 612 CURVE SMOOTH",
"69 88 LINE SMOOTH",
"65 62 OFFCURVE",
"46 48 OFFCURVE",
"10 48 CURVE SMOOTH",
"-21 48 LINE",
"-30 0 LINE"
);
},
{
closed = 1;
nodes = (
"380 632 LINE",
"452 632 LINE SMOOTH",
"524 632 OFFCURVE",
"562 581 OFFCURVE",
"562 479 CURVE SMOOTH",
"562 443 OFFCURVE",
"557 400 OFFCURVE",
"547 350 CURVE SMOOTH",
"507 159 OFFCURVE",
"430 68 OFFCURVE",
"336 68 CURVE SMOOTH",
"265 68 LINE"
);
},
{
closed = 1;
nodes = (
"485 291 LINE",
"503 378 LINE",
"47 378 LINE",
"29 291 LINE"
);
}
);
width = 757;
}
);
note = Dcroat;
rightKerningGroup = D;
unicode = 0110;
},
{
glyphname = Ddotbelow;
lastChange = "2015-12-01 14:04:21 +0000";
layers = (
{
layerId = "E6BC66B7-46A3-4CBE-A067-18EBCB5231B7";
name = "Bold Italic";
paths = (
{
closed = 1;
nodes = (
"324 0 LINE SMOOTH",
"572 0 OFFCURVE",
"701 113 OFFCURVE",
"749 350 CURVE SMOOTH",
"758 392 OFFCURVE",
"762 430 OFFCURVE",
"762 464 CURVE SMOOTH",
"762 622 OFFCURVE",
"669 700 OFFCURVE",
"467 700 CURVE SMOOTH",
"112 700 LINE",
"102 652 LINE",
"133 652 LINE SMOOTH",
"164 652 OFFCURVE",
"178 642 OFFCURVE",
"178 622 CURVE SMOOTH",
"178 619 OFFCURVE",
"178 616 OFFCURVE",
"177 612 CURVE SMOOTH",
"69 88 LINE SMOOTH",
"65 62 OFFCURVE",
"46 48 OFFCURVE",
"10 48 CURVE SMOOTH",
"-21 48 LINE",
"-30 0 LINE"
);
},
{
closed = 1;
nodes = (
"380 632 LINE",
"452 632 LINE SMOOTH",
"524 632 OFFCURVE",
"562 581 OFFCURVE",
"562 479 CURVE SMOOTH",
"562 443 OFFCURVE",
"557 400 OFFCURVE",
"547 350 CURVE SMOOTH",
"507 159 OFFCURVE",
"430 68 OFFCURVE",
"336 68 CURVE SMOOTH",
"265 68 LINE"
);
},
{
closed = 1;
nodes = (
"346 -216 OFFCURVE",
"385 -174 OFFCURVE",
"385 -124 CURVE SMOOTH",
"385 -90 OFFCURVE",
"364 -64 OFFCURVE",
"326 -64 CURVE SMOOTH",
"275 -64 OFFCURVE",
"236 -109 OFFCURVE",
"236 -159 CURVE SMOOTH",
"236 -192 OFFCURVE",
"257 -216 OFFCURVE",
"295 -216 CURVE SMOOTH"
);
}
);
width = 757;
}
);
note = Ddotbelow;
rightKerningGroup = D;
unicode = 1E0C;
},
{
glyphname = Dlinebelow;
lastChange = "2015-12-01 14:04:31 +0000";
layers = (
{
layerId = "E6BC66B7-46A3-4CBE-A067-18EBCB5231B7";
name = "Bold Italic";
paths = (
{
closed = 1;
nodes = (
"324 0 LINE SMOOTH",
"572 0 OFFCURVE",
"701 113 OFFCURVE",
"749 350 CURVE SMOOTH",
"758 392 OFFCURVE",
"762 430 OFFCURVE",
"762 464 CURVE SMOOTH",
"762 622 OFFCURVE",
"669 700 OFFCURVE",
"467 700 CURVE SMOOTH",
"112 700 LINE",
"102 652 LINE",
"133 652 LINE SMOOTH",
"164 652 OFFCURVE",
"178 642 OFFCURVE",
"178 622 CURVE SMOOTH",
"178 619 OFFCURVE",
"178 616 OFFCURVE",
"177 612 CURVE SMOOTH",
"69 88 LINE SMOOTH",
"65 62 OFFCURVE",
"46 48 OFFCURVE",
"10 48 CURVE SMOOTH",
"-21 48 LINE",
"-30 0 LINE"
);
},
{
closed = 1;
nodes = (
"380 632 LINE",
"452 632 LINE SMOOTH",
"524 632 OFFCURVE",
"562 581 OFFCURVE",
"562 479 CURVE SMOOTH",
"562 443 OFFCURVE",
"557 400 OFFCURVE",
"547 350 CURVE SMOOTH",
"507 159 OFFCURVE",
"430 68 OFFCURVE",
"336 68 CURVE SMOOTH",
"265 68 LINE"
);
},
{
closed = 1;
nodes = (
"497 -130 LINE",
"510 -64 LINE",
"98 -64 LINE",
"85 -130 LINE"
);
}
);
width = 757;
}
);
note = Dlinebelow;
rightKerningGroup = D;
unicode = 1E0E;
},
{
glyphname = E;
lastChange = "2015-12-01 14:00:37 +0000";
layers = (
{
layerId = "E6BC66B7-46A3-4CBE-A067-18EBCB5231B7";
name = "Bold Italic";
paths = (
{
closed = 1;
nodes = (
"573 0 LINE",
"636 203 LINE",
"589 203 LINE",
"562 128 OFFCURVE",
"529 68 OFFCURVE",
"458 68 CURVE SMOOTH",
"265 68 LINE",
"380 632 LINE",
"545 632 LINE SMOOTH",
"618 632 OFFCURVE",
"630 573 OFFCURVE",
"630 529 CURVE SMOOTH",
"630 516 OFFCURVE",
"629 504 OFFCURVE",
"628 496 CURVE",
"675 496 LINE",
"716 700 LINE",
"112 700 LINE",
"102 652 LINE",
"133 652 LINE SMOOTH",
"164 652 OFFCURVE",
"178 642 OFFCURVE",
"178 622 CURVE SMOOTH",
"178 619 OFFCURVE",
"178 616 OFFCURVE",
"177 612 CURVE SMOOTH",
"69 88 LINE SMOOTH",
"65 62 OFFCURVE",
"46 48 OFFCURVE",
"10 48 CURVE SMOOTH",
"-21 48 LINE",
"-30 0 LINE"
);
},
{
closed = 1;
nodes = (
"506 240 LINE",
"555 482 LINE",
"518 482 LINE",
"505 440 OFFCURVE",
"490 395 OFFCURVE",
"447 395 CURVE SMOOTH",
"252 395 LINE",
"238 327 LINE",
"433 327 LINE SMOOTH",
"464 327 OFFCURVE",
"471 304 OFFCURVE",
"471 276 CURVE SMOOTH",
"471 264 OFFCURVE",
"470 252 OFFCURVE",
"469 240 CURVE"
);
}
);
width = 663;
}
);
note = E;
unicode = 0045;
},
{
glyphname = Eacute;
lastChange = "2015-12-01 14:00:37 +0000";
layers = (
{
layerId = "E6BC66B7-46A3-4CBE-A067-18EBCB5231B7";
name = "Bold Italic";
paths = (
{
closed = 1;
nodes = (
"573 0 LINE",
"636 203 LINE",
"589 203 LINE",
"562 128 OFFCURVE",
"529 68 OFFCURVE",
"458 68 CURVE SMOOTH",
"265 68 LINE",
"380 632 LINE",
"545 632 LINE SMOOTH",
"618 632 OFFCURVE",
"630 573 OFFCURVE",
"630 529 CURVE SMOOTH",
"630 516 OFFCURVE",
"629 504 OFFCURVE",
"628 496 CURVE",
"675 496 LINE",
"716 700 LINE",
"112 700 LINE",
"102 652 LINE",
"133 652 LINE SMOOTH",
"164 652 OFFCURVE",
"178 642 OFFCURVE",
"178 622 CURVE SMOOTH",
"178 619 OFFCURVE",
"178 616 OFFCURVE",
"177 612 CURVE SMOOTH",
"69 88 LINE SMOOTH",
"65 62 OFFCURVE",
"46 48 OFFCURVE",
"10 48 CURVE SMOOTH",
"-21 48 LINE",
"-30 0 LINE"
);
},
{
closed = 1;
nodes = (
"506 240 LINE",
"555 482 LINE",
"518 482 LINE",
"505 440 OFFCURVE",
"490 395 OFFCURVE",
"447 395 CURVE SMOOTH",
"252 395 LINE",
"238 327 LINE",
"433 327 LINE SMOOTH",
"464 327 OFFCURVE",
"471 304 OFFCURVE",
"471 276 CURVE SMOOTH",
"471 264 OFFCURVE",
"470 252 OFFCURVE",
"469 240 CURVE"
);
},
{
closed = 1;
nodes = (
"596 874 LINE SMOOTH",
"638 897 OFFCURVE",
"665 920 OFFCURVE",
"670 950 CURVE",
"671 954 OFFCURVE",
"671 958 OFFCURVE",
"671 962 CURVE SMOOTH",
"671 983 OFFCURVE",
"658 1005 OFFCURVE",
"620 1005 CURVE SMOOTH",
"581 1005 OFFCURVE",
"545 969 OFFCURVE",
"537 962 CURVE SMOOTH",
"386 823 LINE",
"411 773 LINE"
);
}
);
width = 663;
}
);
note = Eacute;
unicode = 00C9;
},
{
glyphname = Ebreve;
lastChange = "2015-12-01 14:00:37 +0000";
layers = (
{
layerId = "E6BC66B7-46A3-4CBE-A067-18EBCB5231B7";
name = "Bold Italic";
paths = (
{
closed = 1;
nodes = (
"573 0 LINE",
"636 203 LINE",
"589 203 LINE",
"562 128 OFFCURVE",
"529 68 OFFCURVE",
"458 68 CURVE SMOOTH",
"265 68 LINE",
"380 632 LINE",
"545 632 LINE SMOOTH",
"618 632 OFFCURVE",
"630 573 OFFCURVE",
"630 529 CURVE SMOOTH",
"630 516 OFFCURVE",
"629 504 OFFCURVE",
"628 496 CURVE",
"675 496 LINE",
"716 700 LINE",
"112 700 LINE",
"102 652 LINE",
"133 652 LINE SMOOTH",
"164 652 OFFCURVE",
"178 642 OFFCURVE",
"178 622 CURVE SMOOTH",
"178 619 OFFCURVE",
"178 616 OFFCURVE",
"177 612 CURVE SMOOTH",
"69 88 LINE SMOOTH",
"65 62 OFFCURVE",
"46 48 OFFCURVE",
"10 48 CURVE SMOOTH",
"-21 48 LINE",
"-30 0 LINE"
);
},
{
closed = 1;
nodes = (
"506 240 LINE",
"555 482 LINE",
"518 482 LINE",
"505 440 OFFCURVE",
"490 395 OFFCURVE",
"447 395 CURVE SMOOTH",
"252 395 LINE",
"238 327 LINE",
"433 327 LINE SMOOTH",
"464 327 OFFCURVE",
"471 304 OFFCURVE",
"471 276 CURVE SMOOTH",
"471 264 OFFCURVE",
"470 252 OFFCURVE",
"469 240 CURVE"
);
},
{
closed = 1;
nodes = (
"642 777 OFFCURVE",
"684 867 OFFCURVE",
"698 937 CURVE",
"654 937 LINE",
"647 913 OFFCURVE",
"617 860 OFFCURVE",
"515 860 CURVE SMOOTH",
"413 860 OFFCURVE",
"405 913 OFFCURVE",
"408 937 CURVE",
"366 937 LINE",
"362 920 OFFCURVE",
"360 903 OFFCURVE",
"360 886 CURVE SMOOTH",
"360 828 OFFCURVE",
"389 777 OFFCURVE",
"500 777 CURVE SMOOTH"
);
}
);
width = 663;
}
);
note = Ebreve;
unicode = 0114;
},
{
glyphname = Ecaron;
lastChange = "2015-12-01 14:00:37 +0000";
layers = (
{
layerId = "E6BC66B7-46A3-4CBE-A067-18EBCB5231B7";
name = "Bold Italic";
paths = (
{
closed = 1;
nodes = (
"573 0 LINE",
"636 203 LINE",
"589 203 LINE",
"562 128 OFFCURVE",
"529 68 OFFCURVE",
"458 68 CURVE SMOOTH",
"265 68 LINE",
"380 632 LINE",
"545 632 LINE SMOOTH",
"618 632 OFFCURVE",
"630 573 OFFCURVE",
"630 529 CURVE SMOOTH",
"630 516 OFFCURVE",
"629 504 OFFCURVE",
"628 496 CURVE",
"675 496 LINE",
"716 700 LINE",
"112 700 LINE",
"102 652 LINE",
"133 652 LINE SMOOTH",
"164 652 OFFCURVE",
"178 642 OFFCURVE",
"178 622 CURVE SMOOTH",
"178 619 OFFCURVE",
"178 616 OFFCURVE",
"177 612 CURVE SMOOTH",
"69 88 LINE SMOOTH",
"65 62 OFFCURVE",
"46 48 OFFCURVE",
"10 48 CURVE SMOOTH",
"-21 48 LINE",
"-30 0 LINE"
);
},
{
closed = 1;
nodes = (
"506 240 LINE",
"555 482 LINE",
"518 482 LINE",
"505 440 OFFCURVE",
"490 395 OFFCURVE",
"447 395 CURVE SMOOTH",
"252 395 LINE",
"238 327 LINE",
"433 327 LINE SMOOTH",
"464 327 OFFCURVE",
"471 304 OFFCURVE",
"471 276 CURVE SMOOTH",
"471 264 OFFCURVE",
"470 252 OFFCURVE",
"469 240 CURVE"
);
},
{
closed = 1;
nodes = (
"543 775 LINE",
"738 960 LINE",
"717 990 LINE",
"560 887 LINE SMOOTH",
"542 875 OFFCURVE",
"525 866 OFFCURVE",
"514 866 CURVE SMOOTH",
"503 866 OFFCURVE",
"490 875 OFFCURVE",
"476 887 CURVE",
"361 990 LINE",
"330 960 LINE",
"447 775 LINE"
);
}
);
width = 663;
}
);
note = Ecaron;
unicode = 011A;
},
{
glyphname = Ecircumflex;
lastChange = "2015-12-01 14:00:36 +0000";
layers = (
{
layerId = "E6BC66B7-46A3-4CBE-A067-18EBCB5231B7";
name = "Bold Italic";
paths = (
{
closed = 1;
nodes = (
"573 0 LINE",
"636 203 LINE",
"589 203 LINE",
"562 128 OFFCURVE",
"529 68 OFFCURVE",
"458 68 CURVE SMOOTH",
"265 68 LINE",
"380 632 LINE",
"545 632 LINE SMOOTH",
"618 632 OFFCURVE",
"630 573 OFFCURVE",
"630 529 CURVE SMOOTH",
"630 516 OFFCURVE",
"629 504 OFFCURVE",
"628 496 CURVE",
"675 496 LINE",
"716 700 LINE",
"112 700 LINE",
"102 652 LINE",
"133 652 LINE SMOOTH",
"164 652 OFFCURVE",
"178 642 OFFCURVE",
"178 622 CURVE SMOOTH",
"178 619 OFFCURVE",
"178 616 OFFCURVE",
"177 612 CURVE SMOOTH",
"69 88 LINE SMOOTH",
"65 62 OFFCURVE",
"46 48 OFFCURVE",
"10 48 CURVE SMOOTH",
"-21 48 LINE",
"-30 0 LINE"
);
},
{
closed = 1;
nodes = (
"506 240 LINE",
"555 482 LINE",
"518 482 LINE",
"505 440 OFFCURVE",
"490 395 OFFCURVE",
"447 395 CURVE SMOOTH",
"252 395 LINE",
"238 327 LINE",
"433 327 LINE SMOOTH",
"464 327 OFFCURVE",
"471 304 OFFCURVE",
"471 276 CURVE SMOOTH",
"471 264 OFFCURVE",
"470 252 OFFCURVE",
"469 240 CURVE"
);
},
{
closed = 1;
nodes = (
"467 878 LINE SMOOTH",
"486 890 OFFCURVE",
"503 899 OFFCURVE",
"514 899 CURVE SMOOTH",
"525 899 OFFCURVE",
"538 890 OFFCURVE",
"551 878 CURVE SMOOTH",
"667 775 LINE",
"699 805 LINE",
"580 990 LINE",
"484 990 LINE",
"291 805 LINE",
"310 775 LINE"
);
}
);
width = 663;
}
);
note = Ecircumflex;
unicode = 00CA;
},
{
glyphname = Ecircumflexacute;
lastChange = "2015-12-01 14:00:37 +0000";
layers = (
{
layerId = "E6BC66B7-46A3-4CBE-A067-18EBCB5231B7";
name = "Bold Italic";
paths = (
{
closed = 1;
nodes = (
"573 0 LINE",
"636 203 LINE",
"589 203 LINE",
"562 128 OFFCURVE",
"529 68 OFFCURVE",
"458 68 CURVE SMOOTH",
"265 68 LINE",
"380 632 LINE",
"545 632 LINE SMOOTH",
"618 632 OFFCURVE",
"630 573 OFFCURVE",
"630 529 CURVE SMOOTH",
"630 516 OFFCURVE",
"629 504 OFFCURVE",
"628 496 CURVE",
"675 496 LINE",
"716 700 LINE",
"112 700 LINE",
"102 652 LINE",
"133 652 LINE SMOOTH",
"164 652 OFFCURVE",
"178 642 OFFCURVE",
"178 622 CURVE SMOOTH",
"178 619 OFFCURVE",
"178 616 OFFCURVE",
"177 612 CURVE SMOOTH",
"69 88 LINE SMOOTH",
"65 62 OFFCURVE",
"46 48 OFFCURVE",
"10 48 CURVE SMOOTH",
"-21 48 LINE",
"-30 0 LINE"
);
},
{
closed = 1;
nodes = (
"506 240 LINE",
"555 482 LINE",
"518 482 LINE",
"505 440 OFFCURVE",
"490 395 OFFCURVE",
"447 395 CURVE SMOOTH",
"252 395 LINE",
"238 327 LINE",
"433 327 LINE SMOOTH",
"464 327 OFFCURVE",
"471 304 OFFCURVE",
"471 276 CURVE SMOOTH",
"471 264 OFFCURVE",
"470 252 OFFCURVE",
"469 240 CURVE"
);
},
{
closed = 1;
nodes = (
"444 877 LINE SMOOTH",
"462 889 OFFCURVE",
"477 898 OFFCURVE",
"488 898 CURVE SMOOTH",
"500 898 OFFCURVE",
"512 889 OFFCURVE",
"524 877 CURVE SMOOTH",
"634 774 LINE",
"665 804 LINE",
"553 989 LINE",
"461 989 LINE",
"272 804 LINE",
"291 774 LINE"
);
},
{
closed = 1;
nodes = (
"765 976 LINE SMOOTH",
"815 1000 OFFCURVE",
"849 1029 OFFCURVE",
"849 1064 CURVE SMOOTH",
"849 1086 OFFCURVE",
"836 1112 OFFCURVE",
"798 1112 CURVE SMOOTH",
"764 1112 OFFCURVE",
"730 1081 OFFCURVE",
"712 1062 CURVE SMOOTH",
"618 962 LINE",
"640 919 LINE"
);
}
);
width = 663;
}
);
note = Ecircumflexacute;
unicode = 1EBE;
},
{
glyphname = Ecircumflexdotbelow;
lastChange = "2015-12-01 14:00:36 +0000";
layers = (
{
layerId = "E6BC66B7-46A3-4CBE-A067-18EBCB5231B7";
name = "Bold Italic";
paths = (
{
closed = 1;
nodes = (
"573 0 LINE",
"636 203 LINE",
"589 203 LINE",
"562 128 OFFCURVE",
"529 68 OFFCURVE",
"458 68 CURVE SMOOTH",
"265 68 LINE",
"380 632 LINE",
"545 632 LINE SMOOTH",
"618 632 OFFCURVE",
"630 573 OFFCURVE",
"630 529 CURVE SMOOTH",
"630 516 OFFCURVE",
"629 504 OFFCURVE",
"628 496 CURVE",
"675 496 LINE",
"716 700 LINE",
"112 700 LINE",
"102 652 LINE",
"133 652 LINE SMOOTH",
"164 652 OFFCURVE",
"178 642 OFFCURVE",
"178 622 CURVE SMOOTH",
"178 619 OFFCURVE",
"178 616 OFFCURVE",
"177 612 CURVE SMOOTH",
"69 88 LINE SMOOTH",
"65 62 OFFCURVE",
"46 48 OFFCURVE",
"10 48 CURVE SMOOTH",
"-21 48 LINE",
"-30 0 LINE"
);
},
{
closed = 1;
nodes = (
"317 -216 OFFCURVE",
"356 -174 OFFCURVE",
"356 -124 CURVE SMOOTH",
"356 -90 OFFCURVE",
"335 -64 OFFCURVE",
"297 -64 CURVE SMOOTH",
"246 -64 OFFCURVE",
"207 -109 OFFCURVE",
"207 -159 CURVE SMOOTH",
"207 -192 OFFCURVE",
"228 -216 OFFCURVE",
"266 -216 CURVE SMOOTH"
);
},
{
closed = 1;
nodes = (
"506 240 LINE",
"555 482 LINE",
"518 482 LINE",
"505 440 OFFCURVE",
"490 395 OFFCURVE",
"447 395 CURVE SMOOTH",
"252 395 LINE",
"238 327 LINE",
"433 327 LINE SMOOTH",
"464 327 OFFCURVE",
"471 304 OFFCURVE",
"471 276 CURVE SMOOTH",
"471 264 OFFCURVE",
"470 252 OFFCURVE",
"469 240 CURVE"
);
},
{
closed = 1;
nodes = (
"439 878 LINE SMOOTH",
"458 890 OFFCURVE",
"476 899 OFFCURVE",
"486 899 CURVE SMOOTH",
"498 899 OFFCURVE",
"510 890 OFFCURVE",
"524 878 CURVE SMOOTH",
"639 775 LINE",
"671 805 LINE",
"552 990 LINE",
"456 990 LINE",
"263 805 LINE",
"283 775 LINE"
);
}
);
width = 663;
}
);
note = Ecircumflexdotbelow;
unicode = 1EC6;
},
{
glyphname = Ecircumflexgrave;
lastChange = "2015-12-01 14:00:37 +0000";
layers = (
{
layerId = "E6BC66B7-46A3-4CBE-A067-18EBCB5231B7";
name = "Bold Italic";
paths = (
{
closed = 1;
nodes = (
"573 0 LINE",
"636 203 LINE",
"589 203 LINE",
"562 128 OFFCURVE",
"529 68 OFFCURVE",
"458 68 CURVE SMOOTH",
"265 68 LINE",
"380 632 LINE",
"545 632 LINE SMOOTH",
"618 632 OFFCURVE",
"630 573 OFFCURVE",
"630 529 CURVE SMOOTH",
"630 516 OFFCURVE",
"629 504 OFFCURVE",
"628 496 CURVE",
"675 496 LINE",
"716 700 LINE",
"112 700 LINE",
"102 652 LINE",
"133 652 LINE SMOOTH",
"164 652 OFFCURVE",
"178 642 OFFCURVE",
"178 622 CURVE SMOOTH",
"178 619 OFFCURVE",
"178 616 OFFCURVE",
"177 612 CURVE SMOOTH",
"69 88 LINE SMOOTH",
"65 62 OFFCURVE",
"46 48 OFFCURVE",
"10 48 CURVE SMOOTH",
"-21 48 LINE",
"-30 0 LINE"
);
},
{
closed = 1;
nodes = (
"506 240 LINE",
"555 482 LINE",
"518 482 LINE",
"505 440 OFFCURVE",
"490 395 OFFCURVE",
"447 395 CURVE SMOOTH",
"252 395 LINE",
"238 327 LINE",
"433 327 LINE SMOOTH",
"464 327 OFFCURVE",
"471 304 OFFCURVE",
"471 276 CURVE SMOOTH",
"471 264 OFFCURVE",
"470 252 OFFCURVE",
"469 240 CURVE"
);
},
{
closed = 1;
nodes = (
"386 962 LINE",
"331 1062 LINE SMOOTH",
"320 1081 OFFCURVE",
"301 1112 OFFCURVE",
"266 1112 CURVE SMOOTH",
"221 1112 OFFCURVE",
"196 1076 OFFCURVE",
"191 1053 CURVE SMOOTH",
"190 1050 OFFCURVE",
"190 1046 OFFCURVE",
"190 1043 CURVE SMOOTH",
"190 1017 OFFCURVE",
"210 995 OFFCURVE",
"243 976 CURVE SMOOTH",
"345 919 LINE"
);
},
{
closed = 1;
nodes = (
"444 877 LINE SMOOTH",
"462 889 OFFCURVE",
"477 898 OFFCURVE",
"488 898 CURVE SMOOTH",
"500 898 OFFCURVE",
"512 889 OFFCURVE",
"524 877 CURVE SMOOTH",
"634 774 LINE",
"665 804 LINE",
"553 989 LINE",
"461 989 LINE",
"272 804 LINE",
"291 774 LINE"
);
}
);
width = 663;
}
);
note = Ecircumflexgrave;
unicode = 1EC0;
},
{
glyphname = Ecircumflexhookabove;
lastChange = "2015-12-01 14:00:35 +0000";
layers = (
{
layerId = "E6BC66B7-46A3-4CBE-A067-18EBCB5231B7";
name = "Bold Italic";
paths = (
{
closed = 1;
nodes = (
"573 0 LINE",
"636 203 LINE",
"589 203 LINE",
"562 128 OFFCURVE",
"529 68 OFFCURVE",
"458 68 CURVE SMOOTH",
"265 68 LINE",
"380 632 LINE",
"545 632 LINE SMOOTH",
"618 632 OFFCURVE",
"630 573 OFFCURVE",
"630 529 CURVE SMOOTH",
"630 516 OFFCURVE",
"629 504 OFFCURVE",
"628 496 CURVE",
"675 496 LINE",
"716 700 LINE",
"112 700 LINE",
"102 652 LINE",
"133 652 LINE SMOOTH",
"164 652 OFFCURVE",
"178 642 OFFCURVE",
"178 622 CURVE SMOOTH",
"178 619 OFFCURVE",
"178 616 OFFCURVE",
"177 612 CURVE SMOOTH",
"69 88 LINE SMOOTH",
"65 62 OFFCURVE",
"46 48 OFFCURVE",
"10 48 CURVE SMOOTH",
"-21 48 LINE",
"-30 0 LINE"
);
},
{
closed = 1;
nodes = (
"506 240 LINE",
"555 482 LINE",
"518 482 LINE",
"505 440 OFFCURVE",
"490 395 OFFCURVE",
"447 395 CURVE SMOOTH",
"252 395 LINE",
"238 327 LINE",
"433 327 LINE SMOOTH",
"464 327 OFFCURVE",
"471 304 OFFCURVE",
"471 276 CURVE SMOOTH",
"471 264 OFFCURVE",
"470 252 OFFCURVE",
"469 240 CURVE"
);
},
{
closed = 1;
nodes = (
"445 877 LINE SMOOTH",
"462 889 OFFCURVE",
"478 898 OFFCURVE",
"489 898 CURVE SMOOTH",
"500 898 OFFCURVE",
"512 889 OFFCURVE",
"525 877 CURVE SMOOTH",
"635 774 LINE",
"666 804 LINE",
"554 989 LINE",
"462 989 LINE",
"273 804 LINE",
"292 774 LINE"
);
},
{
closed = 1;
nodes = (
"703 947 LINE",
"694 947 OFFCURVE",
"683 949 OFFCURVE",
"683 962 CURVE SMOOTH",
"683 965 OFFCURVE",
"683 967 OFFCURVE",
"684 970 CURVE",
"693 1015 OFFCURVE",
"809 1018 OFFCURVE",
"809 1092 CURVE SMOOTH",
"809 1130 OFFCURVE",
"766 1148 OFFCURVE",
"716 1148 CURVE SMOOTH",
"636 1148 OFFCURVE",
"607 1110 OFFCURVE",
"603 1091 CURVE SMOOTH",
"602 1088 OFFCURVE",
"602 1085 OFFCURVE",
"602 1083 CURVE SMOOTH",
"602 1065 OFFCURVE",
"616 1057 OFFCURVE",
"629 1057 CURVE SMOOTH",
"645 1057 OFFCURVE",
"664 1067 OFFCURVE",
"668 1084 CURVE SMOOTH",
"673 1111 OFFCURVE",
"695 1118 OFFCURVE",
"709 1118 CURVE SMOOTH",
"728 1118 OFFCURVE",
"733 1101 OFFCURVE",
"731 1088 CURVE",
"717 1027 OFFCURVE",
"624 1018 OFFCURVE",
"624 963 CURVE SMOOTH",
"624 937 OFFCURVE",
"656 924 OFFCURVE",
"692 924 CURVE"
);
}
);
width = 663;
}
);
note = Ecircumflexhookabove;
unicode = 1EC2;
},
{
glyphname = Ecircumflextilde;
lastChange = "2015-12-01 14:00:35 +0000";
layers = (
{
layerId = "E6BC66B7-46A3-4CBE-A067-18EBCB5231B7";
name = "Bold Italic";
paths = (
{
closed = 1;
nodes = (
"573 0 LINE",
"636 203 LINE",
"589 203 LINE",
"562 128 OFFCURVE",
"529 68 OFFCURVE",
"458 68 CURVE SMOOTH",
"265 68 LINE",
"380 632 LINE",
"545 632 LINE SMOOTH",
"618 632 OFFCURVE",
"630 573 OFFCURVE",
"630 529 CURVE SMOOTH",
"630 516 OFFCURVE",
"629 504 OFFCURVE",
"628 496 CURVE",
"675 496 LINE",
"716 700 LINE",
"112 700 LINE",
"102 652 LINE",
"133 652 LINE SMOOTH",
"164 652 OFFCURVE",
"178 642 OFFCURVE",
"178 622 CURVE SMOOTH",
"178 619 OFFCURVE",
"178 616 OFFCURVE",
"177 612 CURVE SMOOTH",
"69 88 LINE SMOOTH",
"65 62 OFFCURVE",
"46 48 OFFCURVE",
"10 48 CURVE SMOOTH",
"-21 48 LINE",
"-30 0 LINE"
);
},
{
closed = 1;
nodes = (
"506 240 LINE",
"555 482 LINE",
"518 482 LINE",
"505 440 OFFCURVE",
"490 395 OFFCURVE",
"447 395 CURVE SMOOTH",
"252 395 LINE",
"238 327 LINE",
"433 327 LINE SMOOTH",
"464 327 OFFCURVE",
"471 304 OFFCURVE",
"471 276 CURVE SMOOTH",
"471 264 OFFCURVE",
"470 252 OFFCURVE",
"469 240 CURVE"
);
},
{
closed = 1;
nodes = (
"445 877 LINE SMOOTH",
"462 889 OFFCURVE",
"478 898 OFFCURVE",
"489 898 CURVE SMOOTH",
"500 898 OFFCURVE",
"512 889 OFFCURVE",
"525 877 CURVE SMOOTH",
"635 774 LINE",
"666 804 LINE",
"554 989 LINE",
"462 989 LINE",
"273 804 LINE",
"292 774 LINE"
);
},
{
closed = 1;
nodes = (
"376 1043 OFFCURVE",
"394 1060 OFFCURVE",
"428 1060 CURVE SMOOTH",
"485 1060 OFFCURVE",
"526 1016 OFFCURVE",
"582 1016 CURVE SMOOTH",
"654 1016 OFFCURVE",
"704 1099 OFFCURVE",
"728 1143 CURVE",
"703 1162 LINE",
"675 1121 OFFCURVE",
"658 1105 OFFCURVE",
"624 1105 CURVE SMOOTH",
"568 1105 OFFCURVE",
"526 1149 OFFCURVE",
"471 1149 CURVE SMOOTH",
"397 1149 OFFCURVE",
"348 1066 OFFCURVE",
"323 1022 CURVE",
"349 1003 LINE"
);
}
);
width = 663;
}
);
note = Ecircumflextilde;
unicode = 1EC4;
},
{
glyphname = Edieresis;
lastChange = "2015-12-01 14:00:36 +0000";
layers = (
{
layerId = "E6BC66B7-46A3-4CBE-A067-18EBCB5231B7";
name = "Bold Italic";
paths = (
{
closed = 1;
nodes = (
"573 0 LINE",
"636 203 LINE",
"589 203 LINE",
"562 128 OFFCURVE",
"529 68 OFFCURVE",
"458 68 CURVE SMOOTH",
"265 68 LINE",
"380 632 LINE",
"545 632 LINE SMOOTH",
"618 632 OFFCURVE",
"630 573 OFFCURVE",
"630 529 CURVE SMOOTH",
"630 516 OFFCURVE",
"629 504 OFFCURVE",
"628 496 CURVE",
"675 496 LINE",
"716 700 LINE",
"112 700 LINE",
"102 652 LINE",
"133 652 LINE SMOOTH",
"164 652 OFFCURVE",
"178 642 OFFCURVE",
"178 622 CURVE SMOOTH",
"178 619 OFFCURVE",
"178 616 OFFCURVE",
"177 612 CURVE SMOOTH",
"69 88 LINE SMOOTH",
"65 62 OFFCURVE",
"46 48 OFFCURVE",
"10 48 CURVE SMOOTH",
"-21 48 LINE",
"-30 0 LINE"
);
},
{
closed = 1;
nodes = (
"506 240 LINE",
"555 482 LINE",
"518 482 LINE",
"505 440 OFFCURVE",
"490 395 OFFCURVE",
"447 395 CURVE SMOOTH",
"252 395 LINE",
"238 327 LINE",
"433 327 LINE SMOOTH",
"464 327 OFFCURVE",
"471 304 OFFCURVE",
"471 276 CURVE SMOOTH",
"471 264 OFFCURVE",
"470 252 OFFCURVE",
"469 240 CURVE"
);
},
{
closed = 1;
nodes = (
"435 775 OFFCURVE",
"475 818 OFFCURVE",
"475 868 CURVE SMOOTH",
"475 901 OFFCURVE",
"453 926 OFFCURVE",
"414 926 CURVE SMOOTH",
"363 926 OFFCURVE",
"326 882 OFFCURVE",
"326 832 CURVE SMOOTH",
"326 799 OFFCURVE",
"346 775 OFFCURVE",
"384 775 CURVE SMOOTH"
);
},
{
closed = 1;
nodes = (
"673 775 OFFCURVE",
"713 818 OFFCURVE",
"713 868 CURVE SMOOTH",
"713 901 OFFCURVE",
"692 926 OFFCURVE",
"653 926 CURVE SMOOTH",
"600 926 OFFCURVE",
"563 882 OFFCURVE",
"563 832 CURVE SMOOTH",
"563 799 OFFCURVE",
"583 775 OFFCURVE",
"622 775 CURVE SMOOTH"
);
}
);
width = 663;
}
);
note = Edieresis;
unicode = 00CB;
},
{
glyphname = Edotaccent;
lastChange = "2015-12-01 14:00:36 +0000";
layers = (
{
layerId = "E6BC66B7-46A3-4CBE-A067-18EBCB5231B7";
name = "Bold Italic";
paths = (
{
closed = 1;
nodes = (
"573 0 LINE",
"636 203 LINE",
"589 203 LINE",
"562 128 OFFCURVE",
"529 68 OFFCURVE",
"458 68 CURVE SMOOTH",
"265 68 LINE",
"380 632 LINE",
"545 632 LINE SMOOTH",
"618 632 OFFCURVE",
"630 573 OFFCURVE",
"630 529 CURVE SMOOTH",
"630 516 OFFCURVE",
"629 504 OFFCURVE",
"628 496 CURVE",
"675 496 LINE",
"716 700 LINE",
"112 700 LINE",
"102 652 LINE",
"133 652 LINE SMOOTH",
"164 652 OFFCURVE",
"178 642 OFFCURVE",
"178 622 CURVE SMOOTH",
"178 619 OFFCURVE",
"178 616 OFFCURVE",
"177 612 CURVE SMOOTH",
"69 88 LINE SMOOTH",
"65 62 OFFCURVE",
"46 48 OFFCURVE",
"10 48 CURVE SMOOTH",
"-21 48 LINE",
"-30 0 LINE"
);
},
{
closed = 1;
nodes = (
"506 240 LINE",
"555 482 LINE",
"518 482 LINE",
"505 440 OFFCURVE",
"490 395 OFFCURVE",
"447 395 CURVE SMOOTH",
"252 395 LINE",
"238 327 LINE",
"433 327 LINE SMOOTH",
"464 327 OFFCURVE",
"471 304 OFFCURVE",
"471 276 CURVE SMOOTH",
"471 264 OFFCURVE",
"470 252 OFFCURVE",
"469 240 CURVE"
);
},
{
closed = 1;
nodes = (
"553 775 OFFCURVE",
"593 818 OFFCURVE",
"593 868 CURVE SMOOTH",
"593 901 OFFCURVE",
"572 926 OFFCURVE",
"533 926 CURVE SMOOTH",
"481 926 OFFCURVE",
"444 882 OFFCURVE",
"444 832 CURVE SMOOTH",
"444 799 OFFCURVE",
"464 775 OFFCURVE",
"502 775 CURVE SMOOTH"
);
}
);
width = 663;
}
);
note = Edotaccent;
unicode = 0116;
},
{
glyphname = Edotbelow;
lastChange = "2015-12-01 14:00:36 +0000";
layers = (
{
layerId = "E6BC66B7-46A3-4CBE-A067-18EBCB5231B7";
name = "Bold Italic";
paths = (
{
closed = 1;
nodes = (
"573 0 LINE",
"636 203 LINE",
"589 203 LINE",
"562 128 OFFCURVE",
"529 68 OFFCURVE",
"458 68 CURVE SMOOTH",
"265 68 LINE",
"380 632 LINE",
"545 632 LINE SMOOTH",
"618 632 OFFCURVE",
"630 573 OFFCURVE",
"630 529 CURVE SMOOTH",
"630 516 OFFCURVE",
"629 504 OFFCURVE",
"628 496 CURVE",
"675 496 LINE",
"716 700 LINE",
"112 700 LINE",
"102 652 LINE",
"133 652 LINE SMOOTH",
"164 652 OFFCURVE",
"178 642 OFFCURVE",
"178 622 CURVE SMOOTH",
"178 619 OFFCURVE",
"178 616 OFFCURVE",
"177 612 CURVE SMOOTH",
"69 88 LINE SMOOTH",
"65 62 OFFCURVE",
"46 48 OFFCURVE",
"10 48 CURVE SMOOTH",
"-21 48 LINE",
"-30 0 LINE"
);
},
{
closed = 1;
nodes = (
"301 -216 OFFCURVE",
"340 -174 OFFCURVE",
"340 -124 CURVE SMOOTH",
"340 -90 OFFCURVE",
"319 -64 OFFCURVE",
"281 -64 CURVE SMOOTH",
"230 -64 OFFCURVE",
"190 -109 OFFCURVE",
"190 -159 CURVE SMOOTH",
"190 -192 OFFCURVE",
"212 -216 OFFCURVE",
"250 -216 CURVE SMOOTH"
);
},
{
closed = 1;
nodes = (
"506 240 LINE",
"555 482 LINE",
"518 482 LINE",
"505 440 OFFCURVE",
"490 395 OFFCURVE",
"447 395 CURVE SMOOTH",
"252 395 LINE",
"238 327 LINE",
"433 327 LINE SMOOTH",
"464 327 OFFCURVE",
"471 304 OFFCURVE",
"471 276 CURVE SMOOTH",
"471 264 OFFCURVE",
"470 252 OFFCURVE",
"469 240 CURVE"
);
}
);
width = 663;
}
);
note = Edotbelow;
unicode = 1EB8;
},
{
glyphname = Egrave;
lastChange = "2015-12-01 14:00:35 +0000";
layers = (
{
layerId = "E6BC66B7-46A3-4CBE-A067-18EBCB5231B7";
name = "Bold Italic";
paths = (
{
closed = 1;
nodes = (
"573 0 LINE",
"636 203 LINE",
"589 203 LINE",
"562 128 OFFCURVE",
"529 68 OFFCURVE",
"458 68 CURVE SMOOTH",
"265 68 LINE",
"380 632 LINE",
"545 632 LINE SMOOTH",
"618 632 OFFCURVE",
"630 573 OFFCURVE",
"630 529 CURVE SMOOTH",
"630 516 OFFCURVE",
"629 504 OFFCURVE",
"628 496 CURVE",
"675 496 LINE",
"716 700 LINE",
"112 700 LINE",
"102 652 LINE",
"133 652 LINE SMOOTH",
"164 652 OFFCURVE",
"178 642 OFFCURVE",
"178 622 CURVE SMOOTH",
"178 619 OFFCURVE",
"178 616 OFFCURVE",
"177 612 CURVE SMOOTH",
"69 88 LINE SMOOTH",
"65 62 OFFCURVE",
"46 48 OFFCURVE",
"10 48 CURVE SMOOTH",
"-21 48 LINE",
"-30 0 LINE"
);
},
{
closed = 1;
nodes = (
"506 240 LINE",
"555 482 LINE",
"518 482 LINE",
"505 440 OFFCURVE",
"490 395 OFFCURVE",
"447 395 CURVE SMOOTH",
"252 395 LINE",
"238 327 LINE",
"433 327 LINE SMOOTH",
"464 327 OFFCURVE",
"471 304 OFFCURVE",
"471 276 CURVE SMOOTH",
"471 264 OFFCURVE",
"470 252 OFFCURVE",
"469 240 CURVE"
);
},
{
closed = 1;
nodes = (
"630 823 LINE",
"538 962 LINE",
"534 969 OFFCURVE",
"510 1005 OFFCURVE",
"471 1005 CURVE SMOOTH",
"426 1005 OFFCURVE",
"404 974 OFFCURVE",
"398 950 CURVE",
"397 946 OFFCURVE",
"397 942 OFFCURVE",
"397 938 CURVE SMOOTH",
"397 914 OFFCURVE",
"413 894 OFFCURVE",
"441 874 CURVE SMOOTH",
"587 773 LINE"
);
}
);
width = 663;
}
);
note = Egrave;
unicode = 00C8;
},
{
glyphname = Ehookabove;
lastChange = "2015-12-01 14:00:37 +0000";
layers = (
{
layerId = "E6BC66B7-46A3-4CBE-A067-18EBCB5231B7";
name = "Bold Italic";
paths = (
{
closed = 1;
nodes = (
"573 0 LINE",
"636 203 LINE",
"589 203 LINE",
"562 128 OFFCURVE",
"529 68 OFFCURVE",
"458 68 CURVE SMOOTH",
"265 68 LINE",
"380 632 LINE",
"545 632 LINE SMOOTH",
"618 632 OFFCURVE",
"630 573 OFFCURVE",
"630 529 CURVE SMOOTH",
"630 516 OFFCURVE",
"629 504 OFFCURVE",
"628 496 CURVE",
"675 496 LINE",
"716 700 LINE",
"112 700 LINE",
"102 652 LINE",
"133 652 LINE SMOOTH",
"164 652 OFFCURVE",
"178 642 OFFCURVE",
"178 622 CURVE SMOOTH",
"178 619 OFFCURVE",
"178 616 OFFCURVE",
"177 612 CURVE SMOOTH",
"69 88 LINE SMOOTH",
"65 62 OFFCURVE",
"46 48 OFFCURVE",
"10 48 CURVE SMOOTH",
"-21 48 LINE",
"-30 0 LINE"
);
},
{
closed = 1;
nodes = (
"506 240 LINE",
"555 482 LINE",
"518 482 LINE",
"505 440 OFFCURVE",
"490 395 OFFCURVE",
"447 395 CURVE SMOOTH",
"252 395 LINE",
"238 327 LINE",
"433 327 LINE SMOOTH",
"464 327 OFFCURVE",
"471 304 OFFCURVE",
"471 276 CURVE SMOOTH",
"471 264 OFFCURVE",
"470 252 OFFCURVE",
"469 240 CURVE"
);
},
{
closed = 1;
nodes = (
"530 802 LINE",
"521 802 OFFCURVE",
"507 804 OFFCURVE",
"507 820 CURVE SMOOTH",
"507 822 OFFCURVE",
"507 825 OFFCURVE",
"508 828 CURVE SMOOTH",
"518 878 OFFCURVE",
"636 884 OFFCURVE",
"651 956 CURVE SMOOTH",
"652 961 OFFCURVE",
"652 965 OFFCURVE",
"652 970 CURVE SMOOTH",
"652 1014 OFFCURVE",
"604 1035 OFFCURVE",
"548 1035 CURVE SMOOTH",
"453 1035 OFFCURVE",
"420 991 OFFCURVE",
"415 968 CURVE SMOOTH",
"414 965 OFFCURVE",
"414 962 OFFCURVE",
"414 959 CURVE SMOOTH",
"414 938 OFFCURVE",
"428 929 OFFCURVE",
"445 929 CURVE SMOOTH",
"464 929 OFFCURVE",
"485 941 OFFCURVE",
"489 961 CURVE SMOOTH",
"495 992 OFFCURVE",
"522 999 OFFCURVE",
"538 999 CURVE SMOOTH",
"560 999 OFFCURVE",
"566 981 OFFCURVE",
"563 965 CURVE SMOOTH",
"548 898 OFFCURVE",
"452 885 OFFCURVE",
"441 830 CURVE SMOOTH",
"440 827 OFFCURVE",
"440 824 OFFCURVE",
"440 821 CURVE SMOOTH",
"440 791 OFFCURVE",
"476 775 OFFCURVE",
"517 775 CURVE"
);
}
);
width = 663;
}
);
note = Ehookabove;
unicode = 1EBA;
},
{
glyphname = Emacron;
lastChange = "2015-12-01 14:00:36 +0000";
layers = (
{
layerId = "E6BC66B7-46A3-4CBE-A067-18EBCB5231B7";
name = "Bold Italic";
paths = (
{
closed = 1;
nodes = (
"573 0 LINE",
"636 203 LINE",
"589 203 LINE",
"562 128 OFFCURVE",
"529 68 OFFCURVE",
"458 68 CURVE SMOOTH",
"265 68 LINE",
"380 632 LINE",
"545 632 LINE SMOOTH",
"618 632 OFFCURVE",
"630 573 OFFCURVE",
"630 529 CURVE SMOOTH",
"630 516 OFFCURVE",
"629 504 OFFCURVE",
"628 496 CURVE",
"675 496 LINE",
"716 700 LINE",
"112 700 LINE",
"102 652 LINE",
"133 652 LINE SMOOTH",
"164 652 OFFCURVE",
"178 642 OFFCURVE",
"178 622 CURVE SMOOTH",
"178 619 OFFCURVE",
"178 616 OFFCURVE",
"177 612 CURVE SMOOTH",
"69 88 LINE SMOOTH",
"65 62 OFFCURVE",
"46 48 OFFCURVE",
"10 48 CURVE SMOOTH",
"-21 48 LINE",
"-30 0 LINE"
);
},
{
closed = 1;
nodes = (
"506 240 LINE",
"555 482 LINE",
"518 482 LINE",
"505 440 OFFCURVE",
"490 395 OFFCURVE",
"447 395 CURVE SMOOTH",
"252 395 LINE",
"238 327 LINE",
"433 327 LINE SMOOTH",
"464 327 OFFCURVE",
"471 304 OFFCURVE",
"471 276 CURVE SMOOTH",
"471 264 OFFCURVE",
"470 252 OFFCURVE",
"469 240 CURVE"
);
},
{
closed = 1;
nodes = (
"696 775 LINE",
"712 850 LINE",
"300 850 LINE",
"284 775 LINE"
);
}
);
width = 663;
}
);
note = Emacron;
unicode = 0112;
},
{
glyphname = Eogonek;
lastChange = "2015-12-01 14:00:36 +0000";
layers = (
{
layerId = "E6BC66B7-46A3-4CBE-A067-18EBCB5231B7";
name = "Bold Italic";
paths = (
{
closed = 1;
nodes = (
"573 0 LINE",
"636 203 LINE",
"589 203 LINE",
"562 128 OFFCURVE",
"529 68 OFFCURVE",
"458 68 CURVE SMOOTH",
"265 68 LINE",
"380 632 LINE",
"545 632 LINE SMOOTH",
"618 632 OFFCURVE",
"630 573 OFFCURVE",
"630 529 CURVE SMOOTH",
"630 516 OFFCURVE",
"629 504 OFFCURVE",
"628 496 CURVE",
"675 496 LINE",
"716 700 LINE",
"112 700 LINE",
"102 652 LINE",
"133 652 LINE SMOOTH",
"164 652 OFFCURVE",
"178 642 OFFCURVE",
"178 622 CURVE SMOOTH",
"178 619 OFFCURVE",
"178 616 OFFCURVE",
"177 612 CURVE SMOOTH",
"69 88 LINE SMOOTH",
"65 62 OFFCURVE",
"46 48 OFFCURVE",
"10 48 CURVE SMOOTH",
"-21 48 LINE",
"-30 0 LINE"
);
},
{
closed = 1;
nodes = (
"466 -243 OFFCURVE",
"510 -229 OFFCURVE",
"554 -197 CURVE",
"545 -169 LINE",
"530 -177 OFFCURVE",
"508 -183 OFFCURVE",
"493 -183 CURVE SMOOTH",
"466 -183 OFFCURVE",
"447 -168 OFFCURVE",
"447 -137 CURVE SMOOTH",
"447 -132 OFFCURVE",
"448 -126 OFFCURVE",
"449 -120 CURVE SMOOTH",
"457 -79 OFFCURVE",
"487 -33 OFFCURVE",
"549 13 CURVE",
"486 13 LINE",
"405 -27 OFFCURVE",
"332 -93 OFFCURVE",
"332 -162 CURVE SMOOTH",
"332 -199 OFFCURVE",
"351 -243 OFFCURVE",
"435 -243 CURVE SMOOTH"
);
},
{
closed = 1;
nodes = (
"506 240 LINE",
"555 482 LINE",
"518 482 LINE",
"505 440 OFFCURVE",
"490 395 OFFCURVE",
"447 395 CURVE SMOOTH",
"252 395 LINE",
"238 327 LINE",
"433 327 LINE SMOOTH",
"464 327 OFFCURVE",
"471 304 OFFCURVE",
"471 276 CURVE SMOOTH",
"471 264 OFFCURVE",
"470 252 OFFCURVE",
"469 240 CURVE"
);
}
);
width = 663;
}
);
note = Eogonek;
unicode = 0118;
},
{
glyphname = Etilde;
lastChange = "2015-12-01 14:00:35 +0000";
layers = (
{
layerId = "E6BC66B7-46A3-4CBE-A067-18EBCB5231B7";
name = "Bold Italic";
paths = (
{
closed = 1;
nodes = (
"573 0 LINE",
"636 203 LINE",
"589 203 LINE",
"562 128 OFFCURVE",
"529 68 OFFCURVE",
"458 68 CURVE SMOOTH",
"265 68 LINE",
"380 632 LINE",
"545 632 LINE SMOOTH",
"618 632 OFFCURVE",
"630 573 OFFCURVE",
"630 529 CURVE SMOOTH",
"630 516 OFFCURVE",
"629 504 OFFCURVE",
"628 496 CURVE",
"675 496 LINE",
"716 700 LINE",
"112 700 LINE",
"102 652 LINE",
"133 652 LINE SMOOTH",
"164 652 OFFCURVE",
"178 642 OFFCURVE",
"178 622 CURVE SMOOTH",
"178 619 OFFCURVE",
"178 616 OFFCURVE",
"177 612 CURVE SMOOTH",
"69 88 LINE SMOOTH",
"65 62 OFFCURVE",
"46 48 OFFCURVE",
"10 48 CURVE SMOOTH",
"-21 48 LINE",
"-30 0 LINE"
);
},
{
closed = 1;
nodes = (
"506 240 LINE",
"555 482 LINE",
"518 482 LINE",
"505 440 OFFCURVE",
"490 395 OFFCURVE",
"447 395 CURVE SMOOTH",
"252 395 LINE",
"238 327 LINE",
"433 327 LINE SMOOTH",
"464 327 OFFCURVE",
"471 304 OFFCURVE",
"471 276 CURVE SMOOTH",
"471 264 OFFCURVE",
"470 252 OFFCURVE",
"469 240 CURVE"
);
},
{
closed = 1;
nodes = (
"338 810 OFFCURVE",
"356 827 OFFCURVE",
"394 827 CURVE SMOOTH",
"458 827 OFFCURVE",
"506 783 OFFCURVE",
"568 783 CURVE SMOOTH",
"649 783 OFFCURVE",
"701 866 OFFCURVE",
"727 910 CURVE",
"699 929 LINE",
"668 888 OFFCURVE",
"651 872 OFFCURVE",
"614 872 CURVE SMOOTH",
"549 872 OFFCURVE",
"502 916 OFFCURVE",
"440 916 CURVE SMOOTH",
"358 916 OFFCURVE",
"307 833 OFFCURVE",
"279 789 CURVE",
"308 770 LINE"
);
}
);
width = 663;
}
);
note = Etilde;
unicode = 1EBC;
},
{
glyphname = F;
lastChange = "2015-12-01 14:00:35 +0000";
layers = (
{
layerId = "E6BC66B7-46A3-4CBE-A067-18EBCB5231B7";
name = "Bold Italic";
paths = (
{
closed = 1;
nodes = (
"335 0 LINE",
"345 48 LINE",
"314 48 LINE SMOOTH",
"283 48 OFFCURVE",
"269 58 OFFCURVE",
"269 78 CURVE SMOOTH",
"269 81 OFFCURVE",
"269 84 OFFCURVE",
"270 88 CURVE SMOOTH",
"381 632 LINE",
"546 632 LINE SMOOTH",
"619 632 OFFCURVE",
"631 573 OFFCURVE",
"631 529 CURVE SMOOTH",
"631 516 OFFCURVE",
"630 504 OFFCURVE",
"629 496 CURVE",
"676 496 LINE",
"717 700 LINE",
"113 700 LINE",
"103 652 LINE",
"134 652 LINE SMOOTH",
"165 652 OFFCURVE",
"179 642 OFFCURVE",
"179 622 CURVE SMOOTH",
"179 619 OFFCURVE",
"179 616 OFFCURVE",
"178 612 CURVE SMOOTH",
"70 88 LINE SMOOTH",
"66 62 OFFCURVE",
"47 48 OFFCURVE",
"11 48 CURVE SMOOTH",
"-20 48 LINE",
"-29 0 LINE"
);
},
{
closed = 1;
nodes = (
"501 203 LINE",
"550 445 LINE",
"513 445 LINE",
"500 403 OFFCURVE",
"486 358 OFFCURVE",
"443 358 CURVE SMOOTH",
"248 358 LINE",
"234 290 LINE",
"428 290 LINE SMOOTH",
"459 290 OFFCURVE",
"467 267 OFFCURVE",
"467 239 CURVE SMOOTH",
"467 228 OFFCURVE",
"465 215 OFFCURVE",
"464 203 CURVE"
);
}
);
width = 659;
}
);
note = F;
unicode = 0046;
},
{
glyphname = G;
lastChange = "2015-12-01 14:00:31 +0000";
layers = (
{
layerId = "E6BC66B7-46A3-4CBE-A067-18EBCB5231B7";
name = "Bold Italic";
paths = (
{
closed = 1;
nodes = (
"444 -10 OFFCURVE",
"535 -3 OFFCURVE",
"661 64 CURVE",
"704 276 LINE SMOOTH",
"709 297 OFFCURVE",
"729 317 OFFCURVE",
"760 317 CURVE SMOOTH",
"778 317 LINE",
"784 348 LINE",
"452 348 LINE",
"444 309 LINE",
"460 309 LINE SMOOTH",
"500 309 OFFCURVE",
"509 290 OFFCURVE",
"509 272 CURVE SMOOTH",
"509 268 OFFCURVE",
"509 264 OFFCURVE",
"508 260 CURVE SMOOTH",
"470 72 LINE",
"441 64 OFFCURVE",
"411 61 OFFCURVE",
"383 61 CURVE SMOOTH",
"296 61 OFFCURVE",
"250 122 OFFCURVE",
"250 233 CURVE SMOOTH",
"250 267 OFFCURVE",
"255 306 OFFCURVE",
"263 350 CURVE SMOOTH",
"301 534 OFFCURVE",
"406 639 OFFCURVE",
"524 639 CURVE SMOOTH",
"599 639 OFFCURVE",
"689 604 OFFCURVE",
"680 486 CURVE",
"735 486 LINE",
"779 705 LINE",
"716 705 LINE",
"708 659 LINE",
"706 653 OFFCURVE",
"702 651 OFFCURVE",
"698 651 CURVE SMOOTH",
"694 651 OFFCURVE",
"691 653 OFFCURVE",
"691 654 CURVE",
"653 682 OFFCURVE",
"589 710 OFFCURVE",
"491 710 CURVE SMOOTH",
"253 710 OFFCURVE",
"104 562 OFFCURVE",
"61 350 CURVE SMOOTH",
"53 315 OFFCURVE",
"50 281 OFFCURVE",
"50 250 CURVE SMOOTH",
"50 93 OFFCURVE",
"141 -10 OFFCURVE",
"345 -10 CURVE SMOOTH"
);
}
);
width = 759;
}
);
leftKerningGroup = G;
note = G;
unicode = 0047;
},
{
glyphname = Gbreve;
lastChange = "2015-12-01 14:00:36 +0000";
layers = (
{
layerId = "E6BC66B7-46A3-4CBE-A067-18EBCB5231B7";
name = "Bold Italic";
paths = (
{
closed = 1;
nodes = (
"444 -10 OFFCURVE",
"535 -3 OFFCURVE",
"661 64 CURVE",
"704 276 LINE SMOOTH",
"709 297 OFFCURVE",
"729 317 OFFCURVE",
"760 317 CURVE SMOOTH",
"778 317 LINE",
"784 348 LINE",
"452 348 LINE",
"444 309 LINE",
"460 309 LINE SMOOTH",
"500 309 OFFCURVE",
"509 290 OFFCURVE",
"509 272 CURVE SMOOTH",
"509 268 OFFCURVE",
"509 264 OFFCURVE",
"508 260 CURVE SMOOTH",
"470 72 LINE",
"441 64 OFFCURVE",
"411 61 OFFCURVE",
"383 61 CURVE SMOOTH",
"296 61 OFFCURVE",
"250 122 OFFCURVE",
"250 233 CURVE SMOOTH",
"250 267 OFFCURVE",
"255 306 OFFCURVE",
"263 350 CURVE SMOOTH",
"301 534 OFFCURVE",
"406 639 OFFCURVE",
"524 639 CURVE SMOOTH",
"599 639 OFFCURVE",
"689 604 OFFCURVE",
"680 486 CURVE",
"735 486 LINE",
"779 705 LINE",
"716 705 LINE",
"708 659 LINE",
"706 653 OFFCURVE",
"702 651 OFFCURVE",
"698 651 CURVE SMOOTH",
"694 651 OFFCURVE",
"691 653 OFFCURVE",
"691 654 CURVE",
"653 682 OFFCURVE",
"589 710 OFFCURVE",
"491 710 CURVE SMOOTH",
"253 710 OFFCURVE",
"104 562 OFFCURVE",
"61 350 CURVE SMOOTH",
"53 315 OFFCURVE",
"50 281 OFFCURVE",
"50 250 CURVE SMOOTH",
"50 93 OFFCURVE",
"141 -10 OFFCURVE",
"345 -10 CURVE SMOOTH"
);
},
{
closed = 1;
nodes = (
"657 777 OFFCURVE",
"699 867 OFFCURVE",
"714 937 CURVE",
"669 937 LINE",
"663 913 OFFCURVE",
"632 860 OFFCURVE",
"530 860 CURVE SMOOTH",
"428 860 OFFCURVE",
"421 913 OFFCURVE",
"424 937 CURVE",
"381 937 LINE",
"378 920 OFFCURVE",
"376 903 OFFCURVE",
"376 886 CURVE SMOOTH",
"376 828 OFFCURVE",
"404 777 OFFCURVE",
"515 777 CURVE SMOOTH"
);
}
);
width = 759;
}
);
leftKerningGroup = G;
note = Gbreve;
unicode = 011E;
},
{
glyphname = Gcaron;
lastChange = "2015-12-01 14:00:36 +0000";
layers = (
{
layerId = "E6BC66B7-46A3-4CBE-A067-18EBCB5231B7";
name = "Bold Italic";
paths = (
{
closed = 1;
nodes = (
"444 -10 OFFCURVE",
"535 -3 OFFCURVE",
"661 64 CURVE",
"704 276 LINE SMOOTH",
"709 297 OFFCURVE",
"729 317 OFFCURVE",
"760 317 CURVE SMOOTH",
"778 317 LINE",
"784 348 LINE",
"452 348 LINE",
"444 309 LINE",
"460 309 LINE SMOOTH",
"500 309 OFFCURVE",
"509 290 OFFCURVE",
"509 272 CURVE SMOOTH",
"509 268 OFFCURVE",
"509 264 OFFCURVE",
"508 260 CURVE SMOOTH",
"470 72 LINE",
"441 64 OFFCURVE",
"411 61 OFFCURVE",
"383 61 CURVE SMOOTH",
"296 61 OFFCURVE",
"250 122 OFFCURVE",
"250 233 CURVE SMOOTH",
"250 267 OFFCURVE",
"255 306 OFFCURVE",
"263 350 CURVE SMOOTH",
"301 534 OFFCURVE",
"406 639 OFFCURVE",
"524 639 CURVE SMOOTH",
"599 639 OFFCURVE",
"689 604 OFFCURVE",
"680 486 CURVE",
"735 486 LINE",
"779 705 LINE",
"716 705 LINE",
"708 659 LINE",
"706 653 OFFCURVE",
"702 651 OFFCURVE",
"698 651 CURVE SMOOTH",
"694 651 OFFCURVE",
"691 653 OFFCURVE",
"691 654 CURVE",
"653 682 OFFCURVE",
"589 710 OFFCURVE",
"491 710 CURVE SMOOTH",
"253 710 OFFCURVE",
"104 562 OFFCURVE",
"61 350 CURVE SMOOTH",
"53 315 OFFCURVE",
"50 281 OFFCURVE",
"50 250 CURVE SMOOTH",
"50 93 OFFCURVE",
"141 -10 OFFCURVE",
"345 -10 CURVE SMOOTH"
);
},
{
closed = 1;
nodes = (
"579 775 LINE",
"774 960 LINE",
"754 990 LINE",
"596 887 LINE SMOOTH",
"578 875 OFFCURVE",
"562 866 OFFCURVE",
"550 866 CURVE SMOOTH",
"540 866 OFFCURVE",
"526 875 OFFCURVE",
"512 887 CURVE",
"398 990 LINE",
"366 960 LINE",
"483 775 LINE"
);
}
);
width = 759;
}
);
leftKerningGroup = G;
note = Gcaron;
unicode = 01E6;
},
{
glyphname = Gcircumflex;
lastChange = "2015-12-01 14:00:36 +0000";
layers = (
{
layerId = "E6BC66B7-46A3-4CBE-A067-18EBCB5231B7";
name = "Bold Italic";
paths = (
{
closed = 1;
nodes = (
"444 -10 OFFCURVE",
"535 -3 OFFCURVE",
"661 64 CURVE",
"704 276 LINE SMOOTH",
"709 297 OFFCURVE",
"729 317 OFFCURVE",
"760 317 CURVE SMOOTH",
"778 317 LINE",
"784 348 LINE",
"452 348 LINE",
"444 309 LINE",
"460 309 LINE SMOOTH",
"500 309 OFFCURVE",
"509 290 OFFCURVE",
"509 272 CURVE SMOOTH",
"509 268 OFFCURVE",
"509 264 OFFCURVE",
"508 260 CURVE SMOOTH",
"470 72 LINE",
"441 64 OFFCURVE",
"411 61 OFFCURVE",
"383 61 CURVE SMOOTH",
"296 61 OFFCURVE",
"250 122 OFFCURVE",
"250 233 CURVE SMOOTH",
"250 267 OFFCURVE",
"255 306 OFFCURVE",
"263 350 CURVE SMOOTH",
"301 534 OFFCURVE",
"406 639 OFFCURVE",
"524 639 CURVE SMOOTH",
"599 639 OFFCURVE",
"689 604 OFFCURVE",
"680 486 CURVE",
"735 486 LINE",
"779 705 LINE",
"716 705 LINE",
"708 659 LINE",
"706 653 OFFCURVE",
"702 651 OFFCURVE",
"698 651 CURVE SMOOTH",
"694 651 OFFCURVE",
"691 653 OFFCURVE",
"691 654 CURVE",
"653 682 OFFCURVE",
"589 710 OFFCURVE",
"491 710 CURVE SMOOTH",
"253 710 OFFCURVE",
"104 562 OFFCURVE",
"61 350 CURVE SMOOTH",
"53 315 OFFCURVE",
"50 281 OFFCURVE",
"50 250 CURVE SMOOTH",
"50 93 OFFCURVE",
"141 -10 OFFCURVE",
"345 -10 CURVE SMOOTH"
);
},
{
closed = 1;
nodes = (
"505 878 LINE SMOOTH",
"524 890 OFFCURVE",
"542 899 OFFCURVE",
"552 899 CURVE SMOOTH",
"564 899 OFFCURVE",
"576 890 OFFCURVE",
"590 878 CURVE SMOOTH",
"705 775 LINE",
"738 805 LINE",
"619 990 LINE",
"523 990 LINE",
"330 805 LINE",
"349 775 LINE"
);
}
);
width = 759;
}
);
leftKerningGroup = G;
note = Gcircumflex;
unicode = 011C;
},
{
glyphname = Gcommaaccent;
lastChange = "2015-12-01 14:00:35 +0000";
layers = (
{
layerId = "E6BC66B7-46A3-4CBE-A067-18EBCB5231B7";
name = "Bold Italic";
paths = (
{
closed = 1;
nodes = (
"444 -10 OFFCURVE",
"535 -3 OFFCURVE",
"661 64 CURVE",
"704 276 LINE SMOOTH",
"709 297 OFFCURVE",
"729 317 OFFCURVE",
"760 317 CURVE SMOOTH",
"778 317 LINE",
"784 348 LINE",
"452 348 LINE",
"444 309 LINE",
"460 309 LINE SMOOTH",
"500 309 OFFCURVE",
"509 290 OFFCURVE",
"509 272 CURVE SMOOTH",
"509 268 OFFCURVE",
"509 264 OFFCURVE",
"508 260 CURVE SMOOTH",
"470 72 LINE",
"441 64 OFFCURVE",
"411 61 OFFCURVE",
"383 61 CURVE SMOOTH",
"296 61 OFFCURVE",
"250 122 OFFCURVE",
"250 233 CURVE SMOOTH",
"250 267 OFFCURVE",
"255 306 OFFCURVE",
"263 350 CURVE SMOOTH",
"301 534 OFFCURVE",
"406 639 OFFCURVE",
"524 639 CURVE SMOOTH",
"599 639 OFFCURVE",
"689 604 OFFCURVE",
"680 486 CURVE",
"735 486 LINE",
"779 705 LINE",
"716 705 LINE",
"708 659 LINE",
"706 653 OFFCURVE",
"702 651 OFFCURVE",
"698 651 CURVE SMOOTH",
"694 651 OFFCURVE",
"691 653 OFFCURVE",
"691 654 CURVE",
"653 682 OFFCURVE",
"589 710 OFFCURVE",
"491 710 CURVE SMOOTH",
"253 710 OFFCURVE",
"104 562 OFFCURVE",
"61 350 CURVE SMOOTH",
"53 315 OFFCURVE",
"50 281 OFFCURVE",
"50 250 CURVE SMOOTH",
"50 93 OFFCURVE",
"141 -10 OFFCURVE",
"345 -10 CURVE SMOOTH"
);
},
{
closed = 1;
nodes = (
"297 -364 OFFCURVE",
"397 -275 OFFCURVE",
"415 -187 CURVE SMOOTH",
"417 -176 OFFCURVE",
"418 -165 OFFCURVE",
"418 -156 CURVE SMOOTH",
"418 -106 OFFCURVE",
"391 -77 OFFCURVE",
"349 -77 CURVE SMOOTH",
"296 -77 OFFCURVE",
"258 -118 OFFCURVE",
"258 -158 CURVE SMOOTH",
"258 -191 OFFCURVE",
"283 -210 OFFCURVE",
"283 -243 CURVE SMOOTH",
"283 -247 OFFCURVE",
"282 -252 OFFCURVE",
"281 -257 CURVE SMOOTH",
"271 -303 OFFCURVE",
"238 -344 OFFCURVE",
"197 -381 CURVE",
"221 -409 LINE"
);
}
);
width = 759;
}
);
leftKerningGroup = G;
note = Gcommaaccent;
unicode = 0122;
},
{
glyphname = Gdotaccent;
lastChange = "2015-12-01 14:00:37 +0000";
layers = (
{
layerId = "E6BC66B7-46A3-4CBE-A067-18EBCB5231B7";
name = "Bold Italic";
paths = (
{
closed = 1;
nodes = (
"444 -10 OFFCURVE",
"535 -3 OFFCURVE",
"661 64 CURVE",
"704 276 LINE SMOOTH",
"709 297 OFFCURVE",
"729 317 OFFCURVE",
"760 317 CURVE SMOOTH",
"778 317 LINE",
"784 348 LINE",
"452 348 LINE",
"444 309 LINE",
"460 309 LINE SMOOTH",
"500 309 OFFCURVE",
"509 290 OFFCURVE",
"509 272 CURVE SMOOTH",
"509 268 OFFCURVE",
"509 264 OFFCURVE",
"508 260 CURVE SMOOTH",
"470 72 LINE",
"441 64 OFFCURVE",
"411 61 OFFCURVE",
"383 61 CURVE SMOOTH",
"296 61 OFFCURVE",
"250 122 OFFCURVE",
"250 233 CURVE SMOOTH",
"250 267 OFFCURVE",
"255 306 OFFCURVE",
"263 350 CURVE SMOOTH",
"301 534 OFFCURVE",
"406 639 OFFCURVE",
"524 639 CURVE SMOOTH",
"599 639 OFFCURVE",
"689 604 OFFCURVE",
"680 486 CURVE",
"735 486 LINE",
"779 705 LINE",
"716 705 LINE",
"708 659 LINE",
"706 653 OFFCURVE",
"702 651 OFFCURVE",
"698 651 CURVE SMOOTH",
"694 651 OFFCURVE",
"691 653 OFFCURVE",
"691 654 CURVE",
"653 682 OFFCURVE",
"589 710 OFFCURVE",
"491 710 CURVE SMOOTH",
"253 710 OFFCURVE",
"104 562 OFFCURVE",
"61 350 CURVE SMOOTH",
"53 315 OFFCURVE",
"50 281 OFFCURVE",
"50 250 CURVE SMOOTH",
"50 93 OFFCURVE",
"141 -10 OFFCURVE",
"345 -10 CURVE SMOOTH"
);
},
{
closed = 1;
nodes = (
"584 775 OFFCURVE",
"623 818 OFFCURVE",
"623 868 CURVE SMOOTH",
"623 901 OFFCURVE",
"602 926 OFFCURVE",
"564 926 CURVE SMOOTH",
"512 926 OFFCURVE",
"475 882 OFFCURVE",
"475 832 CURVE SMOOTH",
"475 799 OFFCURVE",
"495 775 OFFCURVE",
"533 775 CURVE SMOOTH"
);
}
);
width = 759;
}
);
leftKerningGroup = G;
note = Gdotaccent;
unicode = 0120;
},
{
glyphname = Gmacron;
lastChange = "2015-12-01 14:00:35 +0000";
layers = (
{
layerId = "E6BC66B7-46A3-4CBE-A067-18EBCB5231B7";
name = "Bold Italic";
paths = (
{
closed = 1;
nodes = (
"444 -10 OFFCURVE",
"535 -3 OFFCURVE",
"661 64 CURVE",
"704 276 LINE SMOOTH",
"709 297 OFFCURVE",
"729 317 OFFCURVE",
"760 317 CURVE SMOOTH",
"778 317 LINE",
"784 348 LINE",
"452 348 LINE",
"444 309 LINE",
"460 309 LINE SMOOTH",
"500 309 OFFCURVE",
"509 290 OFFCURVE",
"509 272 CURVE SMOOTH",
"509 268 OFFCURVE",
"509 264 OFFCURVE",
"508 260 CURVE SMOOTH",
"470 72 LINE",
"441 64 OFFCURVE",
"411 61 OFFCURVE",
"383 61 CURVE SMOOTH",
"296 61 OFFCURVE",
"250 122 OFFCURVE",
"250 233 CURVE SMOOTH",
"250 267 OFFCURVE",
"255 306 OFFCURVE",
"263 350 CURVE SMOOTH",
"301 534 OFFCURVE",
"406 639 OFFCURVE",
"524 639 CURVE SMOOTH",
"599 639 OFFCURVE",
"689 604 OFFCURVE",
"680 486 CURVE",
"735 486 LINE",
"779 705 LINE",
"716 705 LINE",
"708 659 LINE",
"706 653 OFFCURVE",
"702 651 OFFCURVE",
"698 651 CURVE SMOOTH",
"694 651 OFFCURVE",
"691 653 OFFCURVE",
"691 654 CURVE",
"653 682 OFFCURVE",
"589 710 OFFCURVE",
"491 710 CURVE SMOOTH",
"253 710 OFFCURVE",
"104 562 OFFCURVE",
"61 350 CURVE SMOOTH",
"53 315 OFFCURVE",
"50 281 OFFCURVE",
"50 250 CURVE SMOOTH",
"50 93 OFFCURVE",
"141 -10 OFFCURVE",
"345 -10 CURVE SMOOTH"
);
},
{
closed = 1;
nodes = (
"708 803 LINE",
"723 878 LINE",
"311 878 LINE",
"296 803 LINE"
);
}
);
width = 759;
}
);
leftKerningGroup = G;
note = Gmacron;
unicode = 1E20;
},
{
glyphname = H;
lastChange = "2015-12-01 14:00:35 +0000";
layers = (
{
layerId = "E6BC66B7-46A3-4CBE-A067-18EBCB5231B7";
name = "Bold Italic";
paths = (
{
closed = 1;
nodes = (
"774 0 LINE",
"784 48 LINE",
"753 48 LINE SMOOTH",
"721 48 OFFCURVE",
"708 58 OFFCURVE",
"708 78 CURVE SMOOTH",
"708 81 OFFCURVE",
"708 84 OFFCURVE",
"709 88 CURVE SMOOTH",
"816 612 LINE SMOOTH",
"821 638 OFFCURVE",
"839 652 OFFCURVE",
"876 652 CURVE SMOOTH",
"907 652 LINE",
"916 700 LINE",
"551 700 LINE",
"542 652 LINE",
"572 652 LINE SMOOTH",
"604 652 OFFCURVE",
"618 642 OFFCURVE",
"618 622 CURVE SMOOTH",
"618 619 OFFCURVE",
"618 616 OFFCURVE",
"617 612 CURVE SMOOTH",
"509 88 LINE SMOOTH",
"504 62 OFFCURVE",
"486 48 OFFCURVE",
"450 48 CURVE SMOOTH",
"419 48 LINE",
"409 0 LINE"
);
},
{
closed = 1;
nodes = (
"334 0 LINE",
"344 48 LINE",
"313 48 LINE SMOOTH",
"282 48 OFFCURVE",
"268 58 OFFCURVE",
"268 78 CURVE SMOOTH",
"268 81 OFFCURVE",
"268 84 OFFCURVE",
"269 88 CURVE SMOOTH",
"377 612 LINE SMOOTH",
"381 638 OFFCURVE",
"400 652 OFFCURVE",
"436 652 CURVE SMOOTH",
"467 652 LINE",
"476 700 LINE",
"112 700 LINE",
"102 652 LINE",
"133 652 LINE SMOOTH",
"164 652 OFFCURVE",
"178 642 OFFCURVE",
"178 622 CURVE SMOOTH",
"178 619 OFFCURVE",
"178 616 OFFCURVE",
"177 612 CURVE SMOOTH",
"69 88 LINE SMOOTH",
"65 62 OFFCURVE",
"46 48 OFFCURVE",
"10 48 CURVE SMOOTH",
"-21 48 LINE",
"-30 0 LINE"
);
},
{
closed = 1;
nodes = (
"643 321 LINE",
"656 389 LINE",
"232 389 LINE",
"218 321 LINE"
);
}
);
width = 824;
}
);
note = H;
unicode = 0048;
},
{
glyphname = Hbar;
lastChange = "2015-12-01 14:00:37 +0000";
layers = (
{
layerId = "E6BC66B7-46A3-4CBE-A067-18EBCB5231B7";
name = "Bold Italic";
paths = (
{
closed = 1;
nodes = (
"774 0 LINE",
"784 48 LINE",
"753 48 LINE SMOOTH",
"721 48 OFFCURVE",
"708 58 OFFCURVE",
"708 78 CURVE SMOOTH",
"708 81 OFFCURVE",
"708 84 OFFCURVE",
"709 88 CURVE SMOOTH",
"816 612 LINE SMOOTH",
"821 638 OFFCURVE",
"839 652 OFFCURVE",
"876 652 CURVE SMOOTH",
"907 652 LINE",
"916 700 LINE",
"551 700 LINE",
"542 652 LINE",
"572 652 LINE SMOOTH",
"604 652 OFFCURVE",
"618 642 OFFCURVE",
"618 622 CURVE SMOOTH",
"618 619 OFFCURVE",
"618 616 OFFCURVE",
"617 612 CURVE SMOOTH",
"509 88 LINE SMOOTH",
"504 62 OFFCURVE",
"486 48 OFFCURVE",
"450 48 CURVE SMOOTH",
"419 48 LINE",
"409 0 LINE"
);
},
{
closed = 1;
nodes = (
"334 0 LINE",
"344 48 LINE",
"313 48 LINE SMOOTH",
"282 48 OFFCURVE",
"268 58 OFFCURVE",
"268 78 CURVE SMOOTH",
"268 81 OFFCURVE",
"268 84 OFFCURVE",
"269 88 CURVE SMOOTH",
"377 612 LINE SMOOTH",
"381 638 OFFCURVE",
"400 652 OFFCURVE",
"436 652 CURVE SMOOTH",
"467 652 LINE",
"476 700 LINE",
"112 700 LINE",
"102 652 LINE",
"133 652 LINE SMOOTH",
"164 652 OFFCURVE",
"178 642 OFFCURVE",
"178 622 CURVE SMOOTH",
"178 619 OFFCURVE",
"178 616 OFFCURVE",
"177 612 CURVE SMOOTH",
"69 88 LINE SMOOTH",
"65 62 OFFCURVE",
"46 48 OFFCURVE",
"10 48 CURVE SMOOTH",
"-21 48 LINE",
"-30 0 LINE"
);
},
{
closed = 1;
nodes = (
"643 321 LINE",
"656 389 LINE",
"232 389 LINE",
"218 321 LINE"
);
},
{
closed = 1;
nodes = (
"849 480 LINE",
"862 548 LINE",
"104 548 LINE",
"91 480 LINE"
);
}
);
width = 824;
}
);
note = Hbar;
unicode = 0126;
},
{
glyphname = Hbrevebelow;
lastChange = "2015-12-01 14:00:35 +0000";
layers = (
{
layerId = "E6BC66B7-46A3-4CBE-A067-18EBCB5231B7";
name = "Bold Italic";
paths = (
{
closed = 1;
nodes = (
"774 0 LINE",
"784 48 LINE",
"753 48 LINE SMOOTH",
"721 48 OFFCURVE",
"708 58 OFFCURVE",
"708 78 CURVE SMOOTH",
"708 81 OFFCURVE",
"708 84 OFFCURVE",
"709 88 CURVE SMOOTH",
"816 612 LINE SMOOTH",
"821 638 OFFCURVE",
"839 652 OFFCURVE",
"876 652 CURVE SMOOTH",
"907 652 LINE",
"916 700 LINE",
"551 700 LINE",
"542 652 LINE",
"572 652 LINE SMOOTH",
"604 652 OFFCURVE",
"618 642 OFFCURVE",
"618 622 CURVE SMOOTH",
"618 619 OFFCURVE",
"618 616 OFFCURVE",
"617 612 CURVE SMOOTH",
"509 88 LINE SMOOTH",
"504 62 OFFCURVE",
"486 48 OFFCURVE",
"450 48 CURVE SMOOTH",
"419 48 LINE",
"409 0 LINE"
);
},
{
closed = 1;
nodes = (
"465 -213 OFFCURVE",
"507 -123 OFFCURVE",
"522 -53 CURVE",
"477 -53 LINE",
"471 -77 OFFCURVE",
"441 -130 OFFCURVE",
"340 -130 CURVE SMOOTH",
"238 -130 OFFCURVE",
"230 -77 OFFCURVE",
"233 -53 CURVE",
"189 -53 LINE",
"186 -70 OFFCURVE",
"184 -87 OFFCURVE",
"184 -104 CURVE SMOOTH",
"184 -162 OFFCURVE",
"212 -213 OFFCURVE",
"324 -213 CURVE SMOOTH"
);
},
{
closed = 1;
nodes = (
"334 0 LINE",
"344 48 LINE",
"313 48 LINE SMOOTH",
"282 48 OFFCURVE",
"268 58 OFFCURVE",
"268 78 CURVE SMOOTH",
"268 81 OFFCURVE",
"268 84 OFFCURVE",
"269 88 CURVE SMOOTH",
"377 612 LINE SMOOTH",
"381 638 OFFCURVE",
"400 652 OFFCURVE",
"436 652 CURVE SMOOTH",
"467 652 LINE",
"476 700 LINE",
"112 700 LINE",
"102 652 LINE",
"133 652 LINE SMOOTH",
"164 652 OFFCURVE",
"178 642 OFFCURVE",
"178 622 CURVE SMOOTH",
"178 619 OFFCURVE",
"178 616 OFFCURVE",
"177 612 CURVE SMOOTH",
"69 88 LINE SMOOTH",
"65 62 OFFCURVE",
"46 48 OFFCURVE",
"10 48 CURVE SMOOTH",
"-21 48 LINE",
"-30 0 LINE"
);
},
{
closed = 1;
nodes = (
"643 321 LINE",
"656 389 LINE",
"232 389 LINE",
"218 321 LINE"
);
}
);
width = 824;
}
);
note = Hbrevebelow;
unicode = 1E2A;
},
{
glyphname = Hcircumflex;
lastChange = "2015-12-01 14:00:37 +0000";
layers = (
{
layerId = "E6BC66B7-46A3-4CBE-A067-18EBCB5231B7";
name = "Bold Italic";
paths = (
{
closed = 1;
nodes = (
"774 0 LINE",
"784 48 LINE",
"753 48 LINE SMOOTH",
"721 48 OFFCURVE",
"708 58 OFFCURVE",
"708 78 CURVE SMOOTH",
"708 81 OFFCURVE",
"708 84 OFFCURVE",
"709 88 CURVE SMOOTH",
"816 612 LINE SMOOTH",
"821 638 OFFCURVE",
"839 652 OFFCURVE",
"876 652 CURVE SMOOTH",
"907 652 LINE",
"916 700 LINE",
"551 700 LINE",
"542 652 LINE",
"572 652 LINE SMOOTH",
"604 652 OFFCURVE",
"618 642 OFFCURVE",
"618 622 CURVE SMOOTH",
"618 619 OFFCURVE",
"618 616 OFFCURVE",
"617 612 CURVE SMOOTH",
"509 88 LINE SMOOTH",
"504 62 OFFCURVE",
"486 48 OFFCURVE",
"450 48 CURVE SMOOTH",
"419 48 LINE",
"409 0 LINE"
);
},
{
closed = 1;
nodes = (
"334 0 LINE",
"344 48 LINE",
"313 48 LINE SMOOTH",
"282 48 OFFCURVE",
"268 58 OFFCURVE",
"268 78 CURVE SMOOTH",
"268 81 OFFCURVE",
"268 84 OFFCURVE",
"269 88 CURVE SMOOTH",
"377 612 LINE SMOOTH",
"381 638 OFFCURVE",
"400 652 OFFCURVE",
"436 652 CURVE SMOOTH",
"467 652 LINE",
"476 700 LINE",
"112 700 LINE",
"102 652 LINE",
"133 652 LINE SMOOTH",
"164 652 OFFCURVE",
"178 642 OFFCURVE",
"178 622 CURVE SMOOTH",
"178 619 OFFCURVE",
"178 616 OFFCURVE",
"177 612 CURVE SMOOTH",
"69 88 LINE SMOOTH",
"65 62 OFFCURVE",
"46 48 OFFCURVE",
"10 48 CURVE SMOOTH",
"-21 48 LINE",
"-30 0 LINE"
);
},
{
closed = 1;
nodes = (
"643 321 LINE",
"656 389 LINE",
"232 389 LINE",
"218 321 LINE"
);
},
{
closed = 1;
nodes = (
"507 878 LINE SMOOTH",
"526 890 OFFCURVE",
"544 899 OFFCURVE",
"554 899 CURVE SMOOTH",
"566 899 OFFCURVE",
"578 890 OFFCURVE",
"592 878 CURVE SMOOTH",
"707 775 LINE",
"740 805 LINE",
"620 990 LINE",
"524 990 LINE",
"332 805 LINE",
"351 775 LINE"
);
}
);
width = 824;
}
);
note = Hcircumflex;
unicode = 0124;
},
{
glyphname = Hdotbelow;
lastChange = "2015-12-01 14:00:37 +0000";
layers = (
{
layerId = "E6BC66B7-46A3-4CBE-A067-18EBCB5231B7";
name = "Bold Italic";
paths = (
{
closed = 1;
nodes = (
"774 0 LINE",
"784 48 LINE",
"753 48 LINE SMOOTH",
"721 48 OFFCURVE",
"708 58 OFFCURVE",
"708 78 CURVE SMOOTH",
"708 81 OFFCURVE",
"708 84 OFFCURVE",
"709 88 CURVE SMOOTH",
"816 612 LINE SMOOTH",
"821 638 OFFCURVE",
"839 652 OFFCURVE",
"876 652 CURVE SMOOTH",
"907 652 LINE",
"916 700 LINE",
"551 700 LINE",
"542 652 LINE",
"572 652 LINE SMOOTH",
"604 652 OFFCURVE",
"618 642 OFFCURVE",
"618 622 CURVE SMOOTH",
"618 619 OFFCURVE",
"618 616 OFFCURVE",
"617 612 CURVE SMOOTH",
"509 88 LINE SMOOTH",
"504 62 OFFCURVE",
"486 48 OFFCURVE",
"450 48 CURVE SMOOTH",
"419 48 LINE",
"409 0 LINE"
);
},
{
closed = 1;
nodes = (
"378 -216 OFFCURVE",
"417 -174 OFFCURVE",
"417 -124 CURVE SMOOTH",
"417 -90 OFFCURVE",
"396 -64 OFFCURVE",
"357 -64 CURVE SMOOTH",
"307 -64 OFFCURVE",
"267 -109 OFFCURVE",
"267 -159 CURVE SMOOTH",
"267 -192 OFFCURVE",
"288 -216 OFFCURVE",
"327 -216 CURVE SMOOTH"
);
},
{
closed = 1;
nodes = (
"334 0 LINE",
"344 48 LINE",
"313 48 LINE SMOOTH",
"282 48 OFFCURVE",
"268 58 OFFCURVE",
"268 78 CURVE SMOOTH",
"268 81 OFFCURVE",
"268 84 OFFCURVE",
"269 88 CURVE SMOOTH",
"377 612 LINE SMOOTH",
"381 638 OFFCURVE",
"400 652 OFFCURVE",
"436 652 CURVE SMOOTH",
"467 652 LINE",
"476 700 LINE",
"112 700 LINE",
"102 652 LINE",
"133 652 LINE SMOOTH",
"164 652 OFFCURVE",
"178 642 OFFCURVE",
"178 622 CURVE SMOOTH",
"178 619 OFFCURVE",
"178 616 OFFCURVE",
"177 612 CURVE SMOOTH",
"69 88 LINE SMOOTH",
"65 62 OFFCURVE",
"46 48 OFFCURVE",
"10 48 CURVE SMOOTH",
"-21 48 LINE",
"-30 0 LINE"
);
},
{
closed = 1;
nodes = (
"643 321 LINE",
"656 389 LINE",
"232 389 LINE",
"218 321 LINE"
);
}
);
width = 824;
}
);
note = Hdotbelow;
unicode = 1E24;
},
{
glyphname = I;
lastChange = "2015-12-01 14:00:32 +0000";
layers = (
{
layerId = "E6BC66B7-46A3-4CBE-A067-18EBCB5231B7";
name = "Bold Italic";
paths = (
{
closed = 1;
nodes = (
"340 0 LINE",
"350 48 LINE",
"319 48 LINE SMOOTH",
"287 48 OFFCURVE",
"274 58 OFFCURVE",
"274 78 CURVE SMOOTH",
"274 81 OFFCURVE",
"274 84 OFFCURVE",
"275 88 CURVE SMOOTH",
"382 612 LINE SMOOTH",
"387 638 OFFCURVE",
"405 652 OFFCURVE",
"442 652 CURVE SMOOTH",
"473 652 LINE",
"482 700 LINE",
"117 700 LINE",
"108 652 LINE",
"139 652 LINE SMOOTH",
"170 652 OFFCURVE",
"184 642 OFFCURVE",
"184 622 CURVE SMOOTH",
"184 619 OFFCURVE",
"184 616 OFFCURVE",
"183 612 CURVE SMOOTH",
"75 88 LINE SMOOTH",
"70 62 OFFCURVE",
"52 48 OFFCURVE",
"16 48 CURVE SMOOTH",
"-15 48 LINE",
"-25 0 LINE"
);
}
);
width = 396;
}
);
note = I;
unicode = 0049;
},
{
glyphname = IJ;
lastChange = "2015-12-01 14:00:36 +0000";
layers = (
{
layerId = "E6BC66B7-46A3-4CBE-A067-18EBCB5231B7";
name = "Bold Italic";
paths = (
{
closed = 1;
nodes = (
"552 -114 OFFCURVE",
"695 -39 OFFCURVE",
"733 143 CURVE SMOOTH",
"829 612 LINE SMOOTH",
"834 638 OFFCURVE",
"852 652 OFFCURVE",
"888 652 CURVE SMOOTH",
"919 652 LINE",
"929 700 LINE",
"564 700 LINE",
"554 652 LINE",
"585 652 LINE SMOOTH",
"617 652 OFFCURVE",
"630 642 OFFCURVE",
"630 622 CURVE SMOOTH",
"630 619 OFFCURVE",
"630 616 OFFCURVE",
"629 612 CURVE SMOOTH",
"534 146 LINE SMOOTH",
"512 40 OFFCURVE",
"485 -50 OFFCURVE",
"376 -83 CURVE",
"375 -114 LINE"
);
},
{
closed = 1;
nodes = (
"340 0 LINE",
"350 48 LINE",
"319 48 LINE SMOOTH",
"287 48 OFFCURVE",
"274 58 OFFCURVE",
"274 78 CURVE SMOOTH",
"274 81 OFFCURVE",
"274 84 OFFCURVE",
"275 88 CURVE SMOOTH",
"382 612 LINE SMOOTH",
"387 638 OFFCURVE",
"405 652 OFFCURVE",
"442 652 CURVE SMOOTH",
"473 652 LINE",
"482 700 LINE",
"117 700 LINE",
"108 652 LINE",
"139 652 LINE SMOOTH",
"170 652 OFFCURVE",
"184 642 OFFCURVE",
"184 622 CURVE SMOOTH",
"184 619 OFFCURVE",
"184 616 OFFCURVE",
"183 612 CURVE SMOOTH",
"75 88 LINE SMOOTH",
"70 62 OFFCURVE",
"52 48 OFFCURVE",
"16 48 CURVE SMOOTH",
"-15 48 LINE",
"-25 0 LINE"
);
}
);
width = 842;
}
);
note = IJ;
unicode = 0132;
},
{
glyphname = Iacute;
lastChange = "2015-12-01 14:00:35 +0000";
layers = (
{
layerId = "E6BC66B7-46A3-4CBE-A067-18EBCB5231B7";
name = "Bold Italic";
paths = (
{
closed = 1;
nodes = (
"340 0 LINE",
"350 48 LINE",
"319 48 LINE SMOOTH",
"287 48 OFFCURVE",
"274 58 OFFCURVE",
"274 78 CURVE SMOOTH",
"274 81 OFFCURVE",
"274 84 OFFCURVE",
"275 88 CURVE SMOOTH",
"382 612 LINE SMOOTH",
"387 638 OFFCURVE",
"405 652 OFFCURVE",
"442 652 CURVE SMOOTH",
"473 652 LINE",
"482 700 LINE",
"117 700 LINE",
"108 652 LINE",
"139 652 LINE SMOOTH",
"170 652 OFFCURVE",
"184 642 OFFCURVE",
"184 622 CURVE SMOOTH",
"184 619 OFFCURVE",
"184 616 OFFCURVE",
"183 612 CURVE SMOOTH",
"75 88 LINE SMOOTH",
"70 62 OFFCURVE",
"52 48 OFFCURVE",
"16 48 CURVE SMOOTH",
"-15 48 LINE",
"-25 0 LINE"
);
},
{
closed = 1;
nodes = (
"405 874 LINE SMOOTH",
"447 897 OFFCURVE",
"474 920 OFFCURVE",
"479 950 CURVE",
"480 954 OFFCURVE",
"480 958 OFFCURVE",
"480 962 CURVE SMOOTH",
"480 983 OFFCURVE",
"467 1005 OFFCURVE",
"429 1005 CURVE SMOOTH",
"390 1005 OFFCURVE",
"354 969 OFFCURVE",
"346 962 CURVE SMOOTH",
"195 823 LINE",
"220 773 LINE"
);
}
);
width = 396;
}
);
note = Iacute;
unicode = 00CD;
},
{
glyphname = Ibreve;
lastChange = "2015-12-01 14:00:37 +0000";
layers = (
{
layerId = "E6BC66B7-46A3-4CBE-A067-18EBCB5231B7";
name = "Bold Italic";
paths = (
{
closed = 1;
nodes = (
"340 0 LINE",
"350 48 LINE",
"319 48 LINE SMOOTH",
"287 48 OFFCURVE",
"274 58 OFFCURVE",
"274 78 CURVE SMOOTH",
"274 81 OFFCURVE",
"274 84 OFFCURVE",
"275 88 CURVE SMOOTH",
"382 612 LINE SMOOTH",
"387 638 OFFCURVE",
"405 652 OFFCURVE",
"442 652 CURVE SMOOTH",
"473 652 LINE",
"482 700 LINE",
"117 700 LINE",
"108 652 LINE",
"139 652 LINE SMOOTH",
"170 652 OFFCURVE",
"184 642 OFFCURVE",
"184 622 CURVE SMOOTH",
"184 619 OFFCURVE",
"184 616 OFFCURVE",
"183 612 CURVE SMOOTH",
"75 88 LINE SMOOTH",
"70 62 OFFCURVE",
"52 48 OFFCURVE",
"16 48 CURVE SMOOTH",
"-15 48 LINE",
"-25 0 LINE"
);
},
{
closed = 1;
nodes = (
"457 777 OFFCURVE",
"500 867 OFFCURVE",
"514 937 CURVE",
"470 937 LINE",
"463 913 OFFCURVE",
"432 860 OFFCURVE",
"331 860 CURVE SMOOTH",
"229 860 OFFCURVE",
"221 913 OFFCURVE",
"224 937 CURVE",
"182 937 LINE",
"178 920 OFFCURVE",
"176 903 OFFCURVE",
"176 886 CURVE SMOOTH",
"176 828 OFFCURVE",
"205 777 OFFCURVE",
"315 777 CURVE SMOOTH"
);
}
);
width = 396;
}
);
note = Ibreve;
unicode = 012C;
},
{
glyphname = Icaron;
lastChange = "2015-12-01 14:00:35 +0000";
layers = (
{
layerId = "E6BC66B7-46A3-4CBE-A067-18EBCB5231B7";
name = "Bold Italic";
paths = (
{
closed = 1;
nodes = (
"340 0 LINE",
"350 48 LINE",
"319 48 LINE SMOOTH",
"287 48 OFFCURVE",
"274 58 OFFCURVE",
"274 78 CURVE SMOOTH",
"274 81 OFFCURVE",
"274 84 OFFCURVE",
"275 88 CURVE SMOOTH",
"382 612 LINE SMOOTH",
"387 638 OFFCURVE",
"405 652 OFFCURVE",
"442 652 CURVE SMOOTH",
"473 652 LINE",
"482 700 LINE",
"117 700 LINE",
"108 652 LINE",
"139 652 LINE SMOOTH",
"170 652 OFFCURVE",
"184 642 OFFCURVE",
"184 622 CURVE SMOOTH",
"184 619 OFFCURVE",
"184 616 OFFCURVE",
"183 612 CURVE SMOOTH",
"75 88 LINE SMOOTH",
"70 62 OFFCURVE",
"52 48 OFFCURVE",
"16 48 CURVE SMOOTH",
"-15 48 LINE",
"-25 0 LINE"
);
},
{
closed = 1;
nodes = (
"362 775 LINE",
"557 960 LINE",
"537 990 LINE",
"380 887 LINE SMOOTH",
"361 875 OFFCURVE",
"345 866 OFFCURVE",
"333 866 CURVE SMOOTH",
"323 866 OFFCURVE",
"309 875 OFFCURVE",
"295 887 CURVE",
"181 990 LINE",
"149 960 LINE",
"266 775 LINE"
);
}
);
width = 396;
}
);
note = Icaron;
unicode = 01CF;
},
{
glyphname = Icircumflex;
lastChange = "2015-12-01 14:00:37 +0000";
layers = (
{
layerId = "E6BC66B7-46A3-4CBE-A067-18EBCB5231B7";
name = "Bold Italic";
paths = (
{
closed = 1;
nodes = (
"340 0 LINE",
"350 48 LINE",
"319 48 LINE SMOOTH",
"287 48 OFFCURVE",
"274 58 OFFCURVE",
"274 78 CURVE SMOOTH",
"274 81 OFFCURVE",
"274 84 OFFCURVE",
"275 88 CURVE SMOOTH",
"382 612 LINE SMOOTH",
"387 638 OFFCURVE",
"405 652 OFFCURVE",
"442 652 CURVE SMOOTH",
"473 652 LINE",
"482 700 LINE",
"117 700 LINE",
"108 652 LINE",
"139 652 LINE SMOOTH",
"170 652 OFFCURVE",
"184 642 OFFCURVE",
"184 622 CURVE SMOOTH",
"184 619 OFFCURVE",
"184 616 OFFCURVE",
"183 612 CURVE SMOOTH",
"75 88 LINE SMOOTH",
"70 62 OFFCURVE",
"52 48 OFFCURVE",
"16 48 CURVE SMOOTH",
"-15 48 LINE",
"-25 0 LINE"
);
},
{
closed = 1;
nodes = (
"293 878 LINE SMOOTH",
"312 890 OFFCURVE",
"330 899 OFFCURVE",
"340 899 CURVE SMOOTH",
"352 899 OFFCURVE",
"364 890 OFFCURVE",
"378 878 CURVE SMOOTH",
"493 775 LINE",
"525 805 LINE",
"406 990 LINE",
"310 990 LINE",
"117 805 LINE",
"137 775 LINE"
);
}
);
width = 396;
}
);
note = Icircumflex;
unicode = 00CE;
},
{
glyphname = Idieresis;
lastChange = "2015-12-01 14:00:35 +0000";
layers = (
{
layerId = "E6BC66B7-46A3-4CBE-A067-18EBCB5231B7";
name = "Bold Italic";
paths = (
{
closed = 1;
nodes = (
"340 0 LINE",
"350 48 LINE",
"319 48 LINE SMOOTH",
"287 48 OFFCURVE",
"274 58 OFFCURVE",
"274 78 CURVE SMOOTH",
"274 81 OFFCURVE",
"274 84 OFFCURVE",
"275 88 CURVE SMOOTH",
"382 612 LINE SMOOTH",
"387 638 OFFCURVE",
"405 652 OFFCURVE",
"442 652 CURVE SMOOTH",
"473 652 LINE",
"482 700 LINE",
"117 700 LINE",
"108 652 LINE",
"139 652 LINE SMOOTH",
"170 652 OFFCURVE",
"184 642 OFFCURVE",
"184 622 CURVE SMOOTH",
"184 619 OFFCURVE",
"184 616 OFFCURVE",
"183 612 CURVE SMOOTH",
"75 88 LINE SMOOTH",
"70 62 OFFCURVE",
"52 48 OFFCURVE",
"16 48 CURVE SMOOTH",
"-15 48 LINE",
"-25 0 LINE"
);
},
{
closed = 1;
nodes = (
"246 775 OFFCURVE",
"285 818 OFFCURVE",
"285 868 CURVE SMOOTH",
"285 901 OFFCURVE",
"264 926 OFFCURVE",
"225 926 CURVE SMOOTH",
"174 926 OFFCURVE",
"137 882 OFFCURVE",
"137 832 CURVE SMOOTH",
"137 799 OFFCURVE",
"157 775 OFFCURVE",
"195 775 CURVE SMOOTH"
);
},
{
closed = 1;
nodes = (
"484 775 OFFCURVE",
"524 818 OFFCURVE",
"524 868 CURVE SMOOTH",
"524 901 OFFCURVE",
"502 926 OFFCURVE",
"464 926 CURVE SMOOTH",
"411 926 OFFCURVE",
"374 882 OFFCURVE",
"374 832 CURVE SMOOTH",
"374 799 OFFCURVE",
"394 775 OFFCURVE",
"433 775 CURVE SMOOTH"
);
}
);
width = 396;
}
);
note = Idieresis;
unicode = 00CF;
},
{
glyphname = Idotaccent;
lastChange = "2015-12-01 14:00:36 +0000";
layers = (
{
layerId = "E6BC66B7-46A3-4CBE-A067-18EBCB5231B7";
name = "Bold Italic";
paths = (
{
closed = 1;
nodes = (
"340 0 LINE",
"350 48 LINE",
"319 48 LINE SMOOTH",
"287 48 OFFCURVE",
"274 58 OFFCURVE",
"274 78 CURVE SMOOTH",
"274 81 OFFCURVE",
"274 84 OFFCURVE",
"275 88 CURVE SMOOTH",
"382 612 LINE SMOOTH",
"387 638 OFFCURVE",
"405 652 OFFCURVE",
"442 652 CURVE SMOOTH",
"473 652 LINE",
"482 700 LINE",
"117 700 LINE",
"108 652 LINE",
"139 652 LINE SMOOTH",
"170 652 OFFCURVE",
"184 642 OFFCURVE",
"184 622 CURVE SMOOTH",
"184 619 OFFCURVE",
"184 616 OFFCURVE",
"183 612 CURVE SMOOTH",
"75 88 LINE SMOOTH",
"70 62 OFFCURVE",
"52 48 OFFCURVE",
"16 48 CURVE SMOOTH",
"-15 48 LINE",
"-25 0 LINE"
);
},
{
closed = 1;
nodes = (
"364 775 OFFCURVE",
"404 818 OFFCURVE",
"404 868 CURVE SMOOTH",
"404 901 OFFCURVE",
"382 926 OFFCURVE",
"344 926 CURVE SMOOTH",
"292 926 OFFCURVE",
"255 882 OFFCURVE",
"255 832 CURVE SMOOTH",
"255 799 OFFCURVE",
"275 775 OFFCURVE",
"313 775 CURVE SMOOTH"
);
}
);
width = 396;
}
);
note = Idotaccent;
unicode = 0130;
},
{
glyphname = Idotbelow;
lastChange = "2015-12-01 14:00:36 +0000";
layers = (
{
layerId = "E6BC66B7-46A3-4CBE-A067-18EBCB5231B7";
name = "Bold Italic";
paths = (
{
closed = 1;
nodes = (
"340 0 LINE",
"350 48 LINE",
"319 48 LINE SMOOTH",
"287 48 OFFCURVE",
"274 58 OFFCURVE",
"274 78 CURVE SMOOTH",
"274 81 OFFCURVE",
"274 84 OFFCURVE",
"275 88 CURVE SMOOTH",
"382 612 LINE SMOOTH",
"387 638 OFFCURVE",
"405 652 OFFCURVE",
"442 652 CURVE SMOOTH",
"473 652 LINE",
"482 700 LINE",
"117 700 LINE",
"108 652 LINE",
"139 652 LINE SMOOTH",
"170 652 OFFCURVE",
"184 642 OFFCURVE",
"184 622 CURVE SMOOTH",
"184 619 OFFCURVE",
"184 616 OFFCURVE",
"183 612 CURVE SMOOTH",
"75 88 LINE SMOOTH",
"70 62 OFFCURVE",
"52 48 OFFCURVE",
"16 48 CURVE SMOOTH",
"-15 48 LINE",
"-25 0 LINE"
);
},
{
closed = 1;
nodes = (
"165 -216 OFFCURVE",
"205 -174 OFFCURVE",
"205 -124 CURVE SMOOTH",
"205 -90 OFFCURVE",
"184 -64 OFFCURVE",
"145 -64 CURVE SMOOTH",
"94 -64 OFFCURVE",
"55 -109 OFFCURVE",
"55 -159 CURVE SMOOTH",
"55 -192 OFFCURVE",
"76 -216 OFFCURVE",
"115 -216 CURVE SMOOTH"
);
}
);
width = 396;
}
);
note = Idotbelow;
unicode = 1ECA;
},
{
glyphname = Igrave;
lastChange = "2015-12-01 14:00:36 +0000";
layers = (
{
layerId = "E6BC66B7-46A3-4CBE-A067-18EBCB5231B7";
name = "Bold Italic";
paths = (
{
closed = 1;
nodes = (
"340 0 LINE",
"350 48 LINE",
"319 48 LINE SMOOTH",
"287 48 OFFCURVE",
"274 58 OFFCURVE",
"274 78 CURVE SMOOTH",
"274 81 OFFCURVE",
"274 84 OFFCURVE",
"275 88 CURVE SMOOTH",
"382 612 LINE SMOOTH",
"387 638 OFFCURVE",
"405 652 OFFCURVE",
"442 652 CURVE SMOOTH",
"473 652 LINE",
"482 700 LINE",
"117 700 LINE",
"108 652 LINE",
"139 652 LINE SMOOTH",
"170 652 OFFCURVE",
"184 642 OFFCURVE",
"184 622 CURVE SMOOTH",
"184 619 OFFCURVE",
"184 616 OFFCURVE",
"183 612 CURVE SMOOTH",
"75 88 LINE SMOOTH",
"70 62 OFFCURVE",
"52 48 OFFCURVE",
"16 48 CURVE SMOOTH",
"-15 48 LINE",
"-25 0 LINE"
);
},
{
closed = 1;
nodes = (
"453 823 LINE",
"361 962 LINE",
"357 969 OFFCURVE",
"333 1005 OFFCURVE",
"294 1005 CURVE SMOOTH",
"249 1005 OFFCURVE",
"227 974 OFFCURVE",
"221 950 CURVE",
"220 946 OFFCURVE",
"220 942 OFFCURVE",
"220 938 CURVE SMOOTH",
"220 914 OFFCURVE",
"236 894 OFFCURVE",
"264 874 CURVE SMOOTH",
"410 773 LINE"
);
}
);
width = 396;
}
);
note = Igrave;
unicode = 00CC;
},
{
glyphname = Ihookabove;
lastChange = "2015-12-01 14:00:35 +0000";
layers = (
{
layerId = "E6BC66B7-46A3-4CBE-A067-18EBCB5231B7";
name = "Bold Italic";
paths = (
{
closed = 1;
nodes = (
"340 0 LINE",
"350 48 LINE",
"319 48 LINE SMOOTH",
"287 48 OFFCURVE",
"274 58 OFFCURVE",
"274 78 CURVE SMOOTH",
"274 81 OFFCURVE",
"274 84 OFFCURVE",
"275 88 CURVE SMOOTH",
"382 612 LINE SMOOTH",
"387 638 OFFCURVE",
"405 652 OFFCURVE",
"442 652 CURVE SMOOTH",
"473 652 LINE",
"482 700 LINE",
"117 700 LINE",
"108 652 LINE",
"139 652 LINE SMOOTH",
"170 652 OFFCURVE",
"184 642 OFFCURVE",
"184 622 CURVE SMOOTH",
"184 619 OFFCURVE",
"184 616 OFFCURVE",
"183 612 CURVE SMOOTH",
"75 88 LINE SMOOTH",
"70 62 OFFCURVE",
"52 48 OFFCURVE",
"16 48 CURVE SMOOTH",
"-15 48 LINE",
"-25 0 LINE"
);
},
{
closed = 1;
nodes = (
"349 802 LINE",
"339 802 OFFCURVE",
"326 804 OFFCURVE",
"326 820 CURVE SMOOTH",
"326 822 OFFCURVE",
"326 825 OFFCURVE",
"327 828 CURVE SMOOTH",
"336 878 OFFCURVE",
"454 884 OFFCURVE",
"470 956 CURVE SMOOTH",
"471 961 OFFCURVE",
"471 965 OFFCURVE",
"471 970 CURVE SMOOTH",
"471 1014 OFFCURVE",
"423 1035 OFFCURVE",
"366 1035 CURVE SMOOTH",
"272 1035 OFFCURVE",
"238 991 OFFCURVE",
"234 968 CURVE SMOOTH",
"233 965 OFFCURVE",
"233 962 OFFCURVE",
"233 959 CURVE SMOOTH",
"233 938 OFFCURVE",
"247 929 OFFCURVE",
"263 929 CURVE SMOOTH",
"283 929 OFFCURVE",
"304 941 OFFCURVE",
"308 961 CURVE SMOOTH",
"313 992 OFFCURVE",
"340 999 OFFCURVE",
"356 999 CURVE SMOOTH",
"379 999 OFFCURVE",
"384 981 OFFCURVE",
"381 965 CURVE SMOOTH",
"367 898 OFFCURVE",
"271 885 OFFCURVE",
"260 830 CURVE SMOOTH",
"259 827 OFFCURVE",
"259 824 OFFCURVE",
"259 821 CURVE SMOOTH",
"259 791 OFFCURVE",
"295 775 OFFCURVE",
"335 775 CURVE"
);
}
);
width = 396;
}
);
note = Ihookabove;
unicode = 1EC8;
},
{
glyphname = Imacron;
lastChange = "2015-12-01 14:00:35 +0000";
layers = (
{
layerId = "E6BC66B7-46A3-4CBE-A067-18EBCB5231B7";
name = "Bold Italic";
paths = (
{
closed = 1;
nodes = (
"340 0 LINE",
"350 48 LINE",
"319 48 LINE SMOOTH",
"287 48 OFFCURVE",
"274 58 OFFCURVE",
"274 78 CURVE SMOOTH",
"274 81 OFFCURVE",
"274 84 OFFCURVE",
"275 88 CURVE SMOOTH",
"382 612 LINE SMOOTH",
"387 638 OFFCURVE",
"405 652 OFFCURVE",
"442 652 CURVE SMOOTH",
"473 652 LINE",
"482 700 LINE",
"117 700 LINE",
"108 652 LINE",
"139 652 LINE SMOOTH",
"170 652 OFFCURVE",
"184 642 OFFCURVE",
"184 622 CURVE SMOOTH",
"184 619 OFFCURVE",
"184 616 OFFCURVE",
"183 612 CURVE SMOOTH",
"75 88 LINE SMOOTH",
"70 62 OFFCURVE",
"52 48 OFFCURVE",
"16 48 CURVE SMOOTH",
"-15 48 LINE",
"-25 0 LINE"
);
},
{
closed = 1;
nodes = (
"547 788 LINE",
"565 875 LINE",
"109 875 LINE",
"91 788 LINE"
);
}
);
width = 396;
}
);
note = Imacron;
unicode = 012A;
},
{
glyphname = Iogonek;
lastChange = "2015-12-01 14:00:37 +0000";
layers = (
{
layerId = "E6BC66B7-46A3-4CBE-A067-18EBCB5231B7";
name = "Bold Italic";
paths = (
{
closed = 1;
nodes = (
"340 0 LINE",
"350 48 LINE",
"319 48 LINE SMOOTH",
"287 48 OFFCURVE",
"274 58 OFFCURVE",
"274 78 CURVE SMOOTH",
"274 81 OFFCURVE",
"274 84 OFFCURVE",
"275 88 CURVE SMOOTH",
"382 612 LINE SMOOTH",
"387 638 OFFCURVE",
"405 652 OFFCURVE",
"442 652 CURVE SMOOTH",
"473 652 LINE",
"482 700 LINE",
"117 700 LINE",
"108 652 LINE",
"139 652 LINE SMOOTH",
"170 652 OFFCURVE",
"184 642 OFFCURVE",
"184 622 CURVE SMOOTH",
"184 619 OFFCURVE",
"184 616 OFFCURVE",
"183 612 CURVE SMOOTH",
"75 88 LINE SMOOTH",
"70 62 OFFCURVE",
"52 48 OFFCURVE",
"16 48 CURVE SMOOTH",
"-15 48 LINE",
"-25 0 LINE"
);
},
{
closed = 1;
nodes = (
"181 -243 OFFCURVE",
"225 -229 OFFCURVE",
"269 -197 CURVE",
"260 -169 LINE",
"245 -177 OFFCURVE",
"223 -183 OFFCURVE",
"208 -183 CURVE SMOOTH",
"181 -183 OFFCURVE",
"162 -168 OFFCURVE",
"162 -137 CURVE SMOOTH",
"162 -132 OFFCURVE",
"163 -126 OFFCURVE",
"164 -120 CURVE SMOOTH",
"172 -79 OFFCURVE",
"202 -33 OFFCURVE",
"264 13 CURVE",
"201 13 LINE",
"120 -27 OFFCURVE",
"46 -93 OFFCURVE",
"46 -162 CURVE SMOOTH",
"46 -199 OFFCURVE",
"66 -243 OFFCURVE",
"150 -243 CURVE SMOOTH"
);
}
);
width = 396;
}
);
note = Iogonek;
unicode = 012E;
},
{
glyphname = Itilde;
lastChange = "2015-12-01 14:00:36 +0000";
layers = (
{
layerId = "E6BC66B7-46A3-4CBE-A067-18EBCB5231B7";
name = "Bold Italic";
paths = (
{
closed = 1;
nodes = (
"340 0 LINE",
"350 48 LINE",
"319 48 LINE SMOOTH",
"287 48 OFFCURVE",
"274 58 OFFCURVE",
"274 78 CURVE SMOOTH",
"274 81 OFFCURVE",
"274 84 OFFCURVE",
"275 88 CURVE SMOOTH",
"382 612 LINE SMOOTH",
"387 638 OFFCURVE",
"405 652 OFFCURVE",
"442 652 CURVE SMOOTH",
"473 652 LINE",
"482 700 LINE",
"117 700 LINE",
"108 652 LINE",
"139 652 LINE SMOOTH",
"170 652 OFFCURVE",
"184 642 OFFCURVE",
"184 622 CURVE SMOOTH",
"184 619 OFFCURVE",
"184 616 OFFCURVE",
"183 612 CURVE SMOOTH",
"75 88 LINE SMOOTH",
"70 62 OFFCURVE",
"52 48 OFFCURVE",
"16 48 CURVE SMOOTH",
"-15 48 LINE",
"-25 0 LINE"
);
},
{
closed = 1;
nodes = (
"177 810 OFFCURVE",
"195 827 OFFCURVE",
"233 827 CURVE SMOOTH",
"297 827 OFFCURVE",
"345 783 OFFCURVE",
"406 783 CURVE SMOOTH",
"488 783 OFFCURVE",
"540 866 OFFCURVE",
"566 910 CURVE",
"538 929 LINE",
"507 888 OFFCURVE",
"490 872 OFFCURVE",
"452 872 CURVE SMOOTH",
"388 872 OFFCURVE",
"341 916 OFFCURVE",
"279 916 CURVE SMOOTH",
"197 916 OFFCURVE",
"145 833 OFFCURVE",
"117 789 CURVE",
"146 770 LINE"
);
}
);
width = 396;
}
);
note = Itilde;
unicode = 0128;
},
{
glyphname = J;
lastChange = "2015-12-01 14:00:32 +0000";
layers = (
{
layerId = "E6BC66B7-46A3-4CBE-A067-18EBCB5231B7";
name = "Bold Italic";
paths = (
{
closed = 1;
nodes = (
"166 -114 OFFCURVE",
"309 -39 OFFCURVE",
"347 143 CURVE SMOOTH",
"443 612 LINE SMOOTH",
"448 638 OFFCURVE",
"466 652 OFFCURVE",
"502 652 CURVE SMOOTH",
"533 652 LINE",
"543 700 LINE",
"178 700 LINE",
"168 652 LINE",
"199 652 LINE SMOOTH",
"231 652 OFFCURVE",
"244 642 OFFCURVE",
"244 622 CURVE SMOOTH",
"244 619 OFFCURVE",
"244 616 OFFCURVE",
"243 612 CURVE SMOOTH",
"148 146 LINE SMOOTH",
"126 40 OFFCURVE",
"99 -50 OFFCURVE",
"-10 -83 CURVE",
"-11 -114 LINE"
);
}
);
width = 456;
}
);
note = J;
unicode = 004A;
},
{
glyphname = Jcircumflex;
lastChange = "2015-12-01 14:00:37 +0000";
layers = (
{
layerId = "E6BC66B7-46A3-4CBE-A067-18EBCB5231B7";
name = "Bold Italic";
paths = (
{
closed = 1;
nodes = (
"166 -114 OFFCURVE",
"309 -39 OFFCURVE",
"347 143 CURVE SMOOTH",
"443 612 LINE SMOOTH",
"448 638 OFFCURVE",
"466 652 OFFCURVE",
"502 652 CURVE SMOOTH",
"533 652 LINE",
"543 700 LINE",
"178 700 LINE",
"168 652 LINE",
"199 652 LINE SMOOTH",
"231 652 OFFCURVE",
"244 642 OFFCURVE",
"244 622 CURVE SMOOTH",
"244 619 OFFCURVE",
"244 616 OFFCURVE",
"243 612 CURVE SMOOTH",
"148 146 LINE SMOOTH",
"126 40 OFFCURVE",
"99 -50 OFFCURVE",
"-10 -83 CURVE",
"-11 -114 LINE"
);
},
{
closed = 1;
nodes = (
"349 878 LINE SMOOTH",
"368 890 OFFCURVE",
"385 899 OFFCURVE",
"396 899 CURVE SMOOTH",
"407 899 OFFCURVE",
"420 890 OFFCURVE",
"433 878 CURVE SMOOTH",
"548 775 LINE",
"581 805 LINE",
"462 990 LINE",
"366 990 LINE",
"173 805 LINE",
"192 775 LINE"
);
}
);
width = 456;
}
);
note = Jcircumflex;
unicode = 0134;
},
{
glyphname = K;
lastChange = "2015-12-01 14:00:36 +0000";
layers = (
{
layerId = "E6BC66B7-46A3-4CBE-A067-18EBCB5231B7";
name = "Bold Italic";
paths = (
{
closed = 1;
nodes = (
"334 0 LINE",
"344 48 LINE",
"313 48 LINE SMOOTH",
"282 48 OFFCURVE",
"268 58 OFFCURVE",
"268 78 CURVE SMOOTH",
"268 81 OFFCURVE",
"268 84 OFFCURVE",
"269 88 CURVE SMOOTH",
"377 612 LINE SMOOTH",
"381 638 OFFCURVE",
"400 652 OFFCURVE",
"436 652 CURVE SMOOTH",
"467 652 LINE",
"476 700 LINE",
"112 700 LINE",
"102 652 LINE",
"133 652 LINE SMOOTH",
"164 652 OFFCURVE",
"178 642 OFFCURVE",
"178 622 CURVE SMOOTH",
"178 619 OFFCURVE",
"178 616 OFFCURVE",
"177 612 CURVE SMOOTH",
"69 88 LINE SMOOTH",
"65 62 OFFCURVE",
"46 48 OFFCURVE",
"10 48 CURVE SMOOTH",
"-21 48 LINE",
"-30 0 LINE"
);
},
{
closed = 1;
nodes = (
"761 0 LINE",
"770 48 LINE",
"740 48 LINE SMOOTH",
"709 48 OFFCURVE",
"675 70 OFFCURVE",
"657 99 CURVE SMOOTH",
"451 406 LINE",
"298 291 LINE",
"500 0 LINE"
);
},
{
closed = 1;
nodes = (
"751 634 LINE SMOOTH",
"765 645 OFFCURVE",
"786 652 OFFCURVE",
"806 652 CURVE SMOOTH",
"835 652 LINE",
"844 700 LINE",
"596 700 LINE",
"586 652 LINE",
"601 652 LINE SMOOTH",
"626 652 OFFCURVE",
"633 644 OFFCURVE",
"631 634 CURVE",
"630 627 OFFCURVE",
"624 621 OFFCURVE",
"618 615 CURVE",
"318 381 LINE",
"297 277 LINE"
);
}
);
width = 805;
}
);
note = K;
unicode = 004B;
},
{
glyphname = Kcommaaccent;
lastChange = "2015-12-01 14:00:36 +0000";
layers = (
{
layerId = "E6BC66B7-46A3-4CBE-A067-18EBCB5231B7";
name = "Bold Italic";
paths = (
{
closed = 1;
nodes = (
"334 0 LINE",
"344 48 LINE",
"313 48 LINE SMOOTH",
"282 48 OFFCURVE",
"268 58 OFFCURVE",
"268 78 CURVE SMOOTH",
"268 81 OFFCURVE",
"268 84 OFFCURVE",
"269 88 CURVE SMOOTH",
"377 612 LINE SMOOTH",
"381 638 OFFCURVE",
"400 652 OFFCURVE",
"436 652 CURVE SMOOTH",
"467 652 LINE",
"476 700 LINE",
"112 700 LINE",
"102 652 LINE",
"133 652 LINE SMOOTH",
"164 652 OFFCURVE",
"178 642 OFFCURVE",
"178 622 CURVE SMOOTH",
"178 619 OFFCURVE",
"178 616 OFFCURVE",
"177 612 CURVE SMOOTH",
"69 88 LINE SMOOTH",
"65 62 OFFCURVE",
"46 48 OFFCURVE",
"10 48 CURVE SMOOTH",
"-21 48 LINE",
"-30 0 LINE"
);
},
{
closed = 1;
nodes = (
"305 -364 OFFCURVE",
"404 -275 OFFCURVE",
"423 -187 CURVE SMOOTH",
"425 -176 OFFCURVE",
"426 -165 OFFCURVE",
"426 -156 CURVE SMOOTH",
"426 -106 OFFCURVE",
"399 -77 OFFCURVE",
"356 -77 CURVE SMOOTH",
"304 -77 OFFCURVE",
"265 -118 OFFCURVE",
"265 -158 CURVE SMOOTH",
"265 -191 OFFCURVE",
"290 -210 OFFCURVE",
"290 -243 CURVE SMOOTH",
"290 -247 OFFCURVE",
"289 -252 OFFCURVE",
"288 -257 CURVE SMOOTH",
"279 -303 OFFCURVE",
"246 -344 OFFCURVE",
"205 -381 CURVE",
"229 -409 LINE"
);
},
{
closed = 1;
nodes = (
"761 0 LINE",
"770 48 LINE",
"740 48 LINE SMOOTH",
"709 48 OFFCURVE",
"675 70 OFFCURVE",
"657 99 CURVE SMOOTH",
"451 406 LINE",
"298 291 LINE",
"500 0 LINE"
);
},
{
closed = 1;
nodes = (
"751 634 LINE SMOOTH",
"765 645 OFFCURVE",
"786 652 OFFCURVE",
"806 652 CURVE SMOOTH",
"835 652 LINE",
"844 700 LINE",
"596 700 LINE",
"586 652 LINE",
"601 652 LINE SMOOTH",
"626 652 OFFCURVE",
"633 644 OFFCURVE",
"631 634 CURVE",
"630 627 OFFCURVE",
"624 621 OFFCURVE",
"618 615 CURVE",
"318 381 LINE",
"297 277 LINE"
);
}
);
width = 805;
}
);
note = Kcommaaccent;
rightKerningGroup = K;
unicode = 0136;
},
{
glyphname = L;
lastChange = "2015-12-01 14:00:32 +0000";
layers = (
{
layerId = "E6BC66B7-46A3-4CBE-A067-18EBCB5231B7";
name = "Bold Italic";
paths = (
{
closed = 1;
nodes = (
"602 0 LINE",
"668 221 LINE",
"617 221 LINE",
"602 179 OFFCURVE",
"550 68 OFFCURVE",
"483 68 CURVE SMOOTH",
"322 68 LINE SMOOTH",
"291 68 OFFCURVE",
"275 81 OFFCURVE",
"275 107 CURVE SMOOTH",
"275 112 OFFCURVE",
"275 117 OFFCURVE",
"276 122 CURVE SMOOTH",
"377 612 LINE SMOOTH",
"381 638 OFFCURVE",
"400 652 OFFCURVE",
"436 652 CURVE SMOOTH",
"467 652 LINE",
"476 700 LINE",
"112 700 LINE",
"102 652 LINE",
"133 652 LINE SMOOTH",
"164 652 OFFCURVE",
"178 642 OFFCURVE",
"178 622 CURVE SMOOTH",
"178 619 OFFCURVE",
"178 616 OFFCURVE",
"177 612 CURVE SMOOTH",
"69 88 LINE SMOOTH",
"65 62 OFFCURVE",
"46 48 OFFCURVE",
"10 48 CURVE SMOOTH",
"-21 48 LINE",
"-30 0 LINE"
);
}
);
width = 683;
}
);
note = L;
rightKerningGroup = L;
unicode = 004C;
},
{
glyphname = Lacute;
lastChange = "2015-12-01 14:00:36 +0000";
layers = (
{
layerId = "E6BC66B7-46A3-4CBE-A067-18EBCB5231B7";
name = "Bold Italic";
paths = (
{
closed = 1;
nodes = (
"602 0 LINE",
"668 221 LINE",
"617 221 LINE",
"602 179 OFFCURVE",
"550 68 OFFCURVE",
"483 68 CURVE SMOOTH",
"322 68 LINE SMOOTH",
"291 68 OFFCURVE",
"275 81 OFFCURVE",
"275 107 CURVE SMOOTH",
"275 112 OFFCURVE",
"275 117 OFFCURVE",
"276 122 CURVE SMOOTH",
"377 612 LINE SMOOTH",
"381 638 OFFCURVE",
"400 652 OFFCURVE",
"436 652 CURVE SMOOTH",
"467 652 LINE",
"476 700 LINE",
"112 700 LINE",
"102 652 LINE",
"133 652 LINE SMOOTH",
"164 652 OFFCURVE",
"178 642 OFFCURVE",
"178 622 CURVE SMOOTH",
"178 619 OFFCURVE",
"178 616 OFFCURVE",
"177 612 CURVE SMOOTH",
"69 88 LINE SMOOTH",
"65 62 OFFCURVE",
"46 48 OFFCURVE",
"10 48 CURVE SMOOTH",
"-21 48 LINE",
"-30 0 LINE"
);
},
{
closed = 1;
nodes = (
"421 874 LINE SMOOTH",
"462 897 OFFCURVE",
"489 920 OFFCURVE",
"495 950 CURVE",
"496 954 OFFCURVE",
"496 958 OFFCURVE",
"496 962 CURVE SMOOTH",
"496 983 OFFCURVE",
"482 1005 OFFCURVE",
"445 1005 CURVE SMOOTH",
"405 1005 OFFCURVE",
"369 969 OFFCURVE",
"361 962 CURVE SMOOTH",
"211 823 LINE",
"236 773 LINE"
);
}
);
width = 683;
}
);
note = Lacute;
rightKerningGroup = L;
unicode = 0139;
},
{
glyphname = Lcaron;
lastChange = "2015-12-01 14:00:36 +0000";
layers = (
{
layerId = "E6BC66B7-46A3-4CBE-A067-18EBCB5231B7";
name = "Bold Italic";
paths = (
{
closed = 1;
nodes = (
"602 0 LINE",
"668 221 LINE",
"617 221 LINE",
"602 179 OFFCURVE",
"550 68 OFFCURVE",
"483 68 CURVE SMOOTH",
"322 68 LINE SMOOTH",
"291 68 OFFCURVE",
"275 81 OFFCURVE",
"275 107 CURVE SMOOTH",
"275 112 OFFCURVE",
"275 117 OFFCURVE",
"276 122 CURVE SMOOTH",
"377 612 LINE SMOOTH",
"381 638 OFFCURVE",
"400 652 OFFCURVE",
"436 652 CURVE SMOOTH",
"467 652 LINE",
"476 700 LINE",
"112 700 LINE",
"102 652 LINE",
"133 652 LINE SMOOTH",
"164 652 OFFCURVE",
"178 642 OFFCURVE",
"178 622 CURVE SMOOTH",
"178 619 OFFCURVE",
"178 616 OFFCURVE",
"177 612 CURVE SMOOTH",
"69 88 LINE SMOOTH",
"65 62 OFFCURVE",
"46 48 OFFCURVE",
"10 48 CURVE SMOOTH",
"-21 48 LINE",
"-30 0 LINE"
);
},
{
closed = 1;
nodes = (
"585 423 OFFCURVE",
"685 512 OFFCURVE",
"703 600 CURVE SMOOTH",
"706 612 OFFCURVE",
"707 622 OFFCURVE",
"707 632 CURVE SMOOTH",
"707 682 OFFCURVE",
"678 710 OFFCURVE",
"637 710 CURVE SMOOTH",
"584 710 OFFCURVE",
"546 668 OFFCURVE",
"546 627 CURVE SMOOTH",
"546 596 OFFCURVE",
"571 577 OFFCURVE",
"571 544 CURVE SMOOTH",
"571 540 OFFCURVE",
"570 535 OFFCURVE",
"569 530 CURVE SMOOTH",
"559 484 OFFCURVE",
"527 443 OFFCURVE",
"485 406 CURVE",
"509 378 LINE"
);
}
);
width = 683;
}
);
note = Lcaron;
rightKerningGroup = L;
unicode = 013D;
},
{
glyphname = Lcommaaccent;
lastChange = "2015-12-01 14:00:35 +0000";
layers = (
{
layerId = "E6BC66B7-46A3-4CBE-A067-18EBCB5231B7";
name = "Bold Italic";
paths = (
{
closed = 1;
nodes = (
"602 0 LINE",
"668 221 LINE",
"617 221 LINE",
"602 179 OFFCURVE",
"550 68 OFFCURVE",
"483 68 CURVE SMOOTH",
"322 68 LINE SMOOTH",
"291 68 OFFCURVE",
"275 81 OFFCURVE",
"275 107 CURVE SMOOTH",
"275 112 OFFCURVE",
"275 117 OFFCURVE",
"276 122 CURVE SMOOTH",
"377 612 LINE SMOOTH",
"381 638 OFFCURVE",
"400 652 OFFCURVE",
"436 652 CURVE SMOOTH",
"467 652 LINE",
"476 700 LINE",
"112 700 LINE",
"102 652 LINE",
"133 652 LINE SMOOTH",
"164 652 OFFCURVE",
"178 642 OFFCURVE",
"178 622 CURVE SMOOTH",
"178 619 OFFCURVE",
"178 616 OFFCURVE",
"177 612 CURVE SMOOTH",
"69 88 LINE SMOOTH",
"65 62 OFFCURVE",
"46 48 OFFCURVE",
"10 48 CURVE SMOOTH",
"-21 48 LINE",
"-30 0 LINE"
);
},
{
closed = 1;
nodes = (
"222 -364 OFFCURVE",
"322 -275 OFFCURVE",
"340 -187 CURVE SMOOTH",
"342 -176 OFFCURVE",
"343 -165 OFFCURVE",
"343 -156 CURVE SMOOTH",
"343 -106 OFFCURVE",
"316 -77 OFFCURVE",
"274 -77 CURVE SMOOTH",
"221 -77 OFFCURVE",
"183 -118 OFFCURVE",
"183 -158 CURVE SMOOTH",
"183 -191 OFFCURVE",
"208 -210 OFFCURVE",
"208 -243 CURVE SMOOTH",
"208 -247 OFFCURVE",
"207 -252 OFFCURVE",
"206 -257 CURVE SMOOTH",
"196 -303 OFFCURVE",
"164 -344 OFFCURVE",
"122 -381 CURVE",
"146 -409 LINE"
);
}
);
width = 683;
}
);
note = Lcommaaccent;
rightKerningGroup = L;
unicode = 013B;
},
{
glyphname = Ldot;
lastChange = "2015-12-01 14:00:36 +0000";
layers = (
{
layerId = "E6BC66B7-46A3-4CBE-A067-18EBCB5231B7";
name = "Bold Italic";
paths = (
{
closed = 1;
nodes = (
"602 0 LINE",
"668 221 LINE",
"617 221 LINE",
"602 179 OFFCURVE",
"550 68 OFFCURVE",
"483 68 CURVE SMOOTH",
"322 68 LINE SMOOTH",
"291 68 OFFCURVE",
"275 81 OFFCURVE",
"275 107 CURVE SMOOTH",
"275 112 OFFCURVE",
"275 117 OFFCURVE",
"276 122 CURVE SMOOTH",
"377 612 LINE SMOOTH",
"381 638 OFFCURVE",
"400 652 OFFCURVE",
"436 652 CURVE SMOOTH",
"467 652 LINE",
"476 700 LINE",
"112 700 LINE",
"102 652 LINE",
"133 652 LINE SMOOTH",
"164 652 OFFCURVE",
"178 642 OFFCURVE",
"178 622 CURVE SMOOTH",
"178 619 OFFCURVE",
"178 616 OFFCURVE",
"177 612 CURVE SMOOTH",
"69 88 LINE SMOOTH",
"65 62 OFFCURVE",
"46 48 OFFCURVE",
"10 48 CURVE SMOOTH",
"-21 48 LINE",
"-30 0 LINE"
);
},
{
closed = 1;
nodes = (
"556 320 OFFCURVE",
"595 363 OFFCURVE",
"595 413 CURVE SMOOTH",
"595 446 OFFCURVE",
"573 471 OFFCURVE",
"534 471 CURVE SMOOTH",
"482 471 OFFCURVE",
"445 427 OFFCURVE",
"445 377 CURVE SMOOTH",
"445 344 OFFCURVE",
"465 320 OFFCURVE",
"503 320 CURVE SMOOTH"
);
}
);
width = 683;
}
);
note = Ldot;
rightKerningGroup = L;
unicode = 013F;
},
{
glyphname = Ldotbelow;
lastChange = "2015-12-01 14:00:37 +0000";
layers = (
{
layerId = "E6BC66B7-46A3-4CBE-A067-18EBCB5231B7";
name = "Bold Italic";
paths = (
{
closed = 1;
nodes = (
"608 0 LINE",
"673 221 LINE",
"622 221 LINE",
"608 179 OFFCURVE",
"556 68 OFFCURVE",
"489 68 CURVE SMOOTH",
"328 68 LINE SMOOTH",
"297 68 OFFCURVE",
"281 81 OFFCURVE",
"281 107 CURVE SMOOTH",
"281 112 OFFCURVE",
"281 117 OFFCURVE",
"282 122 CURVE SMOOTH",
"382 612 LINE SMOOTH",
"387 638 OFFCURVE",
"405 652 OFFCURVE",
"442 652 CURVE SMOOTH",
"473 652 LINE",
"482 700 LINE",
"117 700 LINE",
"108 652 LINE",
"139 652 LINE SMOOTH",
"170 652 OFFCURVE",
"184 642 OFFCURVE",
"184 622 CURVE SMOOTH",
"184 619 OFFCURVE",
"184 616 OFFCURVE",
"183 612 CURVE SMOOTH",
"75 88 LINE SMOOTH",
"70 62 OFFCURVE",
"52 48 OFFCURVE",
"16 48 CURVE SMOOTH",
"-15 48 LINE",
"-25 0 LINE"
);
},
{
closed = 1;
nodes = (
"311 -216 OFFCURVE",
"351 -174 OFFCURVE",
"351 -124 CURVE SMOOTH",
"351 -90 OFFCURVE",
"330 -64 OFFCURVE",
"291 -64 CURVE SMOOTH",
"240 -64 OFFCURVE",
"201 -109 OFFCURVE",
"201 -159 CURVE SMOOTH",
"201 -192 OFFCURVE",
"222 -216 OFFCURVE",
"260 -216 CURVE SMOOTH"
);
}
);
width = 688;
}
);
note = Ldotbelow;
rightKerningGroup = L;
unicode = 1E36;
},
{
glyphname = Ldotbelowmacron;
lastChange = "2015-12-01 14:00:35 +0000";
layers = (
{
layerId = "E6BC66B7-46A3-4CBE-A067-18EBCB5231B7";
name = "Bold Italic";
paths = (
{
closed = 1;
nodes = (
"608 0 LINE",
"673 221 LINE",
"622 221 LINE",
"608 179 OFFCURVE",
"556 68 OFFCURVE",
"489 68 CURVE SMOOTH",
"328 68 LINE SMOOTH",
"297 68 OFFCURVE",
"281 81 OFFCURVE",
"281 107 CURVE SMOOTH",
"281 112 OFFCURVE",
"281 117 OFFCURVE",
"282 122 CURVE SMOOTH",
"382 612 LINE SMOOTH",
"387 638 OFFCURVE",
"405 652 OFFCURVE",
"442 652 CURVE SMOOTH",
"473 652 LINE",
"482 700 LINE",
"117 700 LINE",
"108 652 LINE",
"139 652 LINE SMOOTH",
"170 652 OFFCURVE",
"184 642 OFFCURVE",
"184 622 CURVE SMOOTH",
"184 619 OFFCURVE",
"184 616 OFFCURVE",
"183 612 CURVE SMOOTH",
"75 88 LINE SMOOTH",
"70 62 OFFCURVE",
"52 48 OFFCURVE",
"16 48 CURVE SMOOTH",
"-15 48 LINE",
"-25 0 LINE"
);
},
{
closed = 1;
nodes = (
"311 -216 OFFCURVE",
"351 -174 OFFCURVE",
"351 -124 CURVE SMOOTH",
"351 -90 OFFCURVE",
"330 -64 OFFCURVE",
"291 -64 CURVE SMOOTH",
"240 -64 OFFCURVE",
"201 -109 OFFCURVE",
"201 -159 CURVE SMOOTH",
"201 -192 OFFCURVE",
"222 -216 OFFCURVE",
"260 -216 CURVE SMOOTH"
);
},
{
closed = 1;
nodes = (
"545 774 LINE",
"560 849 LINE",
"148 849 LINE",
"133 774 LINE"
);
}
);
width = 688;
}
);
note = Ldotbelowmacron;
rightKerningGroup = L;
unicode = 1E38;
},
{
glyphname = Llinebelow;
lastChange = "2015-12-01 14:00:37 +0000";
layers = (
{
layerId = "E6BC66B7-46A3-4CBE-A067-18EBCB5231B7";
name = "Bold Italic";
paths = (
{
closed = 1;
nodes = (
"608 0 LINE",
"673 221 LINE",
"622 221 LINE",
"608 179 OFFCURVE",
"556 68 OFFCURVE",
"489 68 CURVE SMOOTH",
"328 68 LINE SMOOTH",
"297 68 OFFCURVE",
"281 81 OFFCURVE",
"281 107 CURVE SMOOTH",
"281 112 OFFCURVE",
"281 117 OFFCURVE",
"282 122 CURVE SMOOTH",
"382 612 LINE SMOOTH",
"387 638 OFFCURVE",
"405 652 OFFCURVE",
"442 652 CURVE SMOOTH",
"473 652 LINE",
"482 700 LINE",
"117 700 LINE",
"108 652 LINE",
"139 652 LINE SMOOTH",
"170 652 OFFCURVE",
"184 642 OFFCURVE",
"184 622 CURVE SMOOTH",
"184 619 OFFCURVE",
"184 616 OFFCURVE",
"183 612 CURVE SMOOTH",
"75 88 LINE SMOOTH",
"70 62 OFFCURVE",
"52 48 OFFCURVE",
"16 48 CURVE SMOOTH",
"-15 48 LINE",
"-25 0 LINE"
);
},
{
closed = 1;
nodes = (
"465 -130 LINE",
"478 -64 LINE",
"67 -64 LINE",
"53 -130 LINE"
);
}
);
width = 688;
}
);
note = Llinebelow;
rightKerningGroup = L;
unicode = 1E3A;
},
{
glyphname = Lslash;
lastChange = "2015-12-01 14:00:35 +0000";
layers = (
{
layerId = "E6BC66B7-46A3-4CBE-A067-18EBCB5231B7";
name = "Bold Italic";
paths = (
{
closed = 1;
nodes = (
"608 0 LINE",
"673 221 LINE",
"622 221 LINE",
"608 179 OFFCURVE",
"556 68 OFFCURVE",
"489 68 CURVE SMOOTH",
"328 68 LINE SMOOTH",
"297 68 OFFCURVE",
"281 81 OFFCURVE",
"281 107 CURVE SMOOTH",
"281 112 OFFCURVE",
"281 117 OFFCURVE",
"282 122 CURVE SMOOTH",
"382 612 LINE SMOOTH",
"387 638 OFFCURVE",
"405 652 OFFCURVE",
"442 652 CURVE SMOOTH",
"473 652 LINE",
"482 700 LINE",
"117 700 LINE",
"108 652 LINE",
"139 652 LINE SMOOTH",
"170 652 OFFCURVE",
"184 642 OFFCURVE",
"184 622 CURVE SMOOTH",
"184 619 OFFCURVE",
"184 616 OFFCURVE",
"183 612 CURVE SMOOTH",
"75 88 LINE SMOOTH",
"70 62 OFFCURVE",
"52 48 OFFCURVE",
"16 48 CURVE SMOOTH",
"-15 48 LINE",
"-25 0 LINE"
);
},
{
closed = 1;
nodes = (
"515 370 LINE",
"533 460 LINE",
"54 296 LINE",
"36 205 LINE"
);
}
);
width = 688;
}
);
note = Lslash;
rightKerningGroup = L;
unicode = 0141;
},
{
glyphname = M;
lastChange = "2015-12-01 14:00:32 +0000";
layers = (
{
layerId = "E6BC66B7-46A3-4CBE-A067-18EBCB5231B7";
name = "Bold Italic";
paths = (
{
closed = 1;
nodes = (
"212 0 LINE",
"221 48 LINE",
"190 48 LINE SMOOTH",
"159 48 OFFCURVE",
"145 58 OFFCURVE",
"145 78 CURVE SMOOTH",
"145 81 OFFCURVE",
"145 84 OFFCURVE",
"146 88 CURVE SMOOTH",
"238 537 LINE",
"331 74 LINE",
"449 74 LINE",
"738 540 LINE",
"645 88 LINE SMOOTH",
"641 62 OFFCURVE",
"622 48 OFFCURVE",
"586 48 CURVE SMOOTH",
"555 48 LINE",
"546 0 LINE",
"910 0 LINE",
"920 48 LINE",
"889 48 LINE SMOOTH",
"858 48 OFFCURVE",
"844 58 OFFCURVE",
"844 78 CURVE SMOOTH",
"844 81 OFFCURVE",
"844 84 OFFCURVE",
"845 88 CURVE SMOOTH",
"953 612 LINE SMOOTH",
"957 638 OFFCURVE",
"976 652 OFFCURVE",
"1012 652 CURVE SMOOTH",
"1043 652 LINE",
"1052 700 LINE",
"759 700 LINE",
"664 544 OFFCURVE",
"568 390 OFFCURVE",
"473 235 CURVE",
"383 700 LINE",
"112 700 LINE",
"102 652 LINE",
"133 652 LINE SMOOTH",
"164 652 OFFCURVE",
"178 642 OFFCURVE",
"178 622 CURVE SMOOTH",
"178 619 OFFCURVE",
"178 616 OFFCURVE",
"177 612 CURVE SMOOTH",
"69 88 LINE SMOOTH",
"65 62 OFFCURVE",
"46 48 OFFCURVE",
"10 48 CURVE SMOOTH",
"-21 48 LINE",
"-30 0 LINE"
);
}
);
width = 960;
}
);
note = M;
unicode = 004D;
},
{
glyphname = Mdotbelow;
lastChange = "2015-12-01 14:00:35 +0000";
layers = (
{
layerId = "E6BC66B7-46A3-4CBE-A067-18EBCB5231B7";
name = "Bold Italic";
paths = (
{
closed = 1;
nodes = (
"212 0 LINE",
"221 48 LINE",
"190 48 LINE SMOOTH",
"159 48 OFFCURVE",
"145 58 OFFCURVE",
"145 78 CURVE SMOOTH",
"145 81 OFFCURVE",
"145 84 OFFCURVE",
"146 88 CURVE SMOOTH",
"238 537 LINE",
"331 74 LINE",
"449 74 LINE",
"738 540 LINE",
"645 88 LINE SMOOTH",
"641 62 OFFCURVE",
"622 48 OFFCURVE",
"586 48 CURVE SMOOTH",
"555 48 LINE",
"546 0 LINE",
"910 0 LINE",
"920 48 LINE",
"889 48 LINE SMOOTH",
"858 48 OFFCURVE",
"844 58 OFFCURVE",
"844 78 CURVE SMOOTH",
"844 81 OFFCURVE",
"844 84 OFFCURVE",
"845 88 CURVE SMOOTH",
"953 612 LINE SMOOTH",
"957 638 OFFCURVE",
"976 652 OFFCURVE",
"1012 652 CURVE SMOOTH",
"1043 652 LINE",
"1052 700 LINE",
"759 700 LINE",
"664 544 OFFCURVE",
"568 390 OFFCURVE",
"473 235 CURVE",
"383 700 LINE",
"112 700 LINE",
"102 652 LINE",
"133 652 LINE SMOOTH",
"164 652 OFFCURVE",
"178 642 OFFCURVE",
"178 622 CURVE SMOOTH",
"178 619 OFFCURVE",
"178 616 OFFCURVE",
"177 612 CURVE SMOOTH",
"69 88 LINE SMOOTH",
"65 62 OFFCURVE",
"46 48 OFFCURVE",
"10 48 CURVE SMOOTH",
"-21 48 LINE",
"-30 0 LINE"
);
},
{
closed = 1;
nodes = (
"448 -216 OFFCURVE",
"487 -174 OFFCURVE",
"487 -124 CURVE SMOOTH",
"487 -90 OFFCURVE",
"466 -64 OFFCURVE",
"428 -64 CURVE SMOOTH",
"377 -64 OFFCURVE",
"337 -109 OFFCURVE",
"337 -159 CURVE SMOOTH",
"337 -192 OFFCURVE",
"358 -216 OFFCURVE",
"397 -216 CURVE SMOOTH"
);
}
);
width = 960;
}
);
note = Mdotbelow;
unicode = 1E42;
},
{
glyphname = N;
lastChange = "2015-12-01 14:00:32 +0000";
layers = (
{
layerId = "E6BC66B7-46A3-4CBE-A067-18EBCB5231B7";
name = "Bold Italic";
paths = (
{
closed = 1;
nodes = (
"212 0 LINE",
"221 48 LINE",
"190 48 LINE SMOOTH",
"159 48 OFFCURVE",
"145 58 OFFCURVE",
"145 78 CURVE SMOOTH",
"145 81 OFFCURVE",
"145 84 OFFCURVE",
"146 88 CURVE SMOOTH",
"247 581 LINE",
"539 0 LINE",
"639 0 LINE",
"764 612 LINE SMOOTH",
"768 638 OFFCURVE",
"787 652 OFFCURVE",
"823 652 CURVE SMOOTH",
"854 652 LINE",
"863 700 LINE",
"621 700 LINE",
"612 652 LINE",
"643 652 LINE SMOOTH",
"674 652 OFFCURVE",
"688 642 OFFCURVE",
"688 622 CURVE SMOOTH",
"688 619 OFFCURVE",
"688 616 OFFCURVE",
"687 612 CURVE SMOOTH",
"613 251 LINE",
"383 700 LINE",
"112 700 LINE",
"102 652 LINE",
"133 652 LINE SMOOTH",
"164 652 OFFCURVE",
"178 642 OFFCURVE",
"178 622 CURVE SMOOTH",
"178 619 OFFCURVE",
"178 616 OFFCURVE",
"177 612 CURVE SMOOTH",
"69 88 LINE SMOOTH",
"65 62 OFFCURVE",
"46 48 OFFCURVE",
"10 48 CURVE SMOOTH",
"-21 48 LINE",
"-30 0 LINE"
);
}
);
width = 771;
}
);
note = N;
unicode = 004E;
},
{
glyphname = Nacute;
lastChange = "2015-12-01 14:00:36 +0000";
layers = (
{
layerId = "E6BC66B7-46A3-4CBE-A067-18EBCB5231B7";
name = "Bold Italic";
paths = (
{
closed = 1;
nodes = (
"212 0 LINE",
"221 48 LINE",
"190 48 LINE SMOOTH",
"159 48 OFFCURVE",
"145 58 OFFCURVE",
"145 78 CURVE SMOOTH",
"145 81 OFFCURVE",
"145 84 OFFCURVE",
"146 88 CURVE SMOOTH",
"247 581 LINE",
"539 0 LINE",
"639 0 LINE",
"764 612 LINE SMOOTH",
"768 638 OFFCURVE",
"787 652 OFFCURVE",
"823 652 CURVE SMOOTH",
"854 652 LINE",
"863 700 LINE",
"621 700 LINE",
"612 652 LINE",
"643 652 LINE SMOOTH",
"674 652 OFFCURVE",
"688 642 OFFCURVE",
"688 622 CURVE SMOOTH",
"688 619 OFFCURVE",
"688 616 OFFCURVE",
"687 612 CURVE SMOOTH",
"613 251 LINE",
"383 700 LINE",
"112 700 LINE",
"102 652 LINE",
"133 652 LINE SMOOTH",
"164 652 OFFCURVE",
"178 642 OFFCURVE",
"178 622 CURVE SMOOTH",
"178 619 OFFCURVE",
"178 616 OFFCURVE",
"177 612 CURVE SMOOTH",
"69 88 LINE SMOOTH",
"65 62 OFFCURVE",
"46 48 OFFCURVE",
"10 48 CURVE SMOOTH",
"-21 48 LINE",
"-30 0 LINE"
);
},
{
closed = 1;
nodes = (
"628 874 LINE SMOOTH",
"669 897 OFFCURVE",
"696 920 OFFCURVE",
"702 950 CURVE",
"703 954 OFFCURVE",
"703 958 OFFCURVE",
"703 962 CURVE SMOOTH",
"703 983 OFFCURVE",
"690 1005 OFFCURVE",
"652 1005 CURVE SMOOTH",
"613 1005 OFFCURVE",
"576 969 OFFCURVE",
"569 962 CURVE SMOOTH",
"418 823 LINE",
"443 773 LINE"
);
}
);
width = 771;
}
);
note = Nacute;
unicode = 0143;
},
{
glyphname = Ncaron;
lastChange = "2015-12-01 14:00:37 +0000";
layers = (
{
layerId = "E6BC66B7-46A3-4CBE-A067-18EBCB5231B7";
name = "Bold Italic";
paths = (
{
closed = 1;
nodes = (
"212 0 LINE",
"221 48 LINE",
"190 48 LINE SMOOTH",
"159 48 OFFCURVE",
"145 58 OFFCURVE",
"145 78 CURVE SMOOTH",
"145 81 OFFCURVE",
"145 84 OFFCURVE",
"146 88 CURVE SMOOTH",
"247 581 LINE",
"539 0 LINE",
"639 0 LINE",
"764 612 LINE SMOOTH",
"768 638 OFFCURVE",
"787 652 OFFCURVE",
"823 652 CURVE SMOOTH",
"854 652 LINE",
"863 700 LINE",
"621 700 LINE",
"612 652 LINE",
"643 652 LINE SMOOTH",
"674 652 OFFCURVE",
"688 642 OFFCURVE",
"688 622 CURVE SMOOTH",
"688 619 OFFCURVE",
"688 616 OFFCURVE",
"687 612 CURVE SMOOTH",
"613 251 LINE",
"383 700 LINE",
"112 700 LINE",
"102 652 LINE",
"133 652 LINE SMOOTH",
"164 652 OFFCURVE",
"178 642 OFFCURVE",
"178 622 CURVE SMOOTH",
"178 619 OFFCURVE",
"178 616 OFFCURVE",
"177 612 CURVE SMOOTH",
"69 88 LINE SMOOTH",
"65 62 OFFCURVE",
"46 48 OFFCURVE",
"10 48 CURVE SMOOTH",
"-21 48 LINE",
"-30 0 LINE"
);
},
{
closed = 1;
nodes = (
"539 775 LINE",
"734 960 LINE",
"714 990 LINE",
"556 887 LINE SMOOTH",
"538 875 OFFCURVE",
"522 866 OFFCURVE",
"510 866 CURVE SMOOTH",
"500 866 OFFCURVE",
"486 875 OFFCURVE",
"472 887 CURVE",
"357 990 LINE",
"326 960 LINE",
"443 775 LINE"
);
}
);
width = 771;
}
);
note = Ncaron;
unicode = 0147;
},
{
glyphname = Ncommaaccent;
lastChange = "2015-12-01 14:00:35 +0000";
layers = (
{
layerId = "E6BC66B7-46A3-4CBE-A067-18EBCB5231B7";
name = "Bold Italic";
paths = (
{
closed = 1;
nodes = (
"212 0 LINE",
"221 48 LINE",
"190 48 LINE SMOOTH",
"159 48 OFFCURVE",
"145 58 OFFCURVE",
"145 78 CURVE SMOOTH",
"145 81 OFFCURVE",
"145 84 OFFCURVE",
"146 88 CURVE SMOOTH",
"247 581 LINE",
"539 0 LINE",
"639 0 LINE",
"764 612 LINE SMOOTH",
"768 638 OFFCURVE",
"787 652 OFFCURVE",
"823 652 CURVE SMOOTH",
"854 652 LINE",
"863 700 LINE",
"621 700 LINE",
"612 652 LINE",
"643 652 LINE SMOOTH",
"674 652 OFFCURVE",
"688 642 OFFCURVE",
"688 622 CURVE SMOOTH",
"688 619 OFFCURVE",
"688 616 OFFCURVE",
"687 612 CURVE SMOOTH",
"613 251 LINE",
"383 700 LINE",
"112 700 LINE",
"102 652 LINE",
"133 652 LINE SMOOTH",
"164 652 OFFCURVE",
"178 642 OFFCURVE",
"178 622 CURVE SMOOTH",
"178 619 OFFCURVE",
"178 616 OFFCURVE",
"177 612 CURVE SMOOTH",
"69 88 LINE SMOOTH",
"65 62 OFFCURVE",
"46 48 OFFCURVE",
"10 48 CURVE SMOOTH",
"-21 48 LINE",
"-30 0 LINE"
);
},
{
closed = 1;
nodes = (
"272 -364 OFFCURVE",
"372 -275 OFFCURVE",
"390 -187 CURVE SMOOTH",
"392 -176 OFFCURVE",
"393 -165 OFFCURVE",
"393 -156 CURVE SMOOTH",
"393 -106 OFFCURVE",
"366 -77 OFFCURVE",
"324 -77 CURVE SMOOTH",
"271 -77 OFFCURVE",
"233 -118 OFFCURVE",
"233 -158 CURVE SMOOTH",
"233 -191 OFFCURVE",
"258 -210 OFFCURVE",
"258 -243 CURVE SMOOTH",
"258 -247 OFFCURVE",
"257 -252 OFFCURVE",
"256 -257 CURVE SMOOTH",
"246 -303 OFFCURVE",
"213 -344 OFFCURVE",
"172 -381 CURVE",
"196 -409 LINE"
);
}
);
width = 771;
}
);
note = Ncommaaccent;
unicode = 0145;
},
{
glyphname = Ndotaccent;
lastChange = "2015-12-01 14:00:36 +0000";
layers = (
{
layerId = "E6BC66B7-46A3-4CBE-A067-18EBCB5231B7";
name = "Bold Italic";
paths = (
{
closed = 1;
nodes = (
"212 0 LINE",
"221 48 LINE",
"190 48 LINE SMOOTH",
"159 48 OFFCURVE",
"145 58 OFFCURVE",
"145 78 CURVE SMOOTH",
"145 81 OFFCURVE",
"145 84 OFFCURVE",
"146 88 CURVE SMOOTH",
"247 581 LINE",
"539 0 LINE",
"639 0 LINE",
"764 612 LINE SMOOTH",
"768 638 OFFCURVE",
"787 652 OFFCURVE",
"823 652 CURVE SMOOTH",
"854 652 LINE",
"863 700 LINE",
"621 700 LINE",
"612 652 LINE",
"643 652 LINE SMOOTH",
"674 652 OFFCURVE",
"688 642 OFFCURVE",
"688 622 CURVE SMOOTH",
"688 619 OFFCURVE",
"688 616 OFFCURVE",
"687 612 CURVE SMOOTH",
"613 251 LINE",
"383 700 LINE",
"112 700 LINE",
"102 652 LINE",
"133 652 LINE SMOOTH",
"164 652 OFFCURVE",
"178 642 OFFCURVE",
"178 622 CURVE SMOOTH",
"178 619 OFFCURVE",
"178 616 OFFCURVE",
"177 612 CURVE SMOOTH",
"69 88 LINE SMOOTH",
"65 62 OFFCURVE",
"46 48 OFFCURVE",
"10 48 CURVE SMOOTH",
"-21 48 LINE",
"-30 0 LINE"
);
},
{
closed = 1;
nodes = (
"552 775 OFFCURVE",
"592 818 OFFCURVE",
"592 868 CURVE SMOOTH",
"592 901 OFFCURVE",
"571 926 OFFCURVE",
"532 926 CURVE SMOOTH",
"480 926 OFFCURVE",
"443 882 OFFCURVE",
"443 832 CURVE SMOOTH",
"443 799 OFFCURVE",
"463 775 OFFCURVE",
"501 775 CURVE SMOOTH"
);
}
);
width = 771;
}
);
note = Ndotaccent;
unicode = 1E44;
},
{
glyphname = Ndotbelow;
lastChange = "2015-12-01 14:00:36 +0000";
layers = (
{
layerId = "E6BC66B7-46A3-4CBE-A067-18EBCB5231B7";
name = "Bold Italic";
paths = (
{
closed = 1;
nodes = (
"212 0 LINE",
"221 48 LINE",
"190 48 LINE SMOOTH",
"159 48 OFFCURVE",
"145 58 OFFCURVE",
"145 78 CURVE SMOOTH",
"145 81 OFFCURVE",
"145 84 OFFCURVE",
"146 88 CURVE SMOOTH",
"247 581 LINE",
"539 0 LINE",
"639 0 LINE",
"764 612 LINE SMOOTH",
"768 638 OFFCURVE",
"787 652 OFFCURVE",
"823 652 CURVE SMOOTH",
"854 652 LINE",
"863 700 LINE",
"621 700 LINE",
"612 652 LINE",
"643 652 LINE SMOOTH",
"674 652 OFFCURVE",
"688 642 OFFCURVE",
"688 622 CURVE SMOOTH",
"688 619 OFFCURVE",
"688 616 OFFCURVE",
"687 612 CURVE SMOOTH",
"613 251 LINE",
"383 700 LINE",
"112 700 LINE",
"102 652 LINE",
"133 652 LINE SMOOTH",
"164 652 OFFCURVE",
"178 642 OFFCURVE",
"178 622 CURVE SMOOTH",
"178 619 OFFCURVE",
"178 616 OFFCURVE",
"177 612 CURVE SMOOTH",
"69 88 LINE SMOOTH",
"65 62 OFFCURVE",
"46 48 OFFCURVE",
"10 48 CURVE SMOOTH",
"-21 48 LINE",
"-30 0 LINE"
);
},
{
closed = 1;
nodes = (
"353 -216 OFFCURVE",
"392 -174 OFFCURVE",
"392 -124 CURVE SMOOTH",
"392 -90 OFFCURVE",
"371 -64 OFFCURVE",
"332 -64 CURVE SMOOTH",
"282 -64 OFFCURVE",
"242 -109 OFFCURVE",
"242 -159 CURVE SMOOTH",
"242 -192 OFFCURVE",
"263 -216 OFFCURVE",
"302 -216 CURVE SMOOTH"
);
}
);
width = 771;
}
);
note = uni1E46;
unicode = 1E46;
},
{
glyphname = Eng;
lastChange = "2015-12-01 14:00:32 +0000";
layers = (
{
layerId = "E6BC66B7-46A3-4CBE-A067-18EBCB5231B7";
name = "Bold Italic";
paths = (
{
closed = 1;
nodes = (
"445 -323 OFFCURVE",
"588 -248 OFFCURVE",
"624 -66 CURVE SMOOTH",
"764 612 LINE SMOOTH",
"768 638 OFFCURVE",
"787 652 OFFCURVE",
"823 652 CURVE SMOOTH",
"854 652 LINE",
"863 700 LINE",
"621 700 LINE",
"612 652 LINE",
"643 652 LINE SMOOTH",
"674 652 OFFCURVE",
"688 642 OFFCURVE",
"688 622 CURVE SMOOTH",
"688 619 OFFCURVE",
"688 616 OFFCURVE",
"687 612 CURVE SMOOTH",
"613 251 LINE",
"383 700 LINE",
"112 700 LINE",
"102 652 LINE",
"133 652 LINE SMOOTH",
"164 652 OFFCURVE",
"178 642 OFFCURVE",
"178 622 CURVE SMOOTH",
"178 619 OFFCURVE",
"178 616 OFFCURVE",
"177 612 CURVE SMOOTH",
"69 88 LINE SMOOTH",
"65 62 OFFCURVE",
"46 48 OFFCURVE",
"10 48 CURVE SMOOTH",
"-21 48 LINE",
"-30 0 LINE",
"212 0 LINE",
"221 48 LINE",
"190 48 LINE SMOOTH",
"159 48 OFFCURVE",
"145 58 OFFCURVE",
"145 78 CURVE SMOOTH",
"145 81 OFFCURVE",
"145 84 OFFCURVE",
"146 88 CURVE SMOOTH",
"247 581 LINE",
"539 0 LINE",
"519 -96 LINE SMOOTH",
"498 -202 OFFCURVE",
"377 -284 OFFCURVE",
"269 -284 CURVE",
"267 -323 LINE"
);
}
);
width = 771;
}
);
note = Eng;
unicode = 014A;
},
{
glyphname = Nlinebelow;
lastChange = "2015-12-01 14:00:36 +0000";
layers = (
{
layerId = "E6BC66B7-46A3-4CBE-A067-18EBCB5231B7";
name = "Bold Italic";
paths = (
{
closed = 1;
nodes = (
"212 0 LINE",
"221 48 LINE",
"190 48 LINE SMOOTH",
"159 48 OFFCURVE",
"145 58 OFFCURVE",
"145 78 CURVE SMOOTH",
"145 81 OFFCURVE",
"145 84 OFFCURVE",
"146 88 CURVE SMOOTH",
"247 581 LINE",
"539 0 LINE",
"639 0 LINE",
"764 612 LINE SMOOTH",
"768 638 OFFCURVE",
"787 652 OFFCURVE",
"823 652 CURVE SMOOTH",
"854 652 LINE",
"863 700 LINE",
"621 700 LINE",
"612 652 LINE",
"643 652 LINE SMOOTH",
"674 652 OFFCURVE",
"688 642 OFFCURVE",
"688 622 CURVE SMOOTH",
"688 619 OFFCURVE",
"688 616 OFFCURVE",
"687 612 CURVE SMOOTH",
"613 251 LINE",
"383 700 LINE",
"112 700 LINE",
"102 652 LINE",
"133 652 LINE SMOOTH",
"164 652 OFFCURVE",
"178 642 OFFCURVE",
"178 622 CURVE SMOOTH",
"178 619 OFFCURVE",
"178 616 OFFCURVE",
"177 612 CURVE SMOOTH",
"69 88 LINE SMOOTH",
"65 62 OFFCURVE",
"46 48 OFFCURVE",
"10 48 CURVE SMOOTH",
"-21 48 LINE",
"-30 0 LINE"
);
},
{
closed = 1;
nodes = (
"524 -130 LINE",
"538 -64 LINE",
"126 -64 LINE",
"113 -130 LINE"
);
}
);
width = 771;
}
);
note = Nlinebelow;
unicode = 1E48;
},
{
glyphname = Ntilde;
lastChange = "2015-12-01 14:00:36 +0000";
layers = (
{
layerId = "E6BC66B7-46A3-4CBE-A067-18EBCB5231B7";
name = "Bold Italic";
paths = (
{
closed = 1;
nodes = (
"212 0 LINE",
"221 48 LINE",
"190 48 LINE SMOOTH",
"159 48 OFFCURVE",
"145 58 OFFCURVE",
"145 78 CURVE SMOOTH",
"145 81 OFFCURVE",
"145 84 OFFCURVE",
"146 88 CURVE SMOOTH",
"247 581 LINE",
"539 0 LINE",
"639 0 LINE",
"764 612 LINE SMOOTH",
"768 638 OFFCURVE",
"787 652 OFFCURVE",
"823 652 CURVE SMOOTH",
"854 652 LINE",
"863 700 LINE",
"621 700 LINE",
"612 652 LINE",
"643 652 LINE SMOOTH",
"674 652 OFFCURVE",
"688 642 OFFCURVE",
"688 622 CURVE SMOOTH",
"688 619 OFFCURVE",
"688 616 OFFCURVE",
"687 612 CURVE SMOOTH",
"613 251 LINE",
"383 700 LINE",
"112 700 LINE",
"102 652 LINE",
"133 652 LINE SMOOTH",
"164 652 OFFCURVE",
"178 642 OFFCURVE",
"178 622 CURVE SMOOTH",
"178 619 OFFCURVE",
"178 616 OFFCURVE",
"177 612 CURVE SMOOTH",
"69 88 LINE SMOOTH",
"65 62 OFFCURVE",
"46 48 OFFCURVE",
"10 48 CURVE SMOOTH",
"-21 48 LINE",
"-30 0 LINE"
);
},
{
closed = 1;
nodes = (
"368 810 OFFCURVE",
"386 827 OFFCURVE",
"424 827 CURVE SMOOTH",
"488 827 OFFCURVE",
"536 783 OFFCURVE",
"597 783 CURVE SMOOTH",
"679 783 OFFCURVE",
"731 866 OFFCURVE",
"757 910 CURVE",
"729 929 LINE",
"698 888 OFFCURVE",
"681 872 OFFCURVE",
"644 872 CURVE SMOOTH",
"579 872 OFFCURVE",
"532 916 OFFCURVE",
"470 916 CURVE SMOOTH",
"388 916 OFFCURVE",
"336 833 OFFCURVE",
"308 789 CURVE",
"337 770 LINE"
);
}
);
width = 771;
}
);
note = Ntilde;
unicode = 00D1;
},
{
glyphname = O;
lastChange = "2015-12-01 14:00:36 +0000";
layers = (
{
layerId = "E6BC66B7-46A3-4CBE-A067-18EBCB5231B7";
name = "Bold Italic";
paths = (
{
closed = 1;
nodes = (
"624 -10 OFFCURVE",
"765 138 OFFCURVE",
"809 350 CURVE SMOOTH",
"816 386 OFFCURVE",
"819 419 OFFCURVE",
"819 451 CURVE SMOOTH",
"819 607 OFFCURVE",
"727 710 OFFCURVE",
"507 710 CURVE SMOOTH",
"243 710 OFFCURVE",
"103 562 OFFCURVE",
"60 350 CURVE SMOOTH",
"52 314 OFFCURVE",
"48 280 OFFCURVE",
"48 249 CURVE SMOOTH",
"48 92 OFFCURVE",
"140 -10 OFFCURVE",
"360 -10 CURVE SMOOTH"
);
},
{
closed = 1;
nodes = (
"293 62 OFFCURVE",
"249 122 OFFCURVE",
"249 232 CURVE SMOOTH",
"249 266 OFFCURVE",
"254 306 OFFCURVE",
"262 350 CURVE SMOOTH",
"300 534 OFFCURVE",
"385 640 OFFCURVE",
"493 640 CURVE SMOOTH",
"575 640 OFFCURVE",
"620 579 OFFCURVE",
"620 469 CURVE SMOOTH",
"620 434 OFFCURVE",
"615 394 OFFCURVE",
"606 350 CURVE SMOOTH",
"569 166 OFFCURVE",
"484 62 OFFCURVE",
"375 62 CURVE SMOOTH"
);
}
);
width = 806;
}
);
leftKerningGroup = O;
note = O;
rightKerningGroup = O;
unicode = 004F;
},
{
glyphname = Oacute;
lastChange = "2015-12-01 14:00:36 +0000";
layers = (
{
layerId = "E6BC66B7-46A3-4CBE-A067-18EBCB5231B7";
name = "Bold Italic";
paths = (
{
closed = 1;
nodes = (
"624 -10 OFFCURVE",
"765 138 OFFCURVE",
"809 350 CURVE SMOOTH",
"816 386 OFFCURVE",
"819 419 OFFCURVE",
"819 451 CURVE SMOOTH",
"819 607 OFFCURVE",
"727 710 OFFCURVE",
"507 710 CURVE SMOOTH",
"243 710 OFFCURVE",
"103 562 OFFCURVE",
"60 350 CURVE SMOOTH",
"52 314 OFFCURVE",
"48 280 OFFCURVE",
"48 249 CURVE SMOOTH",
"48 92 OFFCURVE",
"140 -10 OFFCURVE",
"360 -10 CURVE SMOOTH"
);
},
{
closed = 1;
nodes = (
"293 62 OFFCURVE",
"249 122 OFFCURVE",
"249 232 CURVE SMOOTH",
"249 266 OFFCURVE",
"254 306 OFFCURVE",
"262 350 CURVE SMOOTH",
"300 534 OFFCURVE",
"385 640 OFFCURVE",
"493 640 CURVE SMOOTH",
"575 640 OFFCURVE",
"620 579 OFFCURVE",
"620 469 CURVE SMOOTH",
"620 434 OFFCURVE",
"615 394 OFFCURVE",
"606 350 CURVE SMOOTH",
"569 166 OFFCURVE",
"484 62 OFFCURVE",
"375 62 CURVE SMOOTH"
);
},
{
closed = 1;
nodes = (
"611 874 LINE SMOOTH",
"652 897 OFFCURVE",
"679 920 OFFCURVE",
"685 950 CURVE",
"686 954 OFFCURVE",
"686 958 OFFCURVE",
"686 962 CURVE SMOOTH",
"686 983 OFFCURVE",
"672 1005 OFFCURVE",
"635 1005 CURVE SMOOTH",
"596 1005 OFFCURVE",
"559 969 OFFCURVE",
"551 962 CURVE SMOOTH",
"401 823 LINE",
"426 773 LINE"
);
}
);
width = 806;
}
);
leftKerningGroup = O;
note = Oacute;
rightKerningGroup = O;
unicode = 00D3;
},
{
glyphname = Obreve;
lastChange = "2015-12-01 14:00:37 +0000";
layers = (
{
layerId = "E6BC66B7-46A3-4CBE-A067-18EBCB5231B7";
name = "Bold Italic";
paths = (
{
closed = 1;
nodes = (
"624 -10 OFFCURVE",
"765 138 OFFCURVE",
"809 350 CURVE SMOOTH",
"816 386 OFFCURVE",
"819 419 OFFCURVE",
"819 451 CURVE SMOOTH",
"819 607 OFFCURVE",
"727 710 OFFCURVE",
"507 710 CURVE SMOOTH",
"243 710 OFFCURVE",
"103 562 OFFCURVE",
"60 350 CURVE SMOOTH",
"52 314 OFFCURVE",
"48 280 OFFCURVE",
"48 249 CURVE SMOOTH",
"48 92 OFFCURVE",
"140 -10 OFFCURVE",
"360 -10 CURVE SMOOTH"
);
},
{
closed = 1;
nodes = (
"293 62 OFFCURVE",
"249 122 OFFCURVE",
"249 232 CURVE SMOOTH",
"249 266 OFFCURVE",
"254 306 OFFCURVE",
"262 350 CURVE SMOOTH",
"300 534 OFFCURVE",
"385 640 OFFCURVE",
"493 640 CURVE SMOOTH",
"575 640 OFFCURVE",
"620 579 OFFCURVE",
"620 469 CURVE SMOOTH",
"620 434 OFFCURVE",
"615 394 OFFCURVE",
"606 350 CURVE SMOOTH",
"569 166 OFFCURVE",
"484 62 OFFCURVE",
"375 62 CURVE SMOOTH"
);
},
{
closed = 1;
nodes = (
"663 777 OFFCURVE",
"705 867 OFFCURVE",
"719 937 CURVE",
"675 937 LINE",
"668 913 OFFCURVE",
"638 860 OFFCURVE",
"536 860 CURVE SMOOTH",
"434 860 OFFCURVE",
"427 913 OFFCURVE",
"429 937 CURVE",
"387 937 LINE",
"383 920 OFFCURVE",
"381 903 OFFCURVE",
"381 886 CURVE SMOOTH",
"381 828 OFFCURVE",
"410 777 OFFCURVE",
"521 777 CURVE SMOOTH"
);
}
);
width = 806;
}
);
leftKerningGroup = O;
note = Obreve;
rightKerningGroup = O;
unicode = 014E;
},
{
glyphname = Ocaron;
lastChange = "2015-12-01 14:00:36 +0000";
layers = (
{
layerId = "E6BC66B7-46A3-4CBE-A067-18EBCB5231B7";
name = "Bold Italic";
paths = (
{
closed = 1;
nodes = (
"624 -10 OFFCURVE",
"765 138 OFFCURVE",
"809 350 CURVE SMOOTH",
"816 386 OFFCURVE",
"819 419 OFFCURVE",
"819 451 CURVE SMOOTH",
"819 607 OFFCURVE",
"727 710 OFFCURVE",
"507 710 CURVE SMOOTH",
"243 710 OFFCURVE",
"103 562 OFFCURVE",
"60 350 CURVE SMOOTH",
"52 314 OFFCURVE",
"48 280 OFFCURVE",
"48 249 CURVE SMOOTH",
"48 92 OFFCURVE",
"140 -10 OFFCURVE",
"360 -10 CURVE SMOOTH"
);
},
{
closed = 1;
nodes = (
"293 62 OFFCURVE",
"249 122 OFFCURVE",
"249 232 CURVE SMOOTH",
"249 266 OFFCURVE",
"254 306 OFFCURVE",
"262 350 CURVE SMOOTH",
"300 534 OFFCURVE",
"385 640 OFFCURVE",
"493 640 CURVE SMOOTH",
"575 640 OFFCURVE",
"620 579 OFFCURVE",
"620 469 CURVE SMOOTH",
"620 434 OFFCURVE",
"615 394 OFFCURVE",
"606 350 CURVE SMOOTH",
"569 166 OFFCURVE",
"484 62 OFFCURVE",
"375 62 CURVE SMOOTH"
);
},
{
closed = 1;
nodes = (
"568 775 LINE",
"763 960 LINE",
"742 990 LINE",
"585 887 LINE SMOOTH",
"567 875 OFFCURVE",
"550 866 OFFCURVE",
"539 866 CURVE SMOOTH",
"528 866 OFFCURVE",
"515 875 OFFCURVE",
"500 887 CURVE",
"386 990 LINE",
"355 960 LINE",
"472 775 LINE"
);
}
);
width = 806;
}
);
leftKerningGroup = O;
note = Ocaron;
rightKerningGroup = O;
unicode = 01D1;
},
{
glyphname = Ocircumflex;
lastChange = "2015-12-01 14:00:35 +0000";
layers = (
{
layerId = "E6BC66B7-46A3-4CBE-A067-18EBCB5231B7";
name = "Bold Italic";
paths = (
{
closed = 1;
nodes = (
"624 -10 OFFCURVE",
"765 138 OFFCURVE",
"809 350 CURVE SMOOTH",
"816 386 OFFCURVE",
"819 419 OFFCURVE",
"819 451 CURVE SMOOTH",
"819 607 OFFCURVE",
"727 710 OFFCURVE",
"507 710 CURVE SMOOTH",
"243 710 OFFCURVE",
"103 562 OFFCURVE",
"60 350 CURVE SMOOTH",
"52 314 OFFCURVE",
"48 280 OFFCURVE",
"48 249 CURVE SMOOTH",
"48 92 OFFCURVE",
"140 -10 OFFCURVE",
"360 -10 CURVE SMOOTH"
);
},
{
closed = 1;
nodes = (
"293 62 OFFCURVE",
"249 122 OFFCURVE",
"249 232 CURVE SMOOTH",
"249 266 OFFCURVE",
"254 306 OFFCURVE",
"262 350 CURVE SMOOTH",
"300 534 OFFCURVE",
"385 640 OFFCURVE",
"493 640 CURVE SMOOTH",
"575 640 OFFCURVE",
"620 579 OFFCURVE",
"620 469 CURVE SMOOTH",
"620 434 OFFCURVE",
"615 394 OFFCURVE",
"606 350 CURVE SMOOTH",
"569 166 OFFCURVE",
"484 62 OFFCURVE",
"375 62 CURVE SMOOTH"
);
},
{
closed = 1;
nodes = (
"499 878 LINE SMOOTH",
"518 890 OFFCURVE",
"535 899 OFFCURVE",
"546 899 CURVE SMOOTH",
"557 899 OFFCURVE",
"570 890 OFFCURVE",
"583 878 CURVE SMOOTH",
"698 775 LINE",
"731 805 LINE",
"612 990 LINE",
"516 990 LINE",
"323 805 LINE",
"342 775 LINE"
);
}
);
width = 806;
}
);
leftKerningGroup = O;
note = Ocircumflex;
rightKerningGroup = O;
unicode = 00D4;
},
{
glyphname = Ocircumflexacute;
lastChange = "2015-12-01 14:00:36 +0000";
layers = (
{
layerId = "E6BC66B7-46A3-4CBE-A067-18EBCB5231B7";
name = "Bold Italic";
paths = (
{
closed = 1;
nodes = (
"624 -10 OFFCURVE",
"765 138 OFFCURVE",
"809 350 CURVE SMOOTH",
"816 386 OFFCURVE",
"819 419 OFFCURVE",
"819 451 CURVE SMOOTH",
"819 607 OFFCURVE",
"727 710 OFFCURVE",
"507 710 CURVE SMOOTH",
"243 710 OFFCURVE",
"103 562 OFFCURVE",
"60 350 CURVE SMOOTH",
"52 314 OFFCURVE",
"48 280 OFFCURVE",
"48 249 CURVE SMOOTH",
"48 92 OFFCURVE",
"140 -10 OFFCURVE",
"360 -10 CURVE SMOOTH"
);
},
{
closed = 1;
nodes = (
"293 62 OFFCURVE",
"249 122 OFFCURVE",
"249 232 CURVE SMOOTH",
"249 266 OFFCURVE",
"254 306 OFFCURVE",
"262 350 CURVE SMOOTH",
"300 534 OFFCURVE",
"385 640 OFFCURVE",
"493 640 CURVE SMOOTH",
"575 640 OFFCURVE",
"620 579 OFFCURVE",
"620 469 CURVE SMOOTH",
"620 434 OFFCURVE",
"615 394 OFFCURVE",
"606 350 CURVE SMOOTH",
"569 166 OFFCURVE",
"484 62 OFFCURVE",
"375 62 CURVE SMOOTH"
);
},
{
closed = 1;
nodes = (
"500 876 LINE SMOOTH",
"519 888 OFFCURVE",
"534 897 OFFCURVE",
"545 897 CURVE SMOOTH",
"556 897 OFFCURVE",
"569 888 OFFCURVE",
"581 876 CURVE SMOOTH",
"691 773 LINE",
"721 803 LINE",
"610 988 LINE",
"518 988 LINE",
"329 803 LINE",
"348 773 LINE"
);
},
{
closed = 1;
nodes = (
"822 975 LINE SMOOTH",
"872 999 OFFCURVE",
"906 1028 OFFCURVE",
"906 1063 CURVE SMOOTH",
"906 1085 OFFCURVE",
"893 1111 OFFCURVE",
"855 1111 CURVE SMOOTH",
"820 1111 OFFCURVE",
"787 1080 OFFCURVE",
"768 1061 CURVE SMOOTH",
"674 961 LINE",
"696 918 LINE"
);
}
);
width = 806;
}
);
leftKerningGroup = O;
note = Ocircumflexacute;
rightKerningGroup = O;
unicode = 1ED0;
},
{
glyphname = Ocircumflexdotbelow;
lastChange = "2015-12-01 14:05:02 +0000";
layers = (
{
layerId = "E6BC66B7-46A3-4CBE-A067-18EBCB5231B7";
name = "Bold Italic";
paths = (
{
closed = 1;
nodes = (
"624 -10 OFFCURVE",
"765 138 OFFCURVE",
"809 350 CURVE SMOOTH",
"816 386 OFFCURVE",
"819 419 OFFCURVE",
"819 451 CURVE SMOOTH",
"819 607 OFFCURVE",
"727 710 OFFCURVE",
"507 710 CURVE SMOOTH",
"243 710 OFFCURVE",
"103 562 OFFCURVE",
"60 350 CURVE SMOOTH",
"52 314 OFFCURVE",
"48 280 OFFCURVE",
"48 249 CURVE SMOOTH",
"48 92 OFFCURVE",
"140 -10 OFFCURVE",
"360 -10 CURVE SMOOTH"
);
},
{
closed = 1;
nodes = (
"293 62 OFFCURVE",
"249 122 OFFCURVE",
"249 232 CURVE SMOOTH",
"249 266 OFFCURVE",
"254 306 OFFCURVE",
"262 350 CURVE SMOOTH",
"300 534 OFFCURVE",
"385 640 OFFCURVE",
"493 640 CURVE SMOOTH",
"575 640 OFFCURVE",
"620 579 OFFCURVE",
"620 469 CURVE SMOOTH",
"620 434 OFFCURVE",
"615 394 OFFCURVE",
"606 350 CURVE SMOOTH",
"569 166 OFFCURVE",
"484 62 OFFCURVE",
"375 62 CURVE SMOOTH"
);
},
{
closed = 1;
nodes = (
"499 878 LINE SMOOTH",
"518 890 OFFCURVE",
"535 899 OFFCURVE",
"546 899 CURVE SMOOTH",
"557 899 OFFCURVE",
"570 890 OFFCURVE",
"583 878 CURVE SMOOTH",
"698 775 LINE",
"731 805 LINE",
"612 990 LINE",
"516 990 LINE",
"323 805 LINE",
"342 775 LINE"
);
},
{
closed = 1;
nodes = (
"350 -216 OFFCURVE",
"389 -174 OFFCURVE",
"389 -124 CURVE SMOOTH",
"389 -90 OFFCURVE",
"368 -64 OFFCURVE",
"330 -64 CURVE SMOOTH",
"279 -64 OFFCURVE",
"239 -109 OFFCURVE",
"239 -159 CURVE SMOOTH",
"239 -192 OFFCURVE",
"260 -216 OFFCURVE",
"299 -216 CURVE SMOOTH"
);
}
);
width = 806;
}
);
leftKerningGroup = O;
note = Ocircumflexdotbelow;
rightKerningGroup = O;
unicode = 1ED8;
},
{
glyphname = Ocircumflexgrave;
lastChange = "2015-12-01 14:00:36 +0000";
layers = (
{
layerId = "E6BC66B7-46A3-4CBE-A067-18EBCB5231B7";
name = "Bold Italic";
paths = (
{
closed = 1;
nodes = (
"624 -10 OFFCURVE",
"765 138 OFFCURVE",
"809 350 CURVE SMOOTH",
"816 386 OFFCURVE",
"819 419 OFFCURVE",
"819 451 CURVE SMOOTH",
"819 607 OFFCURVE",
"727 710 OFFCURVE",
"507 710 CURVE SMOOTH",
"243 710 OFFCURVE",
"103 562 OFFCURVE",
"60 350 CURVE SMOOTH",
"52 314 OFFCURVE",
"48 280 OFFCURVE",
"48 249 CURVE SMOOTH",
"48 92 OFFCURVE",
"140 -10 OFFCURVE",
"360 -10 CURVE SMOOTH"
);
},
{
closed = 1;
nodes = (
"293 62 OFFCURVE",
"249 122 OFFCURVE",
"249 232 CURVE SMOOTH",
"249 266 OFFCURVE",
"254 306 OFFCURVE",
"262 350 CURVE SMOOTH",
"300 534 OFFCURVE",
"385 640 OFFCURVE",
"493 640 CURVE SMOOTH",
"575 640 OFFCURVE",
"620 579 OFFCURVE",
"620 469 CURVE SMOOTH",
"620 434 OFFCURVE",
"615 394 OFFCURVE",
"606 350 CURVE SMOOTH",
"569 166 OFFCURVE",
"484 62 OFFCURVE",
"375 62 CURVE SMOOTH"
);
},
{
closed = 1;
nodes = (
"443 961 LINE",
"387 1061 LINE SMOOTH",
"377 1080 OFFCURVE",
"357 1111 OFFCURVE",
"323 1111 CURVE SMOOTH",
"278 1111 OFFCURVE",
"253 1075 OFFCURVE",
"248 1052 CURVE SMOOTH",
"247 1049 OFFCURVE",
"247 1045 OFFCURVE",
"247 1042 CURVE SMOOTH",
"247 1016 OFFCURVE",
"266 994 OFFCURVE",
"300 975 CURVE SMOOTH",
"402 918 LINE"
);
},
{
closed = 1;
nodes = (
"500 876 LINE SMOOTH",
"519 888 OFFCURVE",
"534 897 OFFCURVE",
"545 897 CURVE SMOOTH",
"556 897 OFFCURVE",
"569 888 OFFCURVE",
"581 876 CURVE SMOOTH",
"691 773 LINE",
"721 803 LINE",
"610 988 LINE",
"518 988 LINE",
"329 803 LINE",
"348 773 LINE"
);
}
);
width = 806;
}
);
leftKerningGroup = O;
note = Ocircumflexgrave;
rightKerningGroup = O;
unicode = 1ED2;
},
{
glyphname = Ocircumflexhookabove;
lastChange = "2015-12-01 14:00:35 +0000";
layers = (
{
layerId = "E6BC66B7-46A3-4CBE-A067-18EBCB5231B7";
name = "Bold Italic";
paths = (
{
closed = 1;
nodes = (
"624 -10 OFFCURVE",
"765 138 OFFCURVE",
"809 350 CURVE SMOOTH",
"816 386 OFFCURVE",
"819 419 OFFCURVE",
"819 451 CURVE SMOOTH",
"819 607 OFFCURVE",
"727 710 OFFCURVE",
"507 710 CURVE SMOOTH",
"243 710 OFFCURVE",
"103 562 OFFCURVE",
"60 350 CURVE SMOOTH",
"52 314 OFFCURVE",
"48 280 OFFCURVE",
"48 249 CURVE SMOOTH",
"48 92 OFFCURVE",
"140 -10 OFFCURVE",
"360 -10 CURVE SMOOTH"
);
},
{
closed = 1;
nodes = (
"293 62 OFFCURVE",
"249 122 OFFCURVE",
"249 232 CURVE SMOOTH",
"249 266 OFFCURVE",
"254 306 OFFCURVE",
"262 350 CURVE SMOOTH",
"300 534 OFFCURVE",
"385 640 OFFCURVE",
"493 640 CURVE SMOOTH",
"575 640 OFFCURVE",
"620 579 OFFCURVE",
"620 469 CURVE SMOOTH",
"620 434 OFFCURVE",
"615 394 OFFCURVE",
"606 350 CURVE SMOOTH",
"569 166 OFFCURVE",
"484 62 OFFCURVE",
"375 62 CURVE SMOOTH"
);
},
{
closed = 1;
nodes = (
"500 876 LINE SMOOTH",
"518 888 OFFCURVE",
"534 897 OFFCURVE",
"545 897 CURVE SMOOTH",
"556 897 OFFCURVE",
"568 888 OFFCURVE",
"581 876 CURVE SMOOTH",
"691 773 LINE",
"721 803 LINE",
"610 988 LINE",
"518 988 LINE",
"329 803 LINE",
"348 773 LINE"
);
},
{
closed = 1;
nodes = (
"759 946 LINE",
"750 946 OFFCURVE",
"739 948 OFFCURVE",
"739 961 CURVE SMOOTH",
"739 964 OFFCURVE",
"739 966 OFFCURVE",
"740 969 CURVE",
"749 1014 OFFCURVE",
"864 1017 OFFCURVE",
"864 1091 CURVE SMOOTH",
"864 1129 OFFCURVE",
"822 1147 OFFCURVE",
"772 1147 CURVE SMOOTH",
"692 1147 OFFCURVE",
"663 1109 OFFCURVE",
"659 1090 CURVE SMOOTH",
"658 1087 OFFCURVE",
"658 1084 OFFCURVE",
"658 1082 CURVE SMOOTH",
"658 1064 OFFCURVE",
"671 1056 OFFCURVE",
"685 1056 CURVE SMOOTH",
"701 1056 OFFCURVE",
"719 1066 OFFCURVE",
"723 1083 CURVE SMOOTH",
"729 1110 OFFCURVE",
"751 1117 OFFCURVE",
"764 1117 CURVE SMOOTH",
"784 1117 OFFCURVE",
"788 1100 OFFCURVE",
"787 1087 CURVE",
"773 1026 OFFCURVE",
"680 1017 OFFCURVE",
"680 962 CURVE SMOOTH",
"680 936 OFFCURVE",
"712 923 OFFCURVE",
"747 923 CURVE"
);
}
);
width = 806;
}
);
leftKerningGroup = O;
note = Ocircumflexhookabove;
rightKerningGroup = O;
unicode = 1ED4;
},
{
glyphname = Ocircumflextilde;
lastChange = "2015-12-01 14:00:36 +0000";
layers = (
{
layerId = "E6BC66B7-46A3-4CBE-A067-18EBCB5231B7";
name = "Bold Italic";
paths = (
{
closed = 1;
nodes = (
"624 -10 OFFCURVE",
"765 138 OFFCURVE",
"809 350 CURVE SMOOTH",
"816 386 OFFCURVE",
"819 419 OFFCURVE",
"819 451 CURVE SMOOTH",
"819 607 OFFCURVE",
"727 710 OFFCURVE",
"507 710 CURVE SMOOTH",
"243 710 OFFCURVE",
"103 562 OFFCURVE",
"60 350 CURVE SMOOTH",
"52 314 OFFCURVE",
"48 280 OFFCURVE",
"48 249 CURVE SMOOTH",
"48 92 OFFCURVE",
"140 -10 OFFCURVE",
"360 -10 CURVE SMOOTH"
);
},
{
closed = 1;
nodes = (
"293 62 OFFCURVE",
"249 122 OFFCURVE",
"249 232 CURVE SMOOTH",
"249 266 OFFCURVE",
"254 306 OFFCURVE",
"262 350 CURVE SMOOTH",
"300 534 OFFCURVE",
"385 640 OFFCURVE",
"493 640 CURVE SMOOTH",
"575 640 OFFCURVE",
"620 579 OFFCURVE",
"620 469 CURVE SMOOTH",
"620 434 OFFCURVE",
"615 394 OFFCURVE",
"606 350 CURVE SMOOTH",
"569 166 OFFCURVE",
"484 62 OFFCURVE",
"375 62 CURVE SMOOTH"
);
},
{
closed = 1;
nodes = (
"500 876 LINE SMOOTH",
"518 888 OFFCURVE",
"534 897 OFFCURVE",
"545 897 CURVE SMOOTH",
"556 897 OFFCURVE",
"568 888 OFFCURVE",
"581 876 CURVE SMOOTH",
"691 773 LINE",
"721 803 LINE",
"610 988 LINE",
"518 988 LINE",
"329 803 LINE",
"348 773 LINE"
);
},
{
closed = 1;
nodes = (
"431 1042 OFFCURVE",
"450 1059 OFFCURVE",
"483 1059 CURVE SMOOTH",
"541 1059 OFFCURVE",
"582 1015 OFFCURVE",
"638 1015 CURVE SMOOTH",
"710 1015 OFFCURVE",
"760 1098 OFFCURVE",
"784 1142 CURVE",
"759 1161 LINE",
"731 1120 OFFCURVE",
"714 1104 OFFCURVE",
"680 1104 CURVE SMOOTH",
"623 1104 OFFCURVE",
"582 1148 OFFCURVE",
"526 1148 CURVE SMOOTH",
"452 1148 OFFCURVE",
"404 1065 OFFCURVE",
"379 1021 CURVE",
"404 1002 LINE"
);
}
);
width = 806;
}
);
leftKerningGroup = O;
note = Ocircumflextilde;
rightKerningGroup = O;
unicode = 1ED6;
},
{
glyphname = Odieresis;
lastChange = "2015-12-01 14:00:35 +0000";
layers = (
{
layerId = "E6BC66B7-46A3-4CBE-A067-18EBCB5231B7";
name = "Bold Italic";
paths = (
{
closed = 1;
nodes = (
"624 -10 OFFCURVE",
"765 138 OFFCURVE",
"809 350 CURVE SMOOTH",
"816 386 OFFCURVE",
"819 419 OFFCURVE",
"819 451 CURVE SMOOTH",
"819 607 OFFCURVE",
"727 710 OFFCURVE",
"507 710 CURVE SMOOTH",
"243 710 OFFCURVE",
"103 562 OFFCURVE",
"60 350 CURVE SMOOTH",
"52 314 OFFCURVE",
"48 280 OFFCURVE",
"48 249 CURVE SMOOTH",
"48 92 OFFCURVE",
"140 -10 OFFCURVE",
"360 -10 CURVE SMOOTH"
);
},
{
closed = 1;
nodes = (
"293 62 OFFCURVE",
"249 122 OFFCURVE",
"249 232 CURVE SMOOTH",
"249 266 OFFCURVE",
"254 306 OFFCURVE",
"262 350 CURVE SMOOTH",
"300 534 OFFCURVE",
"385 640 OFFCURVE",
"493 640 CURVE SMOOTH",
"575 640 OFFCURVE",
"620 579 OFFCURVE",
"620 469 CURVE SMOOTH",
"620 434 OFFCURVE",
"615 394 OFFCURVE",
"606 350 CURVE SMOOTH",
"569 166 OFFCURVE",
"484 62 OFFCURVE",
"375 62 CURVE SMOOTH"
);
},
{
closed = 1;
nodes = (
"452 775 OFFCURVE",
"491 818 OFFCURVE",
"491 868 CURVE SMOOTH",
"491 901 OFFCURVE",
"470 926 OFFCURVE",
"430 926 CURVE SMOOTH",
"380 926 OFFCURVE",
"342 882 OFFCURVE",
"342 832 CURVE SMOOTH",
"342 799 OFFCURVE",
"362 775 OFFCURVE",
"401 775 CURVE SMOOTH"
);
},
{
closed = 1;
nodes = (
"690 775 OFFCURVE",
"729 818 OFFCURVE",
"729 868 CURVE SMOOTH",
"729 901 OFFCURVE",
"708 926 OFFCURVE",
"669 926 CURVE SMOOTH",
"617 926 OFFCURVE",
"579 882 OFFCURVE",
"579 832 CURVE SMOOTH",
"579 799 OFFCURVE",
"599 775 OFFCURVE",
"639 775 CURVE SMOOTH"
);
}
);
width = 806;
}
);
leftKerningGroup = O;
note = Odieresis;
rightKerningGroup = O;
unicode = 00D6;
},
{
glyphname = Odotbelow;
lastChange = "2015-12-01 14:05:07 +0000";
layers = (
{
layerId = "E6BC66B7-46A3-4CBE-A067-18EBCB5231B7";
name = "Bold Italic";
paths = (
{
closed = 1;
nodes = (
"624 -10 OFFCURVE",
"765 138 OFFCURVE",
"809 350 CURVE SMOOTH",
"816 386 OFFCURVE",
"819 419 OFFCURVE",
"819 451 CURVE SMOOTH",
"819 607 OFFCURVE",
"727 710 OFFCURVE",
"507 710 CURVE SMOOTH",
"243 710 OFFCURVE",
"103 562 OFFCURVE",
"60 350 CURVE SMOOTH",
"52 314 OFFCURVE",
"48 280 OFFCURVE",
"48 249 CURVE SMOOTH",
"48 92 OFFCURVE",
"140 -10 OFFCURVE",
"360 -10 CURVE SMOOTH"
);
},
{
closed = 1;
nodes = (
"293 62 OFFCURVE",
"249 122 OFFCURVE",
"249 232 CURVE SMOOTH",
"249 266 OFFCURVE",
"254 306 OFFCURVE",
"262 350 CURVE SMOOTH",
"300 534 OFFCURVE",
"385 640 OFFCURVE",
"493 640 CURVE SMOOTH",
"575 640 OFFCURVE",
"620 579 OFFCURVE",
"620 469 CURVE SMOOTH",
"620 434 OFFCURVE",
"615 394 OFFCURVE",
"606 350 CURVE SMOOTH",
"569 166 OFFCURVE",
"484 62 OFFCURVE",
"375 62 CURVE SMOOTH"
);
},
{
closed = 1;
nodes = (
"371 -216 OFFCURVE",
"410 -174 OFFCURVE",
"410 -124 CURVE SMOOTH",
"410 -90 OFFCURVE",
"389 -64 OFFCURVE",
"351 -64 CURVE SMOOTH",
"300 -64 OFFCURVE",
"260 -109 OFFCURVE",
"260 -159 CURVE SMOOTH",
"260 -192 OFFCURVE",
"282 -216 OFFCURVE",
"320 -216 CURVE SMOOTH"
);
}
);
width = 806;
}
);
leftKerningGroup = O;
note = Odotbelow;
rightKerningGroup = O;
unicode = 1ECC;
},
{
glyphname = Ograve;
lastChange = "2015-12-01 14:00:36 +0000";
layers = (
{
layerId = "E6BC66B7-46A3-4CBE-A067-18EBCB5231B7";
name = "Bold Italic";
paths = (
{
closed = 1;
nodes = (
"636 -10 OFFCURVE",
"819 172 OFFCURVE",
"819 451 CURVE SMOOTH",
"819 607 OFFCURVE",
"727 710 OFFCURVE",
"507 710 CURVE SMOOTH",
"233 710 OFFCURVE",
"48 527 OFFCURVE",
"48 249 CURVE SMOOTH",
"48 92 OFFCURVE",
"140 -10 OFFCURVE",
"360 -10 CURVE SMOOTH"
);
},
{
closed = 1;
nodes = (
"293 62 OFFCURVE",
"249 122 OFFCURVE",
"249 232 CURVE SMOOTH",
"249 410 OFFCURVE",
"338 640 OFFCURVE",
"493 640 CURVE SMOOTH",
"575 640 OFFCURVE",
"620 579 OFFCURVE",
"620 469 CURVE SMOOTH",
"620 288 OFFCURVE",
"531 62 OFFCURVE",
"375 62 CURVE SMOOTH"
);
},
{
closed = 1;
nodes = (
"659 823 LINE",
"567 962 LINE",
"563 969 OFFCURVE",
"539 1005 OFFCURVE",
"500 1005 CURVE SMOOTH",
"459 1005 OFFCURVE",
"426 976 OFFCURVE",
"426 938 CURVE SMOOTH",
"426 914 OFFCURVE",
"442 894 OFFCURVE",
"470 874 CURVE SMOOTH",
"616 773 LINE"
);
}
);
width = 806;
}
);
leftKerningGroup = O;
note = Ograve;
rightKerningGroup = O;
unicode = 00D2;
},
{
glyphname = Ohookabove;
lastChange = "2015-12-01 14:00:35 +0000";
layers = (
{
layerId = "E6BC66B7-46A3-4CBE-A067-18EBCB5231B7";
name = "Bold Italic";
paths = (
{
closed = 1;
nodes = (
"624 -10 OFFCURVE",
"765 138 OFFCURVE",
"809 350 CURVE SMOOTH",
"816 386 OFFCURVE",
"819 419 OFFCURVE",
"819 451 CURVE SMOOTH",
"819 607 OFFCURVE",
"727 710 OFFCURVE",
"507 710 CURVE SMOOTH",
"243 710 OFFCURVE",
"103 562 OFFCURVE",
"60 350 CURVE SMOOTH",
"52 314 OFFCURVE",
"48 280 OFFCURVE",
"48 249 CURVE SMOOTH",
"48 92 OFFCURVE",
"140 -10 OFFCURVE",
"360 -10 CURVE SMOOTH"
);
},
{
closed = 1;
nodes = (
"293 62 OFFCURVE",
"249 122 OFFCURVE",
"249 232 CURVE SMOOTH",
"249 266 OFFCURVE",
"254 306 OFFCURVE",
"262 350 CURVE SMOOTH",
"300 534 OFFCURVE",
"385 640 OFFCURVE",
"493 640 CURVE SMOOTH",
"575 640 OFFCURVE",
"620 579 OFFCURVE",
"620 469 CURVE SMOOTH",
"620 434 OFFCURVE",
"615 394 OFFCURVE",
"606 350 CURVE SMOOTH",
"569 166 OFFCURVE",
"484 62 OFFCURVE",
"375 62 CURVE SMOOTH"
);
},
{
closed = 1;
nodes = (
"555 802 LINE",
"546 802 OFFCURVE",
"532 804 OFFCURVE",
"532 820 CURVE SMOOTH",
"532 822 OFFCURVE",
"532 825 OFFCURVE",
"533 828 CURVE SMOOTH",
"543 878 OFFCURVE",
"661 884 OFFCURVE",
"676 956 CURVE SMOOTH",
"677 961 OFFCURVE",
"677 965 OFFCURVE",
"677 970 CURVE SMOOTH",
"677 1014 OFFCURVE",
"629 1035 OFFCURVE",
"572 1035 CURVE SMOOTH",
"478 1035 OFFCURVE",
"445 991 OFFCURVE",
"440 968 CURVE SMOOTH",
"439 965 OFFCURVE",
"439 962 OFFCURVE",
"439 959 CURVE SMOOTH",
"439 938 OFFCURVE",
"453 929 OFFCURVE",
"470 929 CURVE SMOOTH",
"489 929 OFFCURVE",
"510 941 OFFCURVE",
"514 961 CURVE SMOOTH",
"520 992 OFFCURVE",
"547 999 OFFCURVE",
"563 999 CURVE SMOOTH",
"585 999 OFFCURVE",
"591 981 OFFCURVE",
"588 965 CURVE SMOOTH",
"573 898 OFFCURVE",
"477 885 OFFCURVE",
"466 830 CURVE SMOOTH",
"465 827 OFFCURVE",
"465 824 OFFCURVE",
"465 821 CURVE SMOOTH",
"465 791 OFFCURVE",
"501 775 OFFCURVE",
"542 775 CURVE"
);
}
);
width = 806;
}
);
leftKerningGroup = O;
note = Ohookabove;
rightKerningGroup = O;
unicode = 1ECE;
},
{
glyphname = Ohorn;
lastChange = "2015-12-01 14:05:19 +0000";
layers = (
{
layerId = "E6BC66B7-46A3-4CBE-A067-18EBCB5231B7";
name = "Bold Italic";
paths = (
{
closed = 1;
nodes = (
"624 -10 OFFCURVE",
"765 138 OFFCURVE",
"808 350 CURVE SMOOTH",
"816 386 OFFCURVE",
"819 419 OFFCURVE",
"819 451 CURVE SMOOTH",
"819 607 OFFCURVE",
"727 710 OFFCURVE",
"507 710 CURVE SMOOTH",
"243 710 OFFCURVE",
"103 562 OFFCURVE",
"60 350 CURVE SMOOTH",
"52 314 OFFCURVE",
"48 280 OFFCURVE",
"48 249 CURVE SMOOTH",
"48 92 OFFCURVE",
"140 -10 OFFCURVE",
"360 -10 CURVE SMOOTH"
);
},
{
closed = 1;
nodes = (
"293 62 OFFCURVE",
"249 122 OFFCURVE",
"249 232 CURVE SMOOTH",
"249 266 OFFCURVE",
"254 306 OFFCURVE",
"262 350 CURVE SMOOTH",
"300 534 OFFCURVE",
"385 640 OFFCURVE",
"493 640 CURVE SMOOTH",
"575 640 OFFCURVE",
"619 579 OFFCURVE",
"619 469 CURVE SMOOTH",
"619 434 OFFCURVE",
"615 394 OFFCURVE",
"606 350 CURVE SMOOTH",
"568 166 OFFCURVE",
"484 62 OFFCURVE",
"375 62 CURVE SMOOTH"
);
},
{
closed = 1;
nodes = (
"834 511 OFFCURVE",
"974 601 OFFCURVE",
"997 715 CURVE SMOOTH",
"999 727 OFFCURVE",
"1000 737 OFFCURVE",
"1000 747 CURVE SMOOTH",
"1000 797 OFFCURVE",
"972 825 OFFCURVE",
"930 825 CURVE SMOOTH",
"878 825 OFFCURVE",
"839 783 OFFCURVE",
"839 742 CURVE SMOOTH",
"839 711 OFFCURVE",
"864 692 OFFCURVE",
"864 659 CURVE SMOOTH",
"864 655 OFFCURVE",
"863 650 OFFCURVE",
"862 645 CURVE SMOOTH",
"853 599 OFFCURVE",
"817 566 OFFCURVE",
"754 537 CURVE",
"746 497 LINE"
);
}
);
width = 823;
}
);
leftKerningGroup = O;
note = Ohorn;
rightKerningGroup = O;
unicode = 01A0;
},
{
glyphname = Ohornacute;
lastChange = "2015-12-01 14:05:19 +0000";
layers = (
{
layerId = "E6BC66B7-46A3-4CBE-A067-18EBCB5231B7";
name = "Bold Italic";
paths = (
{
closed = 1;
nodes = (
"624 -10 OFFCURVE",
"765 138 OFFCURVE",
"808 350 CURVE SMOOTH",
"816 386 OFFCURVE",
"819 419 OFFCURVE",
"819 451 CURVE SMOOTH",
"819 607 OFFCURVE",
"727 710 OFFCURVE",
"507 710 CURVE SMOOTH",
"243 710 OFFCURVE",
"103 562 OFFCURVE",
"60 350 CURVE SMOOTH",
"52 314 OFFCURVE",
"48 280 OFFCURVE",
"48 249 CURVE SMOOTH",
"48 92 OFFCURVE",
"140 -10 OFFCURVE",
"360 -10 CURVE SMOOTH"
);
},
{
closed = 1;
nodes = (
"293 62 OFFCURVE",
"249 122 OFFCURVE",
"249 232 CURVE SMOOTH",
"249 266 OFFCURVE",
"254 306 OFFCURVE",
"262 350 CURVE SMOOTH",
"300 534 OFFCURVE",
"385 640 OFFCURVE",
"493 640 CURVE SMOOTH",
"575 640 OFFCURVE",
"619 579 OFFCURVE",
"619 469 CURVE SMOOTH",
"619 434 OFFCURVE",
"615 394 OFFCURVE",
"606 350 CURVE SMOOTH",
"568 166 OFFCURVE",
"484 62 OFFCURVE",
"375 62 CURVE SMOOTH"
);
},
{
closed = 1;
nodes = (
"599 873 LINE SMOOTH",
"640 896 OFFCURVE",
"667 919 OFFCURVE",
"673 949 CURVE",
"674 953 OFFCURVE",
"674 957 OFFCURVE",
"674 961 CURVE SMOOTH",
"674 982 OFFCURVE",
"661 1004 OFFCURVE",
"623 1004 CURVE SMOOTH",
"584 1004 OFFCURVE",
"547 968 OFFCURVE",
"540 961 CURVE SMOOTH",
"389 822 LINE",
"414 772 LINE"
);
},
{
closed = 1;
nodes = (
"834 511 OFFCURVE",
"974 601 OFFCURVE",
"997 715 CURVE SMOOTH",
"999 727 OFFCURVE",
"1000 737 OFFCURVE",
"1000 747 CURVE SMOOTH",
"1000 797 OFFCURVE",
"972 825 OFFCURVE",
"930 825 CURVE SMOOTH",
"878 825 OFFCURVE",
"839 783 OFFCURVE",
"839 742 CURVE SMOOTH",
"839 711 OFFCURVE",
"864 692 OFFCURVE",
"864 659 CURVE SMOOTH",
"864 655 OFFCURVE",
"863 650 OFFCURVE",
"862 645 CURVE SMOOTH",
"853 599 OFFCURVE",
"817 566 OFFCURVE",
"754 537 CURVE",
"746 497 LINE"
);
}
);
width = 823;
}
);
leftKerningGroup = O;
note = Ohornacute;
rightKerningGroup = O;
unicode = 1EDA;
},
{
glyphname = Ohorndotbelow;
lastChange = "2015-12-01 14:05:27 +0000";
layers = (
{
layerId = "E6BC66B7-46A3-4CBE-A067-18EBCB5231B7";
name = "Bold Italic";
paths = (
{
closed = 1;
nodes = (
"624 -10 OFFCURVE",
"765 138 OFFCURVE",
"808 350 CURVE SMOOTH",
"816 386 OFFCURVE",
"819 419 OFFCURVE",
"819 451 CURVE SMOOTH",
"819 607 OFFCURVE",
"727 710 OFFCURVE",
"507 710 CURVE SMOOTH",
"243 710 OFFCURVE",
"103 562 OFFCURVE",
"60 350 CURVE SMOOTH",
"52 314 OFFCURVE",
"48 280 OFFCURVE",
"48 249 CURVE SMOOTH",
"48 92 OFFCURVE",
"140 -10 OFFCURVE",
"360 -10 CURVE SMOOTH"
);
},
{
closed = 1;
nodes = (
"293 62 OFFCURVE",
"249 122 OFFCURVE",
"249 232 CURVE SMOOTH",
"249 266 OFFCURVE",
"254 306 OFFCURVE",
"262 350 CURVE SMOOTH",
"300 534 OFFCURVE",
"385 640 OFFCURVE",
"493 640 CURVE SMOOTH",
"575 640 OFFCURVE",
"619 579 OFFCURVE",
"619 469 CURVE SMOOTH",
"619 434 OFFCURVE",
"615 394 OFFCURVE",
"606 350 CURVE SMOOTH",
"568 166 OFFCURVE",
"484 62 OFFCURVE",
"375 62 CURVE SMOOTH"
);
},
{
closed = 1;
nodes = (
"834 511 OFFCURVE",
"974 601 OFFCURVE",
"997 715 CURVE SMOOTH",
"999 727 OFFCURVE",
"1000 737 OFFCURVE",
"1000 747 CURVE SMOOTH",
"1000 797 OFFCURVE",
"972 825 OFFCURVE",
"930 825 CURVE SMOOTH",
"878 825 OFFCURVE",
"839 783 OFFCURVE",
"839 742 CURVE SMOOTH",
"839 711 OFFCURVE",
"864 692 OFFCURVE",
"864 659 CURVE SMOOTH",
"864 655 OFFCURVE",
"863 650 OFFCURVE",
"862 645 CURVE SMOOTH",
"853 599 OFFCURVE",
"817 566 OFFCURVE",
"754 537 CURVE",
"746 497 LINE"
);
},
{
closed = 1;
nodes = (
"376 -216 OFFCURVE",
"416 -174 OFFCURVE",
"416 -124 CURVE SMOOTH",
"416 -90 OFFCURVE",
"395 -64 OFFCURVE",
"356 -64 CURVE SMOOTH",
"305 -64 OFFCURVE",
"266 -109 OFFCURVE",
"266 -159 CURVE SMOOTH",
"266 -192 OFFCURVE",
"287 -216 OFFCURVE",
"326 -216 CURVE SMOOTH"
);
}
);
width = 823;
}
);
leftKerningGroup = O;
note = Ohorndotbelow;
rightKerningGroup = O;
unicode = 1EE2;
},
{
glyphname = Ohorngrave;
lastChange = "2015-12-01 14:05:19 +0000";
layers = (
{
layerId = "E6BC66B7-46A3-4CBE-A067-18EBCB5231B7";
name = "Bold Italic";
paths = (
{
closed = 1;
nodes = (
"624 -10 OFFCURVE",
"765 138 OFFCURVE",
"808 350 CURVE SMOOTH",
"816 386 OFFCURVE",
"819 419 OFFCURVE",
"819 451 CURVE SMOOTH",
"819 607 OFFCURVE",
"727 710 OFFCURVE",
"507 710 CURVE SMOOTH",
"243 710 OFFCURVE",
"103 562 OFFCURVE",
"60 350 CURVE SMOOTH",
"52 314 OFFCURVE",
"48 280 OFFCURVE",
"48 249 CURVE SMOOTH",
"48 92 OFFCURVE",
"140 -10 OFFCURVE",
"360 -10 CURVE SMOOTH"
);
},
{
closed = 1;
nodes = (
"293 62 OFFCURVE",
"249 122 OFFCURVE",
"249 232 CURVE SMOOTH",
"249 266 OFFCURVE",
"254 306 OFFCURVE",
"262 350 CURVE SMOOTH",
"300 534 OFFCURVE",
"385 640 OFFCURVE",
"493 640 CURVE SMOOTH",
"575 640 OFFCURVE",
"619 579 OFFCURVE",
"619 469 CURVE SMOOTH",
"619 434 OFFCURVE",
"615 394 OFFCURVE",
"606 350 CURVE SMOOTH",
"568 166 OFFCURVE",
"484 62 OFFCURVE",
"375 62 CURVE SMOOTH"
);
},
{
closed = 1;
nodes = (
"670 851 LINE",
"578 990 LINE",
"574 997 OFFCURVE",
"550 1033 OFFCURVE",
"511 1033 CURVE SMOOTH",
"466 1033 OFFCURVE",
"444 1002 OFFCURVE",
"438 978 CURVE",
"437 974 OFFCURVE",
"437 970 OFFCURVE",
"437 966 CURVE SMOOTH",
"437 942 OFFCURVE",
"453 922 OFFCURVE",
"481 902 CURVE SMOOTH",
"627 801 LINE"
);
},
{
closed = 1;
nodes = (
"834 511 OFFCURVE",
"974 601 OFFCURVE",
"997 715 CURVE SMOOTH",
"999 727 OFFCURVE",
"1000 737 OFFCURVE",
"1000 747 CURVE SMOOTH",
"1000 797 OFFCURVE",
"972 825 OFFCURVE",
"930 825 CURVE SMOOTH",
"878 825 OFFCURVE",
"839 783 OFFCURVE",
"839 742 CURVE SMOOTH",
"839 711 OFFCURVE",
"864 692 OFFCURVE",
"864 659 CURVE SMOOTH",
"864 655 OFFCURVE",
"863 650 OFFCURVE",
"862 645 CURVE SMOOTH",
"853 599 OFFCURVE",
"817 566 OFFCURVE",
"754 537 CURVE",
"746 497 LINE"
);
}
);
width = 823;
}
);
leftKerningGroup = O;
note = Ohorngrave;
rightKerningGroup = O;
unicode = 1EDC;
},
{
glyphname = Ohornhookabove;
lastChange = "2015-12-01 14:05:19 +0000";
layers = (
{
layerId = "E6BC66B7-46A3-4CBE-A067-18EBCB5231B7";
name = "Bold Italic";
paths = (
{
closed = 1;
nodes = (
"624 -10 OFFCURVE",
"765 138 OFFCURVE",
"808 350 CURVE SMOOTH",
"816 386 OFFCURVE",
"819 419 OFFCURVE",
"819 451 CURVE SMOOTH",
"819 607 OFFCURVE",
"727 710 OFFCURVE",
"507 710 CURVE SMOOTH",
"243 710 OFFCURVE",
"103 562 OFFCURVE",
"60 350 CURVE SMOOTH",
"52 314 OFFCURVE",
"48 280 OFFCURVE",
"48 249 CURVE SMOOTH",
"48 92 OFFCURVE",
"140 -10 OFFCURVE",
"360 -10 CURVE SMOOTH"
);
},
{
closed = 1;
nodes = (
"293 62 OFFCURVE",
"249 122 OFFCURVE",
"249 232 CURVE SMOOTH",
"249 266 OFFCURVE",
"254 306 OFFCURVE",
"262 350 CURVE SMOOTH",
"300 534 OFFCURVE",
"385 640 OFFCURVE",
"493 640 CURVE SMOOTH",
"575 640 OFFCURVE",
"619 579 OFFCURVE",
"619 469 CURVE SMOOTH",
"619 434 OFFCURVE",
"615 394 OFFCURVE",
"606 350 CURVE SMOOTH",
"568 166 OFFCURVE",
"484 62 OFFCURVE",
"375 62 CURVE SMOOTH"
);
},
{
closed = 1;
nodes = (
"567 830 LINE",
"557 830 OFFCURVE",
"543 832 OFFCURVE",
"543 848 CURVE SMOOTH",
"543 850 OFFCURVE",
"543 853 OFFCURVE",
"544 856 CURVE SMOOTH",
"554 906 OFFCURVE",
"672 912 OFFCURVE",
"687 984 CURVE SMOOTH",
"688 989 OFFCURVE",
"688 993 OFFCURVE",
"688 998 CURVE SMOOTH",
"688 1042 OFFCURVE",
"640 1063 OFFCURVE",
"584 1063 CURVE SMOOTH",
"490 1063 OFFCURVE",
"456 1019 OFFCURVE",
"451 996 CURVE SMOOTH",
"450 993 OFFCURVE",
"450 990 OFFCURVE",
"450 987 CURVE SMOOTH",
"450 966 OFFCURVE",
"465 957 OFFCURVE",
"481 957 CURVE SMOOTH",
"500 957 OFFCURVE",
"521 969 OFFCURVE",
"525 989 CURVE SMOOTH",
"531 1020 OFFCURVE",
"558 1027 OFFCURVE",
"574 1027 CURVE SMOOTH",
"596 1027 OFFCURVE",
"602 1009 OFFCURVE",
"599 993 CURVE SMOOTH",
"585 926 OFFCURVE",
"489 913 OFFCURVE",
"477 858 CURVE SMOOTH",
"476 855 OFFCURVE",
"476 852 OFFCURVE",
"476 849 CURVE SMOOTH",
"476 819 OFFCURVE",
"513 803 OFFCURVE",
"553 803 CURVE"
);
},
{
closed = 1;
nodes = (
"834 511 OFFCURVE",
"974 601 OFFCURVE",
"997 715 CURVE SMOOTH",
"999 727 OFFCURVE",
"1000 737 OFFCURVE",
"1000 747 CURVE SMOOTH",
"1000 797 OFFCURVE",
"972 825 OFFCURVE",
"930 825 CURVE SMOOTH",
"878 825 OFFCURVE",
"839 783 OFFCURVE",
"839 742 CURVE SMOOTH",
"839 711 OFFCURVE",
"864 692 OFFCURVE",
"864 659 CURVE SMOOTH",
"864 655 OFFCURVE",
"863 650 OFFCURVE",
"862 645 CURVE SMOOTH",
"853 599 OFFCURVE",
"817 566 OFFCURVE",
"754 537 CURVE",
"746 497 LINE"
);
}
);
width = 823;
}
);
leftKerningGroup = O;
note = Ohornhookabove;
rightKerningGroup = O;
unicode = 1EDE;
},
{
glyphname = Ohorntilde;
lastChange = "2015-12-01 14:05:19 +0000";
layers = (
{
layerId = "E6BC66B7-46A3-4CBE-A067-18EBCB5231B7";
name = "Bold Italic";
paths = (
{
closed = 1;
nodes = (
"624 -10 OFFCURVE",
"765 138 OFFCURVE",
"808 350 CURVE SMOOTH",
"816 386 OFFCURVE",
"819 419 OFFCURVE",
"819 451 CURVE SMOOTH",
"819 607 OFFCURVE",
"727 710 OFFCURVE",
"507 710 CURVE SMOOTH",
"243 710 OFFCURVE",
"103 562 OFFCURVE",
"60 350 CURVE SMOOTH",
"52 314 OFFCURVE",
"48 280 OFFCURVE",
"48 249 CURVE SMOOTH",
"48 92 OFFCURVE",
"140 -10 OFFCURVE",
"360 -10 CURVE SMOOTH"
);
},
{
closed = 1;
nodes = (
"293 62 OFFCURVE",
"249 122 OFFCURVE",
"249 232 CURVE SMOOTH",
"249 266 OFFCURVE",
"254 306 OFFCURVE",
"262 350 CURVE SMOOTH",
"300 534 OFFCURVE",
"385 640 OFFCURVE",
"493 640 CURVE SMOOTH",
"575 640 OFFCURVE",
"619 579 OFFCURVE",
"619 469 CURVE SMOOTH",
"619 434 OFFCURVE",
"615 394 OFFCURVE",
"606 350 CURVE SMOOTH",
"568 166 OFFCURVE",
"484 62 OFFCURVE",
"375 62 CURVE SMOOTH"
);
},
{
closed = 1;
nodes = (
"382 838 OFFCURVE",
"400 855 OFFCURVE",
"438 855 CURVE SMOOTH",
"502 855 OFFCURVE",
"550 811 OFFCURVE",
"612 811 CURVE SMOOTH",
"693 811 OFFCURVE",
"745 894 OFFCURVE",
"771 938 CURVE",
"743 957 LINE",
"712 916 OFFCURVE",
"695 900 OFFCURVE",
"658 900 CURVE SMOOTH",
"593 900 OFFCURVE",
"546 944 OFFCURVE",
"484 944 CURVE SMOOTH",
"402 944 OFFCURVE",
"351 861 OFFCURVE",
"323 817 CURVE",
"351 798 LINE"
);
},
{
closed = 1;
nodes = (
"834 511 OFFCURVE",
"974 601 OFFCURVE",
"997 715 CURVE SMOOTH",
"999 727 OFFCURVE",
"1000 737 OFFCURVE",
"1000 747 CURVE SMOOTH",
"1000 797 OFFCURVE",
"972 825 OFFCURVE",
"930 825 CURVE SMOOTH",
"878 825 OFFCURVE",
"839 783 OFFCURVE",
"839 742 CURVE SMOOTH",
"839 711 OFFCURVE",
"864 692 OFFCURVE",
"864 659 CURVE SMOOTH",
"864 655 OFFCURVE",
"863 650 OFFCURVE",
"862 645 CURVE SMOOTH",
"853 599 OFFCURVE",
"817 566 OFFCURVE",
"754 537 CURVE",
"746 497 LINE"
);
}
);
width = 823;
}
);
leftKerningGroup = O;
note = Ohorntilde;
rightKerningGroup = O;
unicode = 1EE0;
},
{
glyphname = Ohungarumlaut;
lastChange = "2015-12-01 14:00:35 +0000";
layers = (
{
layerId = "E6BC66B7-46A3-4CBE-A067-18EBCB5231B7";
name = "Bold Italic";
paths = (
{
closed = 1;
nodes = (
"624 -10 OFFCURVE",
"765 138 OFFCURVE",
"809 350 CURVE SMOOTH",
"816 386 OFFCURVE",
"819 419 OFFCURVE",
"819 451 CURVE SMOOTH",
"819 607 OFFCURVE",
"727 710 OFFCURVE",
"507 710 CURVE SMOOTH",
"243 710 OFFCURVE",
"103 562 OFFCURVE",
"60 350 CURVE SMOOTH",
"52 314 OFFCURVE",
"48 280 OFFCURVE",
"48 249 CURVE SMOOTH",
"48 92 OFFCURVE",
"140 -10 OFFCURVE",
"360 -10 CURVE SMOOTH"
);
},
{
closed = 1;
nodes = (
"293 62 OFFCURVE",
"249 122 OFFCURVE",
"249 232 CURVE SMOOTH",
"249 266 OFFCURVE",
"254 306 OFFCURVE",
"262 350 CURVE SMOOTH",
"300 534 OFFCURVE",
"385 640 OFFCURVE",
"493 640 CURVE SMOOTH",
"575 640 OFFCURVE",
"620 579 OFFCURVE",
"620 469 CURVE SMOOTH",
"620 434 OFFCURVE",
"615 394 OFFCURVE",
"606 350 CURVE SMOOTH",
"569 166 OFFCURVE",
"484 62 OFFCURVE",
"375 62 CURVE SMOOTH"
);
},
{
closed = 1;
nodes = (
"541 872 LINE SMOOTH",
"589 898 OFFCURVE",
"617 923 OFFCURVE",
"617 959 CURVE SMOOTH",
"617 980 OFFCURVE",
"603 1003 OFFCURVE",
"565 1003 CURVE SMOOTH",
"525 1003 OFFCURVE",
"488 967 OFFCURVE",
"481 960 CURVE",
"332 821 LINE",
"356 771 LINE"
);
},
{
closed = 1;
nodes = (
"762 872 LINE SMOOTH",
"809 898 OFFCURVE",
"837 923 OFFCURVE",
"837 959 CURVE SMOOTH",
"837 980 OFFCURVE",
"824 1003 OFFCURVE",
"786 1003 CURVE SMOOTH",
"746 1003 OFFCURVE",
"708 967 OFFCURVE",
"701 960 CURVE",
"551 821 LINE",
"574 771 LINE"
);
}
);
width = 806;
}
);
leftKerningGroup = O;
note = Ohungarumlaut;
rightKerningGroup = O;
unicode = 0150;
},
{
glyphname = Omacron;
lastChange = "2015-12-01 14:00:37 +0000";
layers = (
{
layerId = "E6BC66B7-46A3-4CBE-A067-18EBCB5231B7";
name = "Bold Italic";
paths = (
{
closed = 1;
nodes = (
"624 -10 OFFCURVE",
"765 138 OFFCURVE",
"809 350 CURVE SMOOTH",
"816 386 OFFCURVE",
"819 419 OFFCURVE",
"819 451 CURVE SMOOTH",
"819 607 OFFCURVE",
"727 710 OFFCURVE",
"507 710 CURVE SMOOTH",
"243 710 OFFCURVE",
"103 562 OFFCURVE",
"60 350 CURVE SMOOTH",
"52 314 OFFCURVE",
"48 280 OFFCURVE",
"48 249 CURVE SMOOTH",
"48 92 OFFCURVE",
"140 -10 OFFCURVE",
"360 -10 CURVE SMOOTH"
);
},
{
closed = 1;
nodes = (
"293 62 OFFCURVE",
"249 122 OFFCURVE",
"249 232 CURVE SMOOTH",
"249 266 OFFCURVE",
"254 306 OFFCURVE",
"262 350 CURVE SMOOTH",
"300 534 OFFCURVE",
"385 640 OFFCURVE",
"493 640 CURVE SMOOTH",
"575 640 OFFCURVE",
"620 579 OFFCURVE",
"620 469 CURVE SMOOTH",
"620 434 OFFCURVE",
"615 394 OFFCURVE",
"606 350 CURVE SMOOTH",
"569 166 OFFCURVE",
"484 62 OFFCURVE",
"375 62 CURVE SMOOTH"
);
},
{
closed = 1;
nodes = (
"726 775 LINE",
"741 850 LINE",
"330 850 LINE",
"314 775 LINE"
);
}
);
width = 806;
}
);
leftKerningGroup = O;
note = Omacron;
rightKerningGroup = O;
unicode = 014C;
},
{
glyphname = Oslash;
lastChange = "2015-12-01 14:05:35 +0000";
layers = (
{
layerId = "E6BC66B7-46A3-4CBE-A067-18EBCB5231B7";
name = "Bold Italic";
paths = (
{
closed = 1;
nodes = (
"624 -10 OFFCURVE",
"765 138 OFFCURVE",
"809 350 CURVE SMOOTH",
"816 386 OFFCURVE",
"819 419 OFFCURVE",
"819 451 CURVE SMOOTH",
"819 607 OFFCURVE",
"727 710 OFFCURVE",
"507 710 CURVE SMOOTH",
"243 710 OFFCURVE",
"103 562 OFFCURVE",
"60 350 CURVE SMOOTH",
"52 314 OFFCURVE",
"48 280 OFFCURVE",
"48 249 CURVE SMOOTH",
"48 92 OFFCURVE",
"140 -10 OFFCURVE",
"360 -10 CURVE SMOOTH"
);
},
{
closed = 1;
nodes = (
"293 62 OFFCURVE",
"249 122 OFFCURVE",
"249 232 CURVE SMOOTH",
"249 266 OFFCURVE",
"254 306 OFFCURVE",
"262 350 CURVE SMOOTH",
"300 534 OFFCURVE",
"385 640 OFFCURVE",
"493 640 CURVE SMOOTH",
"575 640 OFFCURVE",
"620 579 OFFCURVE",
"620 469 CURVE SMOOTH",
"620 434 OFFCURVE",
"615 394 OFFCURVE",
"606 350 CURVE SMOOTH",
"569 166 OFFCURVE",
"484 62 OFFCURVE",
"375 62 CURVE SMOOTH"
);
},
{
closed = 1;
nodes = (
"806 684 LINE",
"760 730 LINE",
"-1 5 LINE",
"43 -40 LINE"
);
}
);
width = 806;
}
);
leftKerningGroup = O;
note = Oslash;
rightKerningGroup = O;
unicode = 00D8;
},
{
glyphname = Oslashacute;
lastChange = "2015-12-01 14:05:37 +0000";
layers = (
{
layerId = "E6BC66B7-46A3-4CBE-A067-18EBCB5231B7";
name = "Bold Italic";
paths = (
{
closed = 1;
nodes = (
"624 -10 OFFCURVE",
"765 138 OFFCURVE",
"809 350 CURVE SMOOTH",
"816 386 OFFCURVE",
"819 419 OFFCURVE",
"819 451 CURVE SMOOTH",
"819 607 OFFCURVE",
"727 710 OFFCURVE",
"507 710 CURVE SMOOTH",
"243 710 OFFCURVE",
"103 562 OFFCURVE",
"60 350 CURVE SMOOTH",
"52 314 OFFCURVE",
"48 280 OFFCURVE",
"48 249 CURVE SMOOTH",
"48 92 OFFCURVE",
"140 -10 OFFCURVE",
"360 -10 CURVE SMOOTH"
);
},
{
closed = 1;
nodes = (
"293 62 OFFCURVE",
"249 122 OFFCURVE",
"249 232 CURVE SMOOTH",
"249 266 OFFCURVE",
"254 306 OFFCURVE",
"262 350 CURVE SMOOTH",
"300 534 OFFCURVE",
"385 640 OFFCURVE",
"493 640 CURVE SMOOTH",
"575 640 OFFCURVE",
"620 579 OFFCURVE",
"620 469 CURVE SMOOTH",
"620 434 OFFCURVE",
"615 394 OFFCURVE",
"606 350 CURVE SMOOTH",
"569 166 OFFCURVE",
"484 62 OFFCURVE",
"375 62 CURVE SMOOTH"
);
},
{
closed = 1;
nodes = (
"611 874 LINE SMOOTH",
"652 897 OFFCURVE",
"679 920 OFFCURVE",
"685 950 CURVE",
"686 954 OFFCURVE",
"686 958 OFFCURVE",
"686 962 CURVE SMOOTH",
"686 983 OFFCURVE",
"672 1005 OFFCURVE",
"635 1005 CURVE SMOOTH",
"596 1005 OFFCURVE",
"559 969 OFFCURVE",
"551 962 CURVE SMOOTH",
"401 823 LINE",
"426 773 LINE"
);
},
{
closed = 1;
nodes = (
"806 684 LINE",
"760 730 LINE",
"-1 5 LINE",
"43 -40 LINE"
);
}
);
width = 806;
}
);
leftKerningGroup = O;
note = Oslashacute;
rightKerningGroup = O;
unicode = 01FE;
},
{
glyphname = Otilde;
lastChange = "2015-12-01 14:00:37 +0000";
layers = (
{
layerId = "E6BC66B7-46A3-4CBE-A067-18EBCB5231B7";
name = "Bold Italic";
paths = (
{
closed = 1;
nodes = (
"624 -10 OFFCURVE",
"765 138 OFFCURVE",
"809 350 CURVE SMOOTH",
"816 386 OFFCURVE",
"819 419 OFFCURVE",
"819 451 CURVE SMOOTH",
"819 607 OFFCURVE",
"727 710 OFFCURVE",
"507 710 CURVE SMOOTH",
"243 710 OFFCURVE",
"103 562 OFFCURVE",
"60 350 CURVE SMOOTH",
"52 314 OFFCURVE",
"48 280 OFFCURVE",
"48 249 CURVE SMOOTH",
"48 92 OFFCURVE",
"140 -10 OFFCURVE",
"360 -10 CURVE SMOOTH"
);
},
{
closed = 1;
nodes = (
"293 62 OFFCURVE",
"249 122 OFFCURVE",
"249 232 CURVE SMOOTH",
"249 266 OFFCURVE",
"254 306 OFFCURVE",
"262 350 CURVE SMOOTH",
"300 534 OFFCURVE",
"385 640 OFFCURVE",
"493 640 CURVE SMOOTH",
"575 640 OFFCURVE",
"620 579 OFFCURVE",
"620 469 CURVE SMOOTH",
"620 434 OFFCURVE",
"615 394 OFFCURVE",
"606 350 CURVE SMOOTH",
"569 166 OFFCURVE",
"484 62 OFFCURVE",
"375 62 CURVE SMOOTH"
);
},
{
closed = 1;
nodes = (
"362 810 OFFCURVE",
"380 827 OFFCURVE",
"418 827 CURVE SMOOTH",
"482 827 OFFCURVE",
"530 783 OFFCURVE",
"592 783 CURVE SMOOTH",
"673 783 OFFCURVE",
"725 866 OFFCURVE",
"751 910 CURVE",
"723 929 LINE",
"692 888 OFFCURVE",
"675 872 OFFCURVE",
"638 872 CURVE SMOOTH",
"573 872 OFFCURVE",
"526 916 OFFCURVE",
"464 916 CURVE SMOOTH",
"382 916 OFFCURVE",
"331 833 OFFCURVE",
"303 789 CURVE",
"332 770 LINE"
);
}
);
width = 806;
}
);
leftKerningGroup = O;
note = Otilde;
rightKerningGroup = O;
unicode = 00D5;
},
{
glyphname = OE;
lastChange = "2015-12-01 14:00:35 +0000";
layers = (
{
layerId = "E6BC66B7-46A3-4CBE-A067-18EBCB5231B7";
name = "Bold Italic";
paths = (
{
closed = 1;
nodes = (
"465 -10 OFFCURVE",
"561 56 OFFCURVE",
"622 147 CURVE",
"560 206 LINE",
"515 112 OFFCURVE",
"451 60 OFFCURVE",
"374 60 CURVE SMOOTH",
"292 60 OFFCURVE",
"249 121 OFFCURVE",
"249 230 CURVE SMOOTH",
"249 265 OFFCURVE",
"254 305 OFFCURVE",
"262 350 CURVE SMOOTH",
"300 534 OFFCURVE",
"385 640 OFFCURVE",
"493 640 CURVE SMOOTH",
"570 640 OFFCURVE",
"612 588 OFFCURVE",
"620 494 CURVE",
"705 553 LINE",
"681 644 OFFCURVE",
"612 710 OFFCURVE",
"483 710 CURVE SMOOTH",
"244 710 OFFCURVE",
"103 562 OFFCURVE",
"60 350 CURVE SMOOTH",
"52 314 OFFCURVE",
"48 280 OFFCURVE",
"48 248 CURVE SMOOTH",
"48 92 OFFCURVE",
"138 -10 OFFCURVE",
"336 -10 CURVE SMOOTH"
);
},
{
closed = 1;
nodes = (
"1022 0 LINE",
"1084 203 LINE",
"1037 203 LINE",
"1010 128 OFFCURVE",
"978 68 OFFCURVE",
"907 68 CURVE SMOOTH",
"714 68 LINE",
"829 632 LINE",
"993 632 LINE SMOOTH",
"1066 632 OFFCURVE",
"1078 573 OFFCURVE",
"1078 529 CURVE SMOOTH",
"1078 516 OFFCURVE",
"1077 504 OFFCURVE",
"1076 496 CURVE",
"1124 496 LINE",
"1165 700 LINE",
"643 700 LINE",
"500 0 LINE"
);
},
{
closed = 1;
nodes = (
"989 240 LINE",
"1038 482 LINE",
"1001 482 LINE",
"988 440 OFFCURVE",
"973 395 OFFCURVE",
"930 395 CURVE SMOOTH",
"735 395 LINE",
"721 327 LINE",
"916 327 LINE SMOOTH",
"947 327 OFFCURVE",
"954 304 OFFCURVE",
"954 276 CURVE SMOOTH",
"954 264 OFFCURVE",
"953 252 OFFCURVE",
"952 240 CURVE"
);
}
);
width = 1112;
}
);
leftKerningGroup = O;
note = OE;
unicode = 0152;
},
